<ttFont>
    <TTGlyph name=".notdef" xMin="62" yMin="0" xMax="990" yMax="1024">
      <contour>
        <pt x="62" y="1024" on="1"/>
        <pt x="990" y="1024" on="1"/>
        <pt x="990" y="0" on="1"/>
        <pt x="62" y="0" on="1"/>
      </contour>
      <contour>
        <pt x="332" y="147" on="1"/>
        <pt x="720" y="147" on="1"/>
        <pt x="720" y="877" on="1"/>
        <pt x="332" y="877" on="1"/>
      </contour>
    </TTGlyph>
    <TTGlyph name="A" xMin="8" yMin="0" xMax="1360" yMax="1470">
      <contour>
        <pt x="844" y="428" on="1"/>
        <pt x="399" y="420" on="1"/>
        <pt x="366" y="324" on="1"/>
        <pt x="361" y="310" on="0"/>
        <pt x="346" y="268" on="0"/>
        <pt x="327" y="221" on="0"/>
        <pt x="308" y="176" on="0"/>
        <pt x="301" y="158" on="1"/>
        <pt x="447" y="164" on="1"/>
        <pt x="447" y="0" on="1"/>
        <pt x="8" y="0" on="1"/>
        <pt x="8" y="141" on="1"/>
        <pt x="51" y="141" on="0"/>
        <pt x="110" y="180" on="0"/>
        <pt x="154" y="244" on="0"/>
        <pt x="188" y="329" on="0"/>
        <pt x="205" y="375" on="1"/>
        <pt x="605" y="1470" on="1"/>
        <pt x="747" y="1470" on="1"/>
        <pt x="1184" y="354" on="1"/>
        <pt x="1190" y="339" on="0"/>
        <pt x="1207" y="289" on="0"/>
        <pt x="1225" y="232" on="0"/>
        <pt x="1239" y="175" on="0"/>
        <pt x="1242" y="152" on="1"/>
        <pt x="1360" y="158" on="1"/>
        <pt x="1360" y="0" on="1"/>
        <pt x="808" y="0" on="1"/>
        <pt x="808" y="135" on="1"/>
        <pt x="863" y="135" on="0"/>
        <pt x="907" y="178" on="0"/>
        <pt x="907" y="215" on="1"/>
        <pt x="907" y="236" on="0"/>
        <pt x="895" y="287" on="0"/>
        <pt x="885" y="316" on="1"/>
      </contour>
      <contour>
        <pt x="451" y="573" on="1"/>
        <pt x="792" y="573" on="1"/>
        <pt x="699" y="830" on="1"/>
        <pt x="672" y="905" on="0"/>
        <pt x="630" y="1052" on="0"/>
        <pt x="620" y="1109" on="1"/>
        <pt x="618" y="1109" on="1"/>
        <pt x="610" y="1074" on="0"/>
        <pt x="576" y="936" on="0"/>
        <pt x="543" y="839" on="1"/>
      </contour>
    </TTGlyph>
    <TTGlyph name="AE" xMin="-12" yMin="0" xMax="1832" yMax="1434">
      <contour>
        <pt x="739" y="0" on="1"/>
        <pt x="739" y="135" on="1"/>
        <pt x="773" y="137" on="0"/>
        <pt x="828" y="146" on="0"/>
        <pt x="865" y="181" on="0"/>
        <pt x="885" y="251" on="0"/>
        <pt x="885" y="313" on="1"/>
        <pt x="885" y="424" on="1"/>
        <pt x="484" y="414" on="1"/>
        <pt x="412" y="309" on="1"/>
        <pt x="379" y="261" on="0"/>
        <pt x="315" y="178" on="0"/>
        <pt x="282" y="153" on="1"/>
        <pt x="282" y="151" on="1"/>
        <pt x="446" y="158" on="1"/>
        <pt x="446" y="0" on="1"/>
        <pt x="-12" y="0" on="1"/>
        <pt x="-12" y="135" on="1"/>
        <pt x="24" y="135" on="0"/>
        <pt x="90" y="175" on="0"/>
        <pt x="150" y="237" on="0"/>
        <pt x="206" y="313" on="0"/>
        <pt x="232" y="350" on="1"/>
        <pt x="892" y="1279" on="1"/>
        <pt x="892" y="1280" on="0"/>
        <pt x="893" y="1281" on="0"/>
        <pt x="893" y="1282" on="1"/>
        <pt x="739" y="1276" on="1"/>
        <pt x="739" y="1434" on="1"/>
        <pt x="1764" y="1434" on="1"/>
        <pt x="1776" y="1037" on="1"/>
        <pt x="1641" y="1037" on="1"/>
        <pt x="1641" y="1117" on="0"/>
        <pt x="1597" y="1220" on="0"/>
        <pt x="1528" y="1279" on="0"/>
        <pt x="1443" y="1301" on="0"/>
        <pt x="1402" y="1301" on="1"/>
        <pt x="1318" y="1299" on="1"/>
        <pt x="1286" y="1298" on="0"/>
        <pt x="1235" y="1287" on="0"/>
        <pt x="1200" y="1251" on="0"/>
        <pt x="1181" y="1181" on="0"/>
        <pt x="1181" y="1121" on="1"/>
        <pt x="1181" y="814" on="1"/>
        <pt x="1422" y="814" on="1"/>
        <pt x="1413" y="991" on="1"/>
        <pt x="1571" y="991" on="1"/>
        <pt x="1571" y="493" on="1"/>
        <pt x="1436" y="493" on="1"/>
        <pt x="1436" y="553" on="0"/>
        <pt x="1409" y="624" on="0"/>
        <pt x="1362" y="661" on="0"/>
        <pt x="1298" y="674" on="0"/>
        <pt x="1251" y="673" on="1"/>
        <pt x="1181" y="672" on="1"/>
        <pt x="1181" y="336" on="1"/>
        <pt x="1181" y="308" on="0"/>
        <pt x="1180" y="255" on="0"/>
        <pt x="1178" y="207" on="0"/>
        <pt x="1175" y="168" on="0"/>
        <pt x="1173" y="155" on="1"/>
        <pt x="1448" y="156" on="1"/>
        <pt x="1493" y="156" on="0"/>
        <pt x="1583" y="186" on="0"/>
        <pt x="1653" y="255" on="0"/>
        <pt x="1697" y="368" on="0"/>
        <pt x="1697" y="451" on="1"/>
        <pt x="1832" y="451" on="1"/>
        <pt x="1820" y="0" on="1"/>
      </contour>
      <contour>
        <pt x="583" y="565" on="1"/>
        <pt x="885" y="565" on="1"/>
        <pt x="885" y="742" on="1"/>
        <pt x="885" y="808" on="0"/>
        <pt x="890" y="950" on="0"/>
        <pt x="897" y="1025" on="1"/>
        <pt x="859" y="967" on="0"/>
        <pt x="785" y="855" on="0"/>
        <pt x="749" y="803" on="1"/>
      </contour>
    </TTGlyph>
    <TTGlyph name="Aacute" xMin="8" yMin="0" xMax="1360" yMax="1973">
      <component glyphName="A" x="0" y="0" flags="0x204"/>
      <component glyphName="Acute" x="495" y="0" flags="0x4"/>
    </TTGlyph>
    <TTGlyph name="Abreve" xMin="8" yMin="0" xMax="1360" yMax="1912">
      <component glyphName="A" x="0" y="0" flags="0x0"/>
      <component glyphName="Breve" x="267" y="0" flags="0x0"/>
    </TTGlyph>
    <TTGlyph name="Acircumflex" xMin="8" yMin="0" xMax="1360" yMax="1988">
      <component glyphName="A" x="0" y="0" flags="0x204"/>
      <component glyphName="Circumflex" x="153" y="0" flags="0x4"/>
    </TTGlyph>
    <TTGlyph name="Acute" xMin="90" yMin="1576" xMax="544" yMax="1973">
      <contour>
        <pt x="163" y="1576" on="1"/>
        <pt x="90" y="1677" on="1"/>
        <pt x="325" y="1919" on="1"/>
        <pt x="349" y="1944" on="0"/>
        <pt x="409" y="1973" on="0"/>
        <pt x="440" y="1973" on="1"/>
        <pt x="459" y="1973" on="0"/>
        <pt x="496" y="1958" on="0"/>
        <pt x="526" y="1930" on="0"/>
        <pt x="544" y="1892" on="0"/>
        <pt x="544" y="1869" on="1"/>
        <pt x="544" y="1831" on="0"/>
        <pt x="497" y="1767" on="0"/>
        <pt x="462" y="1745" on="1"/>
      </contour>
    </TTGlyph>
    <TTGlyph name="Adieresis" xMin="8" yMin="0" xMax="1360" yMax="1943">
      <component glyphName="A" x="0" y="0" flags="0x204"/>
      <component glyphName="Dieresis" x="273" y="0" flags="0x4"/>
    </TTGlyph>
    <TTGlyph name="Agrave" xMin="8" yMin="0" xMax="1360" yMax="1973">
      <component glyphName="A" x="0" y="0" flags="0x204"/>
      <component glyphName="Grave" x="235" y="0" flags="0x4"/>
    </TTGlyph>
    <TTGlyph name="Amacron" xMin="8" yMin="0" xMax="1360" yMax="1891">
      <component glyphName="A" x="0" y="0" flags="0x0"/>
      <component glyphName="macron" x="267" y="410" flags="0x0"/>
    </TTGlyph>
    <TTGlyph name="Aogonek" xMin="8" yMin="-543" xMax="1360" yMax="1470">
      <contour>
        <pt x="1230" y="0" on="1"/>
        <pt x="1181" y="-21" on="0"/>
        <pt x="1087" y="-79" on="0"/>
        <pt x="1013" y="-151" on="0"/>
        <pt x="968" y="-232" on="0"/>
        <pt x="970" y="-275" on="1"/>
        <pt x="972" y="-312" on="0"/>
        <pt x="1017" y="-357" on="0"/>
        <pt x="1059" y="-357" on="1"/>
        <pt x="1089" y="-357" on="0"/>
        <pt x="1155" y="-327" on="0"/>
        <pt x="1187" y="-298" on="1"/>
        <pt x="1259" y="-386" on="1"/>
        <pt x="1205" y="-458" on="0"/>
        <pt x="1062" y="-543" on="0"/>
        <pt x="989" y="-543" on="1"/>
        <pt x="939" y="-543" on="0"/>
        <pt x="858" y="-516" on="0"/>
        <pt x="799" y="-464" on="0"/>
        <pt x="767" y="-385" on="0"/>
        <pt x="767" y="-332" on="1"/>
        <pt x="767" y="-284" on="0"/>
        <pt x="804" y="-192" on="0"/>
        <pt x="870" y="-107" on="0"/>
        <pt x="961" y="-32" on="0"/>
        <pt x="1014" y="0" on="1"/>
        <pt x="808" y="0" on="1"/>
        <pt x="808" y="135" on="1"/>
        <pt x="851" y="135" on="0"/>
        <pt x="896" y="162" on="0"/>
        <pt x="911" y="211" on="0"/>
        <pt x="899" y="277" on="0"/>
        <pt x="885" y="316" on="1"/>
        <pt x="844" y="428" on="1"/>
        <pt x="399" y="420" on="1"/>
        <pt x="366" y="324" on="1"/>
        <pt x="361" y="310" on="0"/>
        <pt x="346" y="268" on="0"/>
        <pt x="328" y="221" on="0"/>
        <pt x="309" y="176" on="0"/>
        <pt x="301" y="158" on="1"/>
        <pt x="317" y="159" on="0"/>
        <pt x="359" y="161" on="0"/>
        <pt x="400" y="162" on="0"/>
        <pt x="436" y="164" on="0"/>
        <pt x="447" y="164" on="1"/>
        <pt x="447" y="0" on="1"/>
        <pt x="8" y="0" on="1"/>
        <pt x="8" y="141" on="1"/>
        <pt x="51" y="141" on="0"/>
        <pt x="110" y="180" on="0"/>
        <pt x="154" y="244" on="0"/>
        <pt x="188" y="329" on="0"/>
        <pt x="205" y="375" on="1"/>
        <pt x="605" y="1470" on="1"/>
        <pt x="747" y="1470" on="1"/>
        <pt x="1184" y="354" on="1"/>
        <pt x="1190" y="339" on="0"/>
        <pt x="1208" y="289" on="0"/>
        <pt x="1225" y="232" on="0"/>
        <pt x="1239" y="175" on="0"/>
        <pt x="1242" y="152" on="1"/>
        <pt x="1275" y="154" on="0"/>
        <pt x="1338" y="157" on="0"/>
        <pt x="1360" y="158" on="1"/>
        <pt x="1360" y="0" on="1"/>
      </contour>
      <contour>
        <pt x="699" y="830" on="1"/>
        <pt x="672" y="904" on="0"/>
        <pt x="630" y="1052" on="0"/>
        <pt x="620" y="1109" on="1"/>
        <pt x="618" y="1109" on="1"/>
        <pt x="611" y="1074" on="0"/>
        <pt x="576" y="936" on="0"/>
        <pt x="543" y="839" on="1"/>
        <pt x="451" y="573" on="1"/>
        <pt x="792" y="573" on="1"/>
      </contour>
    </TTGlyph>
    <TTGlyph name="Aring" xMin="8" yMin="0" xMax="1360" yMax="2061">
      <component glyphName="A" x="0" y="0" flags="0x204"/>
      <component glyphName="Ring" x="301" y="0" flags="0x4"/>
    </TTGlyph>
    <TTGlyph name="Atilde" xMin="8" yMin="0" xMax="1360" yMax="1953">
      <component glyphName="A" x="0" y="0" flags="0x204"/>
      <component glyphName="Tilde" x="156" y="0" flags="0x4"/>
    </TTGlyph>
    <TTGlyph name="B" xMin="102" yMin="0" xMax="1297" yMax="1438">
      <contour>
        <pt x="102" y="135" on="1"/>
        <pt x="136" y="137" on="0"/>
        <pt x="191" y="146" on="0"/>
        <pt x="228" y="181" on="0"/>
        <pt x="248" y="251" on="0"/>
        <pt x="248" y="313" on="1"/>
        <pt x="248" y="1098" on="1"/>
        <pt x="248" y="1126" on="0"/>
        <pt x="249" y="1180" on="0"/>
        <pt x="251" y="1229" on="0"/>
        <pt x="254" y="1269" on="0"/>
        <pt x="256" y="1282" on="1"/>
        <pt x="102" y="1276" on="1"/>
        <pt x="102" y="1434" on="1"/>
        <pt x="670" y="1438" on="1"/>
        <pt x="789" y="1438" on="0"/>
        <pt x="982" y="1395" on="0"/>
        <pt x="1119" y="1308" on="0"/>
        <pt x="1193" y="1176" on="0"/>
        <pt x="1193" y="1086" on="1"/>
        <pt x="1193" y="1034" on="0"/>
        <pt x="1159" y="946" on="0"/>
        <pt x="1088" y="864" on="0"/>
        <pt x="977" y="797" on="0"/>
        <pt x="900" y="776" on="1"/>
        <pt x="900" y="774" on="1"/>
        <pt x="1002" y="758" on="0"/>
        <pt x="1151" y="687" on="0"/>
        <pt x="1249" y="590" on="0"/>
        <pt x="1297" y="471" on="0"/>
        <pt x="1297" y="407" on="1"/>
        <pt x="1297" y="307" on="0"/>
        <pt x="1222" y="155" on="0"/>
        <pt x="1089" y="52" on="0"/>
        <pt x="907" y="0" on="0"/>
        <pt x="799" y="0" on="1"/>
        <pt x="102" y="0" on="1"/>
      </contour>
      <contour>
        <pt x="536" y="145" on="1"/>
        <pt x="590" y="145" on="0"/>
        <pt x="688" y="146" on="0"/>
        <pt x="736" y="148" on="1"/>
        <pt x="798" y="151" on="0"/>
        <pt x="888" y="192" on="0"/>
        <pt x="946" y="262" on="0"/>
        <pt x="974" y="357" on="0"/>
        <pt x="974" y="414" on="1"/>
        <pt x="974" y="484" on="0"/>
        <pt x="929" y="579" on="0"/>
        <pt x="854" y="637" on="0"/>
        <pt x="759" y="661" on="0"/>
        <pt x="710" y="661" on="1"/>
        <pt x="613" y="661" on="0"/>
        <pt x="544" y="659" on="1"/>
        <pt x="544" y="326" on="1"/>
        <pt x="544" y="298" on="0"/>
        <pt x="543" y="245" on="0"/>
        <pt x="541" y="197" on="0"/>
        <pt x="538" y="158" on="0"/>
      </contour>
      <contour>
        <pt x="651" y="807" on="1"/>
        <pt x="716" y="808" on="0"/>
        <pt x="804" y="852" on="0"/>
        <pt x="858" y="927" on="0"/>
        <pt x="881" y="1025" on="0"/>
        <pt x="881" y="1082" on="1"/>
        <pt x="881" y="1144" on="0"/>
        <pt x="842" y="1226" on="0"/>
        <pt x="781" y="1274" on="0"/>
        <pt x="703" y="1294" on="0"/>
        <pt x="664" y="1294" on="1"/>
        <pt x="639" y="1293" on="0"/>
        <pt x="595" y="1283" on="0"/>
        <pt x="563" y="1248" on="0"/>
        <pt x="544" y="1181" on="0"/>
        <pt x="544" y="1122" on="1"/>
        <pt x="544" y="804" on="1"/>
      </contour>
    </TTGlyph>
    <TTGlyph name="Breve" xMin="59" yMin="1611" xMax="777" yMax="1912">
      <contour>
        <pt x="777" y="1830" on="1"/>
        <pt x="751" y="1769" on="0"/>
        <pt x="670" y="1686" on="0"/>
        <pt x="574" y="1634" on="0"/>
        <pt x="469" y="1611" on="0"/>
        <pt x="419" y="1611" on="1"/>
        <pt x="368" y="1611" on="0"/>
        <pt x="263" y="1634" on="0"/>
        <pt x="166" y="1686" on="0"/>
        <pt x="85" y="1769" on="0"/>
        <pt x="59" y="1830" on="1"/>
        <pt x="176" y="1912" on="1"/>
        <pt x="196" y="1890" on="0"/>
        <pt x="243" y="1850" on="0"/>
        <pt x="301" y="1819" on="0"/>
        <pt x="373" y="1800" on="0"/>
        <pt x="418" y="1800" on="1"/>
        <pt x="463" y="1800" on="0"/>
        <pt x="534" y="1819" on="0"/>
        <pt x="593" y="1850" on="0"/>
        <pt x="640" y="1890" on="0"/>
        <pt x="660" y="1912" on="1"/>
      </contour>
    </TTGlyph>
    <TTGlyph name="C" xMin="72" yMin="-33" xMax="1390" yMax="1467">
      <contour>
        <pt x="394" y="738" on="1"/>
        <pt x="394" y="605" on="0"/>
        <pt x="451" y="383" on="0"/>
        <pt x="560" y="222" on="0"/>
        <pt x="720" y="133" on="0"/>
        <pt x="824" y="133" on="1"/>
        <pt x="888" y="133" on="0"/>
        <pt x="1018" y="167" on="0"/>
        <pt x="1140" y="232" on="0"/>
        <pt x="1249" y="326" on="0"/>
        <pt x="1292" y="385" on="1"/>
        <pt x="1390" y="295" on="1"/>
        <pt x="1315" y="191" on="0"/>
        <pt x="1151" y="63" on="0"/>
        <pt x="989" y="-8" on="0"/>
        <pt x="837" y="-33" on="0"/>
        <pt x="774" y="-33" on="1"/>
        <pt x="615" y="-33" on="0"/>
        <pt x="356" y="80" on="0"/>
        <pt x="172" y="277" on="0"/>
        <pt x="72" y="543" on="0"/>
        <pt x="72" y="696" on="1"/>
        <pt x="72" y="789" on="0"/>
        <pt x="112" y="976" on="0"/>
        <pt x="191" y="1147" on="0"/>
        <pt x="311" y="1295" on="0"/>
        <pt x="470" y="1405" on="0"/>
        <pt x="669" y="1467" on="0"/>
        <pt x="788" y="1467" on="1"/>
        <pt x="828" y="1467" on="0"/>
        <pt x="917" y="1454" on="0"/>
        <pt x="1009" y="1428" on="0"/>
        <pt x="1099" y="1391" on="0"/>
        <pt x="1140" y="1366" on="1"/>
        <pt x="1142" y="1366" on="1"/>
        <pt x="1135" y="1453" on="1"/>
        <pt x="1293" y="1453" on="1"/>
        <pt x="1293" y="974" on="1"/>
        <pt x="1159" y="974" on="1"/>
        <pt x="1131" y="1145" on="0"/>
        <pt x="961" y="1318" on="0"/>
        <pt x="815" y="1318" on="1"/>
        <pt x="708" y="1318" on="0"/>
        <pt x="549" y="1220" on="0"/>
        <pt x="445" y="1058" on="0"/>
        <pt x="394" y="849" on="0"/>
      </contour>
    </TTGlyph>
    <TTGlyph name="Cacute" xMin="72" yMin="-33" xMax="1390" yMax="1973">
      <component glyphName="C" x="0" y="0" flags="0x0"/>
      <component glyphName="Acute" x="600" y="0" flags="0x0"/>
    </TTGlyph>
    <TTGlyph name="Caron" xMin="92" yMin="1576" xMax="950" yMax="1983">
      <contour>
        <pt x="532" y="1576" on="1"/>
        <pt x="492" y="1576" on="1"/>
        <pt x="92" y="1883" on="1"/>
        <pt x="156" y="1978" on="1"/>
        <pt x="521" y="1800" on="1"/>
        <pt x="895" y="1983" on="1"/>
        <pt x="950" y="1891" on="1"/>
      </contour>
    </TTGlyph>
    <TTGlyph name="Ccaron" xMin="73" yMin="-33" xMax="1391" yMax="1983">
      <component glyphName="C" x="1" y="0" flags="0x0"/>
      <component glyphName="Caron" x="340" y="0" flags="0x0"/>
    </TTGlyph>
    <TTGlyph name="Ccedilla" xMin="72" yMin="-563" xMax="1390" yMax="1467">
      <contour>
        <pt x="857" y="-106" on="1"/>
        <pt x="888" y="-107" on="0"/>
        <pt x="945" y="-127" on="0"/>
        <pt x="987" y="-164" on="0"/>
        <pt x="1012" y="-220" on="0"/>
        <pt x="1012" y="-257" on="1"/>
        <pt x="1012" y="-305" on="0"/>
        <pt x="964" y="-384" on="0"/>
        <pt x="886" y="-449" on="0"/>
        <pt x="786" y="-499" on="0"/>
        <pt x="681" y="-535" on="0"/>
        <pt x="580" y="-558" on="0"/>
        <pt x="541" y="-563" on="1"/>
        <pt x="525" y="-451" on="1"/>
        <pt x="541" y="-448" on="0"/>
        <pt x="590" y="-435" on="0"/>
        <pt x="645" y="-415" on="0"/>
        <pt x="699" y="-389" on="0"/>
        <pt x="743" y="-357" on="0"/>
        <pt x="770" y="-320" on="0"/>
        <pt x="770" y="-299" on="1"/>
        <pt x="770" y="-271" on="0"/>
        <pt x="739" y="-249" on="0"/>
        <pt x="717" y="-249" on="1"/>
        <pt x="695" y="-249" on="0"/>
        <pt x="647" y="-267" on="0"/>
        <pt x="632" y="-279" on="1"/>
        <pt x="547" y="-247" on="1"/>
        <pt x="602" y="-14" on="1"/>
        <pt x="480" y="14" on="0"/>
        <pt x="284" y="145" on="0"/>
        <pt x="146" y="331" on="0"/>
        <pt x="72" y="565" on="0"/>
        <pt x="72" y="696" on="1"/>
        <pt x="72" y="789" on="0"/>
        <pt x="112" y="976" on="0"/>
        <pt x="191" y="1147" on="0"/>
        <pt x="311" y="1295" on="0"/>
        <pt x="470" y="1405" on="0"/>
        <pt x="669" y="1467" on="0"/>
        <pt x="788" y="1467" on="1"/>
        <pt x="828" y="1467" on="0"/>
        <pt x="917" y="1454" on="0"/>
        <pt x="1009" y="1428" on="0"/>
        <pt x="1099" y="1391" on="0"/>
        <pt x="1140" y="1366" on="1"/>
        <pt x="1142" y="1366" on="1"/>
        <pt x="1135" y="1453" on="1"/>
        <pt x="1293" y="1453" on="1"/>
        <pt x="1293" y="974" on="1"/>
        <pt x="1159" y="974" on="1"/>
        <pt x="1131" y="1145" on="0"/>
        <pt x="961" y="1318" on="0"/>
        <pt x="815" y="1318" on="1"/>
        <pt x="708" y="1318" on="0"/>
        <pt x="549" y="1220" on="0"/>
        <pt x="445" y="1058" on="0"/>
        <pt x="394" y="849" on="0"/>
        <pt x="394" y="738" on="1"/>
        <pt x="394" y="605" on="0"/>
        <pt x="451" y="383" on="0"/>
        <pt x="560" y="222" on="0"/>
        <pt x="720" y="133" on="0"/>
        <pt x="824" y="133" on="1"/>
        <pt x="888" y="133" on="0"/>
        <pt x="1018" y="167" on="0"/>
        <pt x="1140" y="232" on="0"/>
        <pt x="1249" y="326" on="0"/>
        <pt x="1292" y="385" on="1"/>
        <pt x="1390" y="295" on="1"/>
        <pt x="1315" y="191" on="0"/>
        <pt x="1151" y="63" on="0"/>
        <pt x="989" y="-8" on="0"/>
        <pt x="837" y="-33" on="0"/>
        <pt x="774" y="-33" on="1"/>
        <pt x="769" y="-33" on="0"/>
        <pt x="760" y="-32" on="0"/>
        <pt x="755" y="-32" on="1"/>
        <pt x="715" y="-138" on="1"/>
        <pt x="717" y="-138" on="1"/>
        <pt x="730" y="-131" on="0"/>
        <pt x="766" y="-119" on="0"/>
        <pt x="805" y="-111" on="0"/>
        <pt x="842" y="-106" on="0"/>
      </contour>
    </TTGlyph>
    <TTGlyph name="Cedilla" xMin="92" yMin="-563" xMax="579" yMax="20">
      <contour>
        <pt x="424" y="-106" on="1"/>
        <pt x="455" y="-107" on="0"/>
        <pt x="512" y="-127" on="0"/>
        <pt x="554" y="-164" on="0"/>
        <pt x="579" y="-220" on="0"/>
        <pt x="579" y="-257" on="1"/>
        <pt x="579" y="-305" on="0"/>
        <pt x="531" y="-384" on="0"/>
        <pt x="453" y="-449" on="0"/>
        <pt x="353" y="-499" on="0"/>
        <pt x="248" y="-535" on="0"/>
        <pt x="147" y="-558" on="0"/>
        <pt x="108" y="-563" on="1"/>
        <pt x="92" y="-451" on="1"/>
        <pt x="108" y="-448" on="0"/>
        <pt x="157" y="-435" on="0"/>
        <pt x="212" y="-415" on="0"/>
        <pt x="266" y="-389" on="0"/>
        <pt x="310" y="-357" on="0"/>
        <pt x="337" y="-320" on="0"/>
        <pt x="337" y="-299" on="1"/>
        <pt x="337" y="-271" on="0"/>
        <pt x="306" y="-249" on="0"/>
        <pt x="284" y="-249" on="1"/>
        <pt x="262" y="-249" on="0"/>
        <pt x="214" y="-267" on="0"/>
        <pt x="199" y="-279" on="1"/>
        <pt x="114" y="-247" on="1"/>
        <pt x="177" y="20" on="1"/>
        <pt x="342" y="20" on="1"/>
        <pt x="282" y="-138" on="1"/>
        <pt x="284" y="-138" on="1"/>
        <pt x="297" y="-131" on="0"/>
        <pt x="333" y="-119" on="0"/>
        <pt x="372" y="-111" on="0"/>
        <pt x="409" y="-106" on="0"/>
      </contour>
    </TTGlyph>
    <TTGlyph name="Circumflex" xMin="92" yMin="1586" xMax="950" yMax="1988">
      <contour>
        <pt x="510" y="1988" on="1"/>
        <pt x="550" y="1988" on="1"/>
        <pt x="950" y="1681" on="1"/>
        <pt x="886" y="1586" on="1"/>
        <pt x="521" y="1764" on="1"/>
        <pt x="147" y="1589" on="1"/>
        <pt x="92" y="1681" on="1"/>
      </contour>
    </TTGlyph>
    <TTGlyph name="D" xMin="102" yMin="0" xMax="1482" yMax="1436">
      <contour>
        <pt x="102" y="1434" on="1"/>
        <pt x="699" y="1436" on="1"/>
        <pt x="834" y="1436" on="0"/>
        <pt x="1055" y="1380" on="0"/>
        <pt x="1229" y="1280" on="0"/>
        <pt x="1357" y="1144" on="0"/>
        <pt x="1441" y="987" on="0"/>
        <pt x="1482" y="816" on="0"/>
        <pt x="1482" y="731" on="1"/>
        <pt x="1482" y="648" on="0"/>
        <pt x="1444" y="475" on="0"/>
        <pt x="1363" y="312" on="0"/>
        <pt x="1237" y="169" on="0"/>
        <pt x="1061" y="62" on="0"/>
        <pt x="832" y="0" on="0"/>
        <pt x="689" y="0" on="1"/>
        <pt x="102" y="0" on="1"/>
        <pt x="102" y="135" on="1"/>
        <pt x="136" y="137" on="0"/>
        <pt x="191" y="147" on="0"/>
        <pt x="228" y="181" on="0"/>
        <pt x="248" y="251" on="0"/>
        <pt x="248" y="313" on="1"/>
        <pt x="248" y="1098" on="1"/>
        <pt x="248" y="1126" on="0"/>
        <pt x="249" y="1180" on="0"/>
        <pt x="251" y="1229" on="0"/>
        <pt x="254" y="1269" on="0"/>
        <pt x="256" y="1282" on="1"/>
        <pt x="102" y="1276" on="1"/>
      </contour>
      <contour>
        <pt x="695" y="1299" on="1"/>
        <pt x="657" y="1300" on="0"/>
        <pt x="600" y="1290" on="0"/>
        <pt x="563" y="1254" on="0"/>
        <pt x="544" y="1184" on="0"/>
        <pt x="544" y="1125" on="1"/>
        <pt x="544" y="336" on="1"/>
        <pt x="544" y="308" on="0"/>
        <pt x="543" y="254" on="0"/>
        <pt x="541" y="205" on="0"/>
        <pt x="538" y="165" on="0"/>
        <pt x="536" y="152" on="1"/>
        <pt x="551" y="153" on="0"/>
        <pt x="602" y="153" on="0"/>
        <pt x="659" y="151" on="0"/>
        <pt x="714" y="150" on="0"/>
        <pt x="732" y="150" on="1"/>
        <pt x="844" y="150" on="0"/>
        <pt x="1005" y="241" on="0"/>
        <pt x="1109" y="392" on="0"/>
        <pt x="1159" y="586" on="0"/>
        <pt x="1159" y="688" on="1"/>
        <pt x="1159" y="845" on="0"/>
        <pt x="1094" y="1073" on="0"/>
        <pt x="973" y="1222" on="0"/>
        <pt x="801" y="1296" on="0"/>
      </contour>
    </TTGlyph>
    <TTGlyph name="Dcaron" xMin="103" yMin="0" xMax="1483" yMax="1983">
      <component glyphName="D" x="1" y="0" flags="0x0"/>
      <component glyphName="Caron" x="270" y="0" flags="0x0"/>
    </TTGlyph>
    <TTGlyph name="Dcroat" xMin="61" yMin="1" xMax="1482" yMax="1437">
      <contour>
        <pt x="699" y="1437" on="1"/>
        <pt x="834" y="1437" on="0"/>
        <pt x="1055" y="1381" on="0"/>
        <pt x="1229" y="1281" on="0"/>
        <pt x="1357" y="1145" on="0"/>
        <pt x="1441" y="988" on="0"/>
        <pt x="1482" y="817" on="0"/>
        <pt x="1482" y="732" on="1"/>
        <pt x="1482" y="649" on="0"/>
        <pt x="1444" y="476" on="0"/>
        <pt x="1363" y="313" on="0"/>
        <pt x="1237" y="170" on="0"/>
        <pt x="1061" y="63" on="0"/>
        <pt x="832" y="1" on="0"/>
        <pt x="689" y="1" on="1"/>
        <pt x="102" y="1" on="1"/>
        <pt x="102" y="136" on="1"/>
        <pt x="136" y="138" on="0"/>
        <pt x="191" y="148" on="0"/>
        <pt x="228" y="182" on="0"/>
        <pt x="248" y="252" on="0"/>
        <pt x="248" y="314" on="1"/>
        <pt x="248" y="620" on="1"/>
        <pt x="61" y="618" on="1"/>
        <pt x="61" y="819" on="1"/>
        <pt x="248" y="819" on="1"/>
        <pt x="248" y="1099" on="1"/>
        <pt x="248" y="1127" on="0"/>
        <pt x="249" y="1181" on="0"/>
        <pt x="251" y="1230" on="0"/>
        <pt x="254" y="1270" on="0"/>
        <pt x="256" y="1283" on="1"/>
        <pt x="239" y="1282" on="0"/>
        <pt x="195" y="1280" on="0"/>
        <pt x="151" y="1278" on="0"/>
        <pt x="113" y="1277" on="0"/>
        <pt x="102" y="1277" on="1"/>
        <pt x="102" y="1437" on="1"/>
      </contour>
      <contour>
        <pt x="544" y="337" on="1"/>
        <pt x="544" y="309" on="0"/>
        <pt x="543" y="255" on="0"/>
        <pt x="541" y="206" on="0"/>
        <pt x="538" y="166" on="0"/>
        <pt x="536" y="153" on="1"/>
        <pt x="551" y="154" on="0"/>
        <pt x="602" y="154" on="0"/>
        <pt x="659" y="152" on="0"/>
        <pt x="714" y="151" on="0"/>
        <pt x="732" y="151" on="1"/>
        <pt x="844" y="151" on="0"/>
        <pt x="1005" y="242" on="0"/>
        <pt x="1109" y="393" on="0"/>
        <pt x="1159" y="587" on="0"/>
        <pt x="1159" y="689" on="1"/>
        <pt x="1159" y="846" on="0"/>
        <pt x="1094" y="1074" on="0"/>
        <pt x="973" y="1223" on="0"/>
        <pt x="801" y="1297" on="0"/>
        <pt x="695" y="1300" on="1"/>
        <pt x="657" y="1301" on="0"/>
        <pt x="600" y="1291" on="0"/>
        <pt x="563" y="1255" on="0"/>
        <pt x="544" y="1185" on="0"/>
        <pt x="544" y="1126" on="1"/>
        <pt x="544" y="819" on="1"/>
        <pt x="762" y="819" on="1"/>
        <pt x="762" y="627" on="1"/>
        <pt x="544" y="624" on="1"/>
      </contour>
    </TTGlyph>
    <TTGlyph name="Delta" xMin="59" yMin="0" xMax="1372" yMax="1467">
      <contour>
        <pt x="779" y="1467" on="1"/>
        <pt x="1372" y="0" on="1"/>
        <pt x="59" y="0" on="1"/>
        <pt x="618" y="1467" on="1"/>
      </contour>
      <contour>
        <pt x="273" y="146" on="1"/>
        <pt x="459" y="145" on="0"/>
        <pt x="851" y="145" on="0"/>
        <pt x="1046" y="143" on="1"/>
        <pt x="996" y="270" on="0"/>
        <pt x="898" y="517" on="0"/>
        <pt x="799" y="765" on="0"/>
        <pt x="698" y="1017" on="0"/>
        <pt x="647" y="1149" on="1"/>
      </contour>
    </TTGlyph>
    <TTGlyph name="Dieresis" xMin="89" yMin="1632" xMax="719" yMax="1943">
      <contour>
        <pt x="362" y="1786" on="1"/>
        <pt x="362" y="1754" on="0"/>
        <pt x="340" y="1698" on="0"/>
        <pt x="302" y="1656" on="0"/>
        <pt x="252" y="1632" on="0"/>
        <pt x="225" y="1632" on="1"/>
        <pt x="198" y="1632" on="0"/>
        <pt x="148" y="1656" on="0"/>
        <pt x="111" y="1698" on="0"/>
        <pt x="89" y="1754" on="0"/>
        <pt x="89" y="1786" on="1"/>
        <pt x="89" y="1818" on="0"/>
        <pt x="112" y="1875" on="0"/>
        <pt x="150" y="1918" on="0"/>
        <pt x="200" y="1943" on="0"/>
        <pt x="227" y="1943" on="1"/>
        <pt x="255" y="1943" on="0"/>
        <pt x="305" y="1918" on="0"/>
        <pt x="341" y="1875" on="0"/>
        <pt x="362" y="1818" on="0"/>
      </contour>
      <contour>
        <pt x="719" y="1786" on="1"/>
        <pt x="719" y="1754" on="0"/>
        <pt x="697" y="1698" on="0"/>
        <pt x="659" y="1656" on="0"/>
        <pt x="609" y="1632" on="0"/>
        <pt x="582" y="1632" on="1"/>
        <pt x="555" y="1632" on="0"/>
        <pt x="505" y="1656" on="0"/>
        <pt x="468" y="1698" on="0"/>
        <pt x="446" y="1754" on="0"/>
        <pt x="446" y="1786" on="1"/>
        <pt x="446" y="1818" on="0"/>
        <pt x="469" y="1875" on="0"/>
        <pt x="507" y="1918" on="0"/>
        <pt x="557" y="1943" on="0"/>
        <pt x="584" y="1943" on="1"/>
        <pt x="612" y="1943" on="0"/>
        <pt x="662" y="1918" on="0"/>
        <pt x="698" y="1875" on="0"/>
        <pt x="719" y="1818" on="0"/>
      </contour>
    </TTGlyph>
    <TTGlyph name="E" xMin="102" yMin="0" xMax="1195" yMax="1434">
      <contour>
        <pt x="544" y="672" on="1"/>
        <pt x="544" y="336" on="1"/>
        <pt x="544" y="308" on="0"/>
        <pt x="543" y="255" on="0"/>
        <pt x="541" y="207" on="0"/>
        <pt x="538" y="168" on="0"/>
        <pt x="536" y="155" on="1"/>
        <pt x="811" y="156" on="1"/>
        <pt x="856" y="156" on="0"/>
        <pt x="946" y="186" on="0"/>
        <pt x="1016" y="255" on="0"/>
        <pt x="1060" y="368" on="0"/>
        <pt x="1060" y="451" on="1"/>
        <pt x="1195" y="451" on="1"/>
        <pt x="1183" y="0" on="1"/>
        <pt x="102" y="0" on="1"/>
        <pt x="102" y="135" on="1"/>
        <pt x="136" y="137" on="0"/>
        <pt x="191" y="147" on="0"/>
        <pt x="228" y="181" on="0"/>
        <pt x="248" y="251" on="0"/>
        <pt x="248" y="313" on="1"/>
        <pt x="248" y="1098" on="1"/>
        <pt x="248" y="1126" on="0"/>
        <pt x="249" y="1180" on="0"/>
        <pt x="251" y="1229" on="0"/>
        <pt x="254" y="1269" on="0"/>
        <pt x="256" y="1282" on="1"/>
        <pt x="102" y="1276" on="1"/>
        <pt x="102" y="1434" on="1"/>
        <pt x="1127" y="1434" on="1"/>
        <pt x="1139" y="1037" on="1"/>
        <pt x="1004" y="1037" on="1"/>
        <pt x="1004" y="1120" on="0"/>
        <pt x="957" y="1224" on="0"/>
        <pt x="885" y="1282" on="0"/>
        <pt x="797" y="1302" on="0"/>
        <pt x="755" y="1301" on="1"/>
        <pt x="681" y="1299" on="1"/>
        <pt x="649" y="1298" on="0"/>
        <pt x="598" y="1287" on="0"/>
        <pt x="563" y="1251" on="0"/>
        <pt x="544" y="1181" on="0"/>
        <pt x="544" y="1121" on="1"/>
        <pt x="544" y="814" on="1"/>
        <pt x="785" y="814" on="1"/>
        <pt x="776" y="991" on="1"/>
        <pt x="934" y="991" on="1"/>
        <pt x="934" y="493" on="1"/>
        <pt x="799" y="493" on="1"/>
        <pt x="799" y="557" on="0"/>
        <pt x="767" y="631" on="0"/>
        <pt x="713" y="667" on="0"/>
        <pt x="640" y="674" on="0"/>
        <pt x="598" y="673" on="1"/>
      </contour>
    </TTGlyph>
    <TTGlyph name="Eacute" xMin="102" yMin="0" xMax="1195" yMax="1973">
      <component glyphName="E" x="0" y="0" flags="0x204"/>
      <component glyphName="Acute" x="391" y="0" flags="0x4"/>
    </TTGlyph>
    <TTGlyph name="Ecaron" xMin="103" yMin="0" xMax="1196" yMax="1983">
      <component glyphName="E" x="1" y="0" flags="0x0"/>
      <component glyphName="Caron" x="210" y="0" flags="0x0"/>
    </TTGlyph>
    <TTGlyph name="Ecircumflex" xMin="102" yMin="0" xMax="1195" yMax="1988">
      <component glyphName="E" x="0" y="0" flags="0x204"/>
      <component glyphName="Circumflex" x="136" y="0" flags="0x4"/>
    </TTGlyph>
    <TTGlyph name="Edieresis" xMin="102" yMin="0" xMax="1195" yMax="1943">
      <component glyphName="E" x="0" y="0" flags="0x204"/>
      <component glyphName="Dieresis" x="242" y="0" flags="0x4"/>
    </TTGlyph>
    <TTGlyph name="Edotaccent" xMin="102" yMin="0" xMax="1195" yMax="1952">
      <component glyphName="E" x="0" y="0" flags="0x0"/>
      <component glyphName="period" x="438" y="1688" scalex="0.923095703125" scaley="0.922485351562" flags="0x0"/>
    </TTGlyph>
    <TTGlyph name="Egrave" xMin="102" yMin="0" xMax="1195" yMax="1973">
      <component glyphName="E" x="0" y="0" flags="0x204"/>
      <component glyphName="Grave" x="260" y="0" flags="0x4"/>
    </TTGlyph>
    <TTGlyph name="Emacron" xMin="102" yMin="0" xMax="1195" yMax="1891">
      <component glyphName="E" x="0" y="0" flags="0x0"/>
      <component glyphName="macron" x="267" y="410" flags="0x0"/>
    </TTGlyph>
    <TTGlyph name="Eogonek" xMin="102" yMin="-534" xMax="1195" yMax="1434">
      <contour>
        <pt x="1129" y="0" on="1"/>
        <pt x="1082" y="-21" on="0"/>
        <pt x="995" y="-79" on="0"/>
        <pt x="927" y="-148" on="0"/>
        <pt x="887" y="-225" on="0"/>
        <pt x="889" y="-266" on="1"/>
        <pt x="891" y="-303" on="0"/>
        <pt x="936" y="-348" on="0"/>
        <pt x="978" y="-348" on="1"/>
        <pt x="1008" y="-348" on="0"/>
        <pt x="1074" y="-318" on="0"/>
        <pt x="1106" y="-289" on="1"/>
        <pt x="1178" y="-377" on="1"/>
        <pt x="1124" y="-449" on="0"/>
        <pt x="981" y="-534" on="0"/>
        <pt x="908" y="-534" on="1"/>
        <pt x="858" y="-534" on="0"/>
        <pt x="777" y="-507" on="0"/>
        <pt x="718" y="-455" on="0"/>
        <pt x="686" y="-376" on="0"/>
        <pt x="686" y="-323" on="1"/>
        <pt x="686" y="-277" on="0"/>
        <pt x="721" y="-188" on="0"/>
        <pt x="783" y="-105" on="0"/>
        <pt x="868" y="-32" on="0"/>
        <pt x="919" y="0" on="1"/>
        <pt x="102" y="0" on="1"/>
        <pt x="102" y="135" on="1"/>
        <pt x="136" y="137" on="0"/>
        <pt x="191" y="147" on="0"/>
        <pt x="228" y="181" on="0"/>
        <pt x="248" y="251" on="0"/>
        <pt x="248" y="313" on="1"/>
        <pt x="248" y="1098" on="1"/>
        <pt x="248" y="1126" on="0"/>
        <pt x="249" y="1180" on="0"/>
        <pt x="251" y="1229" on="0"/>
        <pt x="254" y="1269" on="0"/>
        <pt x="256" y="1282" on="1"/>
        <pt x="239" y="1281" on="0"/>
        <pt x="195" y="1279" on="0"/>
        <pt x="151" y="1277" on="0"/>
        <pt x="113" y="1276" on="0"/>
        <pt x="102" y="1276" on="1"/>
        <pt x="102" y="1434" on="1"/>
        <pt x="1127" y="1434" on="1"/>
        <pt x="1139" y="1037" on="1"/>
        <pt x="1004" y="1037" on="1"/>
        <pt x="1004" y="1120" on="0"/>
        <pt x="957" y="1224" on="0"/>
        <pt x="885" y="1282" on="0"/>
        <pt x="797" y="1302" on="0"/>
        <pt x="755" y="1301" on="1"/>
        <pt x="681" y="1299" on="1"/>
        <pt x="649" y="1298" on="0"/>
        <pt x="598" y="1287" on="0"/>
        <pt x="563" y="1251" on="0"/>
        <pt x="544" y="1181" on="0"/>
        <pt x="544" y="1121" on="1"/>
        <pt x="544" y="814" on="1"/>
        <pt x="785" y="814" on="1"/>
        <pt x="782" y="856" on="0"/>
        <pt x="778" y="953" on="0"/>
        <pt x="776" y="991" on="1"/>
        <pt x="934" y="991" on="1"/>
        <pt x="934" y="493" on="1"/>
        <pt x="799" y="493" on="1"/>
        <pt x="799" y="557" on="0"/>
        <pt x="767" y="631" on="0"/>
        <pt x="713" y="666" on="0"/>
        <pt x="640" y="673" on="0"/>
        <pt x="598" y="672" on="1"/>
        <pt x="544" y="672" on="1"/>
        <pt x="544" y="336" on="1"/>
        <pt x="544" y="280" on="0"/>
        <pt x="540" y="182" on="0"/>
        <pt x="536" y="156" on="1"/>
        <pt x="811" y="156" on="1"/>
        <pt x="856" y="156" on="0"/>
        <pt x="946" y="186" on="0"/>
        <pt x="1016" y="255" on="0"/>
        <pt x="1060" y="368" on="0"/>
        <pt x="1060" y="451" on="1"/>
        <pt x="1195" y="451" on="1"/>
        <pt x="1183" y="0" on="1"/>
      </contour>
    </TTGlyph>
    <TTGlyph name="Eth" xMin="61" yMin="1" xMax="1482" yMax="1437">
      <contour>
        <pt x="61" y="819" on="1"/>
        <pt x="248" y="819" on="1"/>
        <pt x="248" y="1099" on="1"/>
        <pt x="248" y="1127" on="0"/>
        <pt x="249" y="1181" on="0"/>
        <pt x="251" y="1230" on="0"/>
        <pt x="254" y="1270" on="0"/>
        <pt x="256" y="1283" on="1"/>
        <pt x="102" y="1277" on="1"/>
        <pt x="102" y="1435" on="1"/>
        <pt x="699" y="1437" on="1"/>
        <pt x="834" y="1437" on="0"/>
        <pt x="1055" y="1380" on="0"/>
        <pt x="1229" y="1280" on="0"/>
        <pt x="1357" y="1145" on="0"/>
        <pt x="1441" y="988" on="0"/>
        <pt x="1482" y="817" on="0"/>
        <pt x="1482" y="732" on="1"/>
        <pt x="1482" y="649" on="0"/>
        <pt x="1444" y="476" on="0"/>
        <pt x="1363" y="313" on="0"/>
        <pt x="1237" y="170" on="0"/>
        <pt x="1061" y="63" on="0"/>
        <pt x="832" y="1" on="0"/>
        <pt x="689" y="1" on="1"/>
        <pt x="102" y="1" on="1"/>
        <pt x="102" y="136" on="1"/>
        <pt x="136" y="138" on="0"/>
        <pt x="191" y="147" on="0"/>
        <pt x="228" y="182" on="0"/>
        <pt x="248" y="252" on="0"/>
        <pt x="248" y="314" on="1"/>
        <pt x="248" y="620" on="1"/>
        <pt x="61" y="618" on="1"/>
      </contour>
      <contour>
        <pt x="695" y="1300" on="1"/>
        <pt x="678" y="1300" on="1"/>
        <pt x="644" y="1300" on="0"/>
        <pt x="594" y="1287" on="0"/>
        <pt x="561" y="1250" on="0"/>
        <pt x="544" y="1181" on="0"/>
        <pt x="544" y="1126" on="1"/>
        <pt x="544" y="819" on="1"/>
        <pt x="762" y="819" on="1"/>
        <pt x="762" y="627" on="1"/>
        <pt x="544" y="624" on="1"/>
        <pt x="544" y="337" on="1"/>
        <pt x="544" y="309" on="0"/>
        <pt x="543" y="255" on="0"/>
        <pt x="541" y="206" on="0"/>
        <pt x="538" y="166" on="0"/>
        <pt x="536" y="153" on="1"/>
        <pt x="543" y="154" on="0"/>
        <pt x="561" y="154" on="0"/>
        <pt x="572" y="154" on="1"/>
        <pt x="591" y="154" on="0"/>
        <pt x="635" y="153" on="0"/>
        <pt x="678" y="152" on="0"/>
        <pt x="718" y="151" on="0"/>
        <pt x="732" y="151" on="1"/>
        <pt x="844" y="151" on="0"/>
        <pt x="1005" y="242" on="0"/>
        <pt x="1109" y="393" on="0"/>
        <pt x="1159" y="587" on="0"/>
        <pt x="1159" y="689" on="1"/>
        <pt x="1159" y="846" on="0"/>
        <pt x="1094" y="1074" on="0"/>
        <pt x="973" y="1223" on="0"/>
        <pt x="801" y="1297" on="0"/>
      </contour>
    </TTGlyph>
    <TTGlyph name="Euro" xMin="85" yMin="-33" xMax="1578" yMax="1467">
      <contour>
        <pt x="1148" y="631" on="1"/>
        <pt x="1047" y="478" on="1"/>
        <pt x="596" y="476" on="1"/>
        <pt x="641" y="305" on="0"/>
        <pt x="855" y="133" on="0"/>
        <pt x="1012" y="133" on="1"/>
        <pt x="1076" y="133" on="0"/>
        <pt x="1206" y="167" on="0"/>
        <pt x="1328" y="232" on="0"/>
        <pt x="1437" y="326" on="0"/>
        <pt x="1480" y="385" on="1"/>
        <pt x="1578" y="295" on="1"/>
        <pt x="1503" y="191" on="0"/>
        <pt x="1339" y="63" on="0"/>
        <pt x="1177" y="-8" on="0"/>
        <pt x="1025" y="-33" on="0"/>
        <pt x="962" y="-33" on="1"/>
        <pt x="834" y="-33" on="0"/>
        <pt x="617" y="42" on="0"/>
        <pt x="447" y="177" on="0"/>
        <pt x="328" y="364" on="0"/>
        <pt x="298" y="475" on="1"/>
        <pt x="85" y="474" on="1"/>
        <pt x="123" y="634" on="1"/>
        <pt x="272" y="633" on="1"/>
        <pt x="270" y="648" on="0"/>
        <pt x="270" y="678" on="0"/>
        <pt x="270" y="693" on="1"/>
        <pt x="270" y="709" on="0"/>
        <pt x="270" y="739" on="0"/>
        <pt x="271" y="754" on="1"/>
        <pt x="85" y="754" on="1"/>
        <pt x="123" y="914" on="1"/>
        <pt x="296" y="913" on="1"/>
        <pt x="323" y="1024" on="0"/>
        <pt x="434" y="1225" on="0"/>
        <pt x="604" y="1377" on="0"/>
        <pt x="832" y="1467" on="0"/>
        <pt x="976" y="1467" on="1"/>
        <pt x="1057" y="1467" on="0"/>
        <pt x="1236" y="1420" on="0"/>
        <pt x="1318" y="1366" on="1"/>
        <pt x="1320" y="1366" on="1"/>
        <pt x="1320" y="1453" on="1"/>
        <pt x="1481" y="1453" on="1"/>
        <pt x="1431" y="1004" on="1"/>
        <pt x="1297" y="1004" on="1"/>
        <pt x="1295" y="1155" on="0"/>
        <pt x="1148" y="1318" on="0"/>
        <pt x="1003" y="1318" on="1"/>
        <pt x="917" y="1318" on="0"/>
        <pt x="780" y="1254" on="0"/>
        <pt x="675" y="1144" on="0"/>
        <pt x="604" y="996" on="0"/>
        <pt x="585" y="913" on="1"/>
        <pt x="1272" y="911" on="1"/>
        <pt x="1175" y="758" on="1"/>
        <pt x="566" y="755" on="1"/>
        <pt x="565" y="741" on="0"/>
        <pt x="564" y="716" on="0"/>
        <pt x="564" y="702" on="1"/>
        <pt x="564" y="685" on="0"/>
        <pt x="566" y="649" on="0"/>
        <pt x="570" y="632" on="1"/>
      </contour>
    </TTGlyph>
    <TTGlyph name="F" xMin="102" yMin="0" xMax="1139" yMax="1434">
      <contour>
        <pt x="544" y="622" on="1"/>
        <pt x="544" y="336" on="1"/>
        <pt x="544" y="308" on="0"/>
        <pt x="543" y="254" on="0"/>
        <pt x="541" y="205" on="0"/>
        <pt x="538" y="165" on="0"/>
        <pt x="536" y="152" on="1"/>
        <pt x="718" y="158" on="1"/>
        <pt x="718" y="0" on="1"/>
        <pt x="102" y="0" on="1"/>
        <pt x="102" y="135" on="1"/>
        <pt x="136" y="137" on="0"/>
        <pt x="191" y="147" on="0"/>
        <pt x="228" y="181" on="0"/>
        <pt x="248" y="251" on="0"/>
        <pt x="248" y="313" on="1"/>
        <pt x="248" y="1098" on="1"/>
        <pt x="248" y="1126" on="0"/>
        <pt x="249" y="1180" on="0"/>
        <pt x="251" y="1229" on="0"/>
        <pt x="254" y="1269" on="0"/>
        <pt x="256" y="1282" on="1"/>
        <pt x="102" y="1276" on="1"/>
        <pt x="102" y="1434" on="1"/>
        <pt x="1127" y="1434" on="1"/>
        <pt x="1139" y="1037" on="1"/>
        <pt x="1004" y="1037" on="1"/>
        <pt x="1004" y="1120" on="0"/>
        <pt x="957" y="1224" on="0"/>
        <pt x="885" y="1282" on="0"/>
        <pt x="797" y="1302" on="0"/>
        <pt x="755" y="1301" on="1"/>
        <pt x="681" y="1299" on="1"/>
        <pt x="649" y="1298" on="0"/>
        <pt x="598" y="1287" on="0"/>
        <pt x="563" y="1251" on="0"/>
        <pt x="544" y="1181" on="0"/>
        <pt x="544" y="1121" on="1"/>
        <pt x="544" y="764" on="1"/>
        <pt x="756" y="764" on="1"/>
        <pt x="747" y="941" on="1"/>
        <pt x="905" y="941" on="1"/>
        <pt x="905" y="443" on="1"/>
        <pt x="770" y="443" on="1"/>
        <pt x="770" y="507" on="0"/>
        <pt x="738" y="581" on="0"/>
        <pt x="684" y="617" on="0"/>
        <pt x="611" y="624" on="0"/>
        <pt x="569" y="623" on="1"/>
      </contour>
    </TTGlyph>
    <TTGlyph name="G" xMin="73" yMin="-33" xMax="1509" yMax="1467">
      <contour>
        <pt x="1373" y="69" on="1"/>
        <pt x="1323" y="69" on="1"/>
        <pt x="1264" y="69" on="0"/>
        <pt x="1147" y="37" on="0"/>
        <pt x="1017" y="-1" on="0"/>
        <pt x="865" y="-33" on="0"/>
        <pt x="771" y="-33" on="1"/>
        <pt x="604" y="-33" on="0"/>
        <pt x="344" y="80" on="0"/>
        <pt x="166" y="277" on="0"/>
        <pt x="73" y="543" on="0"/>
        <pt x="73" y="696" on="1"/>
        <pt x="73" y="789" on="0"/>
        <pt x="112" y="976" on="0"/>
        <pt x="191" y="1147" on="0"/>
        <pt x="309" y="1295" on="0"/>
        <pt x="468" y="1405" on="0"/>
        <pt x="666" y="1467" on="0"/>
        <pt x="785" y="1467" on="1"/>
        <pt x="825" y="1467" on="0"/>
        <pt x="926" y="1454" on="0"/>
        <pt x="1031" y="1428" on="0"/>
        <pt x="1132" y="1391" on="0"/>
        <pt x="1173" y="1366" on="1"/>
        <pt x="1175" y="1366" on="1"/>
        <pt x="1168" y="1453" on="1"/>
        <pt x="1326" y="1453" on="1"/>
        <pt x="1326" y="974" on="1"/>
        <pt x="1192" y="974" on="1"/>
        <pt x="1178" y="1060" on="0"/>
        <pt x="1110" y="1189" on="0"/>
        <pt x="1010" y="1275" on="0"/>
        <pt x="884" y="1318" on="0"/>
        <pt x="812" y="1318" on="1"/>
        <pt x="705" y="1318" on="0"/>
        <pt x="547" y="1220" on="0"/>
        <pt x="444" y="1058" on="0"/>
        <pt x="394" y="849" on="0"/>
        <pt x="394" y="738" on="1"/>
        <pt x="394" y="605" on="0"/>
        <pt x="449" y="382" on="0"/>
        <pt x="557" y="220" on="0"/>
        <pt x="716" y="130" on="0"/>
        <pt x="821" y="130" on="1"/>
        <pt x="851" y="130" on="0"/>
        <pt x="927" y="137" on="0"/>
        <pt x="1007" y="150" on="0"/>
        <pt x="1082" y="171" on="0"/>
        <pt x="1111" y="185" on="1"/>
        <pt x="1111" y="375" on="1"/>
        <pt x="1111" y="403" on="0"/>
        <pt x="1112" y="457" on="0"/>
        <pt x="1114" y="506" on="0"/>
        <pt x="1117" y="546" on="0"/>
        <pt x="1119" y="559" on="1"/>
        <pt x="965" y="553" on="1"/>
        <pt x="965" y="711" on="1"/>
        <pt x="1509" y="711" on="1"/>
        <pt x="1509" y="576" on="1"/>
        <pt x="1474" y="574" on="0"/>
        <pt x="1423" y="562" on="0"/>
        <pt x="1390" y="525" on="0"/>
        <pt x="1373" y="456" on="0"/>
        <pt x="1373" y="398" on="1"/>
      </contour>
    </TTGlyph>
    <TTGlyph name="Gamma" xMin="102" yMin="0" xMax="1139" yMax="1434">
      <contour>
        <pt x="1004" y="1037" on="1"/>
        <pt x="1004" y="1120" on="0"/>
        <pt x="957" y="1224" on="0"/>
        <pt x="885" y="1282" on="0"/>
        <pt x="797" y="1302" on="0"/>
        <pt x="755" y="1301" on="1"/>
        <pt x="681" y="1299" on="1"/>
        <pt x="649" y="1298" on="0"/>
        <pt x="598" y="1287" on="0"/>
        <pt x="563" y="1251" on="0"/>
        <pt x="544" y="1181" on="0"/>
        <pt x="544" y="1121" on="1"/>
        <pt x="544" y="336" on="1"/>
        <pt x="544" y="308" on="0"/>
        <pt x="543" y="254" on="0"/>
        <pt x="541" y="205" on="0"/>
        <pt x="538" y="165" on="0"/>
        <pt x="536" y="152" on="1"/>
        <pt x="552" y="153" on="0"/>
        <pt x="605" y="155" on="0"/>
        <pt x="660" y="156" on="0"/>
        <pt x="707" y="158" on="0"/>
        <pt x="718" y="158" on="1"/>
        <pt x="718" y="0" on="1"/>
        <pt x="102" y="0" on="1"/>
        <pt x="102" y="135" on="1"/>
        <pt x="136" y="137" on="0"/>
        <pt x="191" y="147" on="0"/>
        <pt x="228" y="181" on="0"/>
        <pt x="248" y="251" on="0"/>
        <pt x="248" y="313" on="1"/>
        <pt x="248" y="1098" on="1"/>
        <pt x="248" y="1126" on="0"/>
        <pt x="249" y="1180" on="0"/>
        <pt x="251" y="1229" on="0"/>
        <pt x="254" y="1269" on="0"/>
        <pt x="256" y="1282" on="1"/>
        <pt x="239" y="1281" on="0"/>
        <pt x="195" y="1279" on="0"/>
        <pt x="151" y="1277" on="0"/>
        <pt x="113" y="1276" on="0"/>
        <pt x="102" y="1276" on="1"/>
        <pt x="102" y="1434" on="1"/>
        <pt x="1127" y="1434" on="1"/>
        <pt x="1139" y="1037" on="1"/>
      </contour>
    </TTGlyph>
    <TTGlyph name="Gbreve" xMin="74" yMin="-33" xMax="1510" yMax="1912">
      <component glyphName="G" x="1" y="0" flags="0x0"/>
      <component glyphName="Breve" x="438" y="0" flags="0x0"/>
    </TTGlyph>
    <TTGlyph name="Gcommaaccent" xMin="74" yMin="-582" xMax="1510" yMax="1467">
      <component glyphName="G" x="1" y="0" flags="0x0"/>
      <component glyphName="commaaccentcomb" x="514" y="0" flags="0x0"/>
    </TTGlyph>
    <TTGlyph name="Grave" xMin="91" yMin="1576" xMax="546" yMax="1973">
      <contour>
        <pt x="174" y="1745" on="1"/>
        <pt x="139" y="1766" on="0"/>
        <pt x="91" y="1832" on="0"/>
        <pt x="91" y="1870" on="1"/>
        <pt x="91" y="1892" on="0"/>
        <pt x="109" y="1930" on="0"/>
        <pt x="139" y="1957" on="0"/>
        <pt x="176" y="1973" on="0"/>
        <pt x="195" y="1973" on="1"/>
        <pt x="226" y="1973" on="0"/>
        <pt x="287" y="1944" on="0"/>
        <pt x="311" y="1919" on="1"/>
        <pt x="546" y="1677" on="1"/>
        <pt x="473" y="1576" on="1"/>
      </contour>
    </TTGlyph>
    <TTGlyph name="H" xMin="102" yMin="0" xMax="1550" yMax="1434">
      <contour>
        <pt x="1404" y="336" on="1"/>
        <pt x="1404" y="308" on="0"/>
        <pt x="1403" y="254" on="0"/>
        <pt x="1401" y="205" on="0"/>
        <pt x="1398" y="165" on="0"/>
        <pt x="1396" y="152" on="1"/>
        <pt x="1550" y="158" on="1"/>
        <pt x="1550" y="0" on="1"/>
        <pt x="962" y="0" on="1"/>
        <pt x="962" y="135" on="1"/>
        <pt x="996" y="137" on="0"/>
        <pt x="1051" y="146" on="0"/>
        <pt x="1088" y="181" on="0"/>
        <pt x="1108" y="251" on="0"/>
        <pt x="1108" y="313" on="1"/>
        <pt x="1108" y="645" on="1"/>
        <pt x="544" y="638" on="1"/>
        <pt x="544" y="336" on="1"/>
        <pt x="544" y="308" on="0"/>
        <pt x="543" y="254" on="0"/>
        <pt x="541" y="205" on="0"/>
        <pt x="538" y="165" on="0"/>
        <pt x="536" y="152" on="1"/>
        <pt x="690" y="158" on="1"/>
        <pt x="690" y="0" on="1"/>
        <pt x="102" y="0" on="1"/>
        <pt x="102" y="135" on="1"/>
        <pt x="136" y="137" on="0"/>
        <pt x="191" y="146" on="0"/>
        <pt x="228" y="181" on="0"/>
        <pt x="248" y="251" on="0"/>
        <pt x="248" y="313" on="1"/>
        <pt x="248" y="1098" on="1"/>
        <pt x="248" y="1126" on="0"/>
        <pt x="249" y="1180" on="0"/>
        <pt x="251" y="1229" on="0"/>
        <pt x="254" y="1269" on="0"/>
        <pt x="256" y="1282" on="1"/>
        <pt x="102" y="1276" on="1"/>
        <pt x="102" y="1434" on="1"/>
        <pt x="690" y="1434" on="1"/>
        <pt x="690" y="1299" on="1"/>
        <pt x="655" y="1297" on="0"/>
        <pt x="601" y="1287" on="0"/>
        <pt x="564" y="1253" on="0"/>
        <pt x="544" y="1183" on="0"/>
        <pt x="544" y="1121" on="1"/>
        <pt x="544" y="800" on="1"/>
        <pt x="1108" y="800" on="1"/>
        <pt x="1108" y="1098" on="1"/>
        <pt x="1108" y="1126" on="0"/>
        <pt x="1109" y="1180" on="0"/>
        <pt x="1111" y="1229" on="0"/>
        <pt x="1114" y="1269" on="0"/>
        <pt x="1116" y="1282" on="1"/>
        <pt x="962" y="1276" on="1"/>
        <pt x="962" y="1434" on="1"/>
        <pt x="1550" y="1434" on="1"/>
        <pt x="1550" y="1299" on="1"/>
        <pt x="1515" y="1297" on="0"/>
        <pt x="1461" y="1287" on="0"/>
        <pt x="1424" y="1253" on="0"/>
        <pt x="1404" y="1183" on="0"/>
        <pt x="1404" y="1121" on="1"/>
      </contour>
    </TTGlyph>
    <TTGlyph name="I" xMin="102" yMin="0" xMax="690" yMax="1434">
      <contour>
        <pt x="544" y="336" on="1"/>
        <pt x="544" y="308" on="0"/>
        <pt x="543" y="254" on="0"/>
        <pt x="541" y="205" on="0"/>
        <pt x="538" y="165" on="0"/>
        <pt x="536" y="152" on="1"/>
        <pt x="690" y="158" on="1"/>
        <pt x="690" y="0" on="1"/>
        <pt x="102" y="0" on="1"/>
        <pt x="102" y="135" on="1"/>
        <pt x="136" y="137" on="0"/>
        <pt x="191" y="146" on="0"/>
        <pt x="228" y="181" on="0"/>
        <pt x="248" y="251" on="0"/>
        <pt x="248" y="313" on="1"/>
        <pt x="248" y="1098" on="1"/>
        <pt x="248" y="1126" on="0"/>
        <pt x="249" y="1180" on="0"/>
        <pt x="251" y="1229" on="0"/>
        <pt x="254" y="1269" on="0"/>
        <pt x="256" y="1282" on="1"/>
        <pt x="102" y="1276" on="1"/>
        <pt x="102" y="1434" on="1"/>
        <pt x="690" y="1434" on="1"/>
        <pt x="690" y="1299" on="1"/>
        <pt x="655" y="1297" on="0"/>
        <pt x="601" y="1287" on="0"/>
        <pt x="564" y="1253" on="0"/>
        <pt x="544" y="1183" on="0"/>
        <pt x="544" y="1121" on="1"/>
      </contour>
    </TTGlyph>
    <TTGlyph name="Iacute" xMin="102" yMin="0" xMax="704" yMax="1973">
      <component glyphName="I" x="0" y="0" flags="0x4"/>
      <component glyphName="Acute" x="160" y="0" flags="0x4"/>
    </TTGlyph>
    <TTGlyph name="Icircumflex" xMin="51" yMin="0" xMax="749" yMax="1988">
      <contour>
        <pt x="389" y="1988" on="1"/>
        <pt x="429" y="1988" on="1"/>
        <pt x="749" y="1681" on="1"/>
        <pt x="685" y="1586" on="1"/>
        <pt x="400" y="1764" on="1"/>
        <pt x="106" y="1589" on="1"/>
        <pt x="51" y="1681" on="1"/>
      </contour>
      <contour>
        <pt x="544" y="336" on="1"/>
        <pt x="544" y="308" on="0"/>
        <pt x="543" y="254" on="0"/>
        <pt x="541" y="205" on="0"/>
        <pt x="538" y="165" on="0"/>
        <pt x="536" y="152" on="1"/>
        <pt x="690" y="158" on="1"/>
        <pt x="690" y="0" on="1"/>
        <pt x="102" y="0" on="1"/>
        <pt x="102" y="135" on="1"/>
        <pt x="136" y="137" on="0"/>
        <pt x="191" y="146" on="0"/>
        <pt x="228" y="181" on="0"/>
        <pt x="248" y="251" on="0"/>
        <pt x="248" y="313" on="1"/>
        <pt x="248" y="1098" on="1"/>
        <pt x="248" y="1126" on="0"/>
        <pt x="249" y="1180" on="0"/>
        <pt x="251" y="1229" on="0"/>
        <pt x="254" y="1269" on="0"/>
        <pt x="256" y="1282" on="1"/>
        <pt x="102" y="1276" on="1"/>
        <pt x="102" y="1434" on="1"/>
        <pt x="690" y="1434" on="1"/>
        <pt x="690" y="1299" on="1"/>
        <pt x="655" y="1297" on="0"/>
        <pt x="601" y="1287" on="0"/>
        <pt x="564" y="1253" on="0"/>
        <pt x="544" y="1183" on="0"/>
        <pt x="544" y="1121" on="1"/>
      </contour>
    </TTGlyph>
    <TTGlyph name="Idieresis" xMin="94" yMin="0" xMax="724" yMax="1943">
      <contour>
        <pt x="544" y="336" on="1"/>
        <pt x="544" y="308" on="0"/>
        <pt x="543" y="254" on="0"/>
        <pt x="541" y="205" on="0"/>
        <pt x="538" y="165" on="0"/>
        <pt x="536" y="152" on="1"/>
        <pt x="690" y="158" on="1"/>
        <pt x="690" y="0" on="1"/>
        <pt x="102" y="0" on="1"/>
        <pt x="102" y="135" on="1"/>
        <pt x="136" y="137" on="0"/>
        <pt x="191" y="146" on="0"/>
        <pt x="228" y="181" on="0"/>
        <pt x="248" y="251" on="0"/>
        <pt x="248" y="313" on="1"/>
        <pt x="248" y="1098" on="1"/>
        <pt x="248" y="1126" on="0"/>
        <pt x="249" y="1180" on="0"/>
        <pt x="251" y="1229" on="0"/>
        <pt x="254" y="1269" on="0"/>
        <pt x="256" y="1282" on="1"/>
        <pt x="102" y="1276" on="1"/>
        <pt x="102" y="1434" on="1"/>
        <pt x="690" y="1434" on="1"/>
        <pt x="690" y="1299" on="1"/>
        <pt x="655" y="1297" on="0"/>
        <pt x="601" y="1287" on="0"/>
        <pt x="564" y="1253" on="0"/>
        <pt x="544" y="1183" on="0"/>
        <pt x="544" y="1121" on="1"/>
      </contour>
      <contour>
        <pt x="367" y="1786" on="1"/>
        <pt x="367" y="1754" on="0"/>
        <pt x="345" y="1698" on="0"/>
        <pt x="307" y="1656" on="0"/>
        <pt x="257" y="1632" on="0"/>
        <pt x="230" y="1632" on="1"/>
        <pt x="203" y="1632" on="0"/>
        <pt x="153" y="1656" on="0"/>
        <pt x="116" y="1698" on="0"/>
        <pt x="94" y="1754" on="0"/>
        <pt x="94" y="1786" on="1"/>
        <pt x="94" y="1818" on="0"/>
        <pt x="117" y="1875" on="0"/>
        <pt x="155" y="1918" on="0"/>
        <pt x="205" y="1943" on="0"/>
        <pt x="232" y="1943" on="1"/>
        <pt x="260" y="1943" on="0"/>
        <pt x="310" y="1918" on="0"/>
        <pt x="346" y="1875" on="0"/>
        <pt x="367" y="1818" on="0"/>
      </contour>
      <contour>
        <pt x="724" y="1786" on="1"/>
        <pt x="724" y="1754" on="0"/>
        <pt x="702" y="1698" on="0"/>
        <pt x="664" y="1656" on="0"/>
        <pt x="614" y="1632" on="0"/>
        <pt x="587" y="1632" on="1"/>
        <pt x="560" y="1632" on="0"/>
        <pt x="510" y="1656" on="0"/>
        <pt x="473" y="1698" on="0"/>
        <pt x="451" y="1754" on="0"/>
        <pt x="451" y="1786" on="1"/>
        <pt x="451" y="1818" on="0"/>
        <pt x="474" y="1875" on="0"/>
        <pt x="512" y="1918" on="0"/>
        <pt x="562" y="1943" on="0"/>
        <pt x="589" y="1943" on="1"/>
        <pt x="617" y="1943" on="0"/>
        <pt x="667" y="1918" on="0"/>
        <pt x="703" y="1875" on="0"/>
        <pt x="724" y="1818" on="0"/>
      </contour>
    </TTGlyph>
    <TTGlyph name="Idotaccent" xMin="102" yMin="0" xMax="690" yMax="1951">
      <component glyphName="I" x="0" y="0" flags="0x0"/>
      <component glyphName="period" x="118" y="1687" scalex="0.923095703125" scaley="0.922485351562" flags="0x0"/>
    </TTGlyph>
    <TTGlyph name="Igrave" xMin="73" yMin="0" xMax="690" yMax="1973">
      <component glyphName="I" x="0" y="0" flags="0x204"/>
      <component glyphName="Grave" x="-18" y="0" flags="0x4"/>
    </TTGlyph>
    <TTGlyph name="Imacron" xMin="84" yMin="0" xMax="690" yMax="1891">
      <component glyphName="I" x="0" y="0" flags="0x0"/>
      <component glyphName="macron" x="-8" y="410" flags="0x0"/>
    </TTGlyph>
    <TTGlyph name="Iogonek" xMin="102" yMin="-543" xMax="716" yMax="1434">
      <contour>
        <pt x="716" y="-386" on="1"/>
        <pt x="662" y="-458" on="0"/>
        <pt x="519" y="-543" on="0"/>
        <pt x="446" y="-543" on="1"/>
        <pt x="396" y="-543" on="0"/>
        <pt x="315" y="-516" on="0"/>
        <pt x="256" y="-464" on="0"/>
        <pt x="224" y="-385" on="0"/>
        <pt x="224" y="-332" on="1"/>
        <pt x="224" y="-284" on="0"/>
        <pt x="261" y="-192" on="0"/>
        <pt x="327" y="-107" on="0"/>
        <pt x="418" y="-32" on="0"/>
        <pt x="471" y="0" on="1"/>
        <pt x="102" y="0" on="1"/>
        <pt x="102" y="135" on="1"/>
        <pt x="136" y="137" on="0"/>
        <pt x="191" y="147" on="0"/>
        <pt x="228" y="181" on="0"/>
        <pt x="248" y="251" on="0"/>
        <pt x="248" y="313" on="1"/>
        <pt x="248" y="1098" on="1"/>
        <pt x="248" y="1126" on="0"/>
        <pt x="249" y="1180" on="0"/>
        <pt x="251" y="1229" on="0"/>
        <pt x="254" y="1269" on="0"/>
        <pt x="256" y="1282" on="1"/>
        <pt x="239" y="1281" on="0"/>
        <pt x="195" y="1279" on="0"/>
        <pt x="151" y="1277" on="0"/>
        <pt x="113" y="1276" on="0"/>
        <pt x="102" y="1276" on="1"/>
        <pt x="102" y="1434" on="1"/>
        <pt x="690" y="1434" on="1"/>
        <pt x="690" y="1299" on="1"/>
        <pt x="655" y="1297" on="0"/>
        <pt x="601" y="1287" on="0"/>
        <pt x="564" y="1253" on="0"/>
        <pt x="544" y="1183" on="0"/>
        <pt x="544" y="1121" on="1"/>
        <pt x="544" y="336" on="1"/>
        <pt x="544" y="308" on="0"/>
        <pt x="543" y="254" on="0"/>
        <pt x="541" y="205" on="0"/>
        <pt x="538" y="165" on="0"/>
        <pt x="536" y="152" on="1"/>
        <pt x="552" y="153" on="0"/>
        <pt x="597" y="155" on="0"/>
        <pt x="641" y="156" on="0"/>
        <pt x="679" y="158" on="0"/>
        <pt x="690" y="158" on="1"/>
        <pt x="690" y="0" on="1"/>
        <pt x="687" y="0" on="1"/>
        <pt x="638" y="-21" on="0"/>
        <pt x="544" y="-79" on="0"/>
        <pt x="470" y="-151" on="0"/>
        <pt x="425" y="-232" on="0"/>
        <pt x="427" y="-275" on="1"/>
        <pt x="429" y="-312" on="0"/>
        <pt x="474" y="-357" on="0"/>
        <pt x="516" y="-357" on="1"/>
        <pt x="546" y="-357" on="0"/>
        <pt x="612" y="-327" on="0"/>
        <pt x="644" y="-298" on="1"/>
      </contour>
    </TTGlyph>
    <TTGlyph name="J" xMin="2" yMin="-33" xMax="868" yMax="1434">
      <contour>
        <pt x="722" y="521" on="1"/>
        <pt x="722" y="373" on="0"/>
        <pt x="666" y="163" on="0"/>
        <pt x="558" y="29" on="0"/>
        <pt x="398" y="-33" on="0"/>
        <pt x="295" y="-33" on="1"/>
        <pt x="235" y="-33" on="0"/>
        <pt x="128" y="0" on="0"/>
        <pt x="48" y="58" on="0"/>
        <pt x="2" y="138" on="0"/>
        <pt x="2" y="186" on="1"/>
        <pt x="2" y="220" on="0"/>
        <pt x="21" y="282" on="0"/>
        <pt x="60" y="329" on="0"/>
        <pt x="116" y="357" on="0"/>
        <pt x="154" y="357" on="1"/>
        <pt x="190" y="357" on="0"/>
        <pt x="241" y="333" on="0"/>
        <pt x="275" y="294" on="0"/>
        <pt x="291" y="244" on="0"/>
        <pt x="291" y="219" on="1"/>
        <pt x="291" y="202" on="0"/>
        <pt x="281" y="165" on="0"/>
        <pt x="273" y="148" on="1"/>
        <pt x="277" y="138" on="0"/>
        <pt x="294" y="125" on="0"/>
        <pt x="312" y="117" on="0"/>
        <pt x="330" y="114" on="0"/>
        <pt x="335" y="114" on="1"/>
        <pt x="379" y="114" on="0"/>
        <pt x="426" y="190" on="0"/>
        <pt x="426" y="277" on="1"/>
        <pt x="426" y="1098" on="1"/>
        <pt x="426" y="1126" on="0"/>
        <pt x="427" y="1180" on="0"/>
        <pt x="429" y="1229" on="0"/>
        <pt x="432" y="1269" on="0"/>
        <pt x="434" y="1282" on="1"/>
        <pt x="280" y="1276" on="1"/>
        <pt x="280" y="1434" on="1"/>
        <pt x="868" y="1434" on="1"/>
        <pt x="868" y="1299" on="1"/>
        <pt x="833" y="1297" on="0"/>
        <pt x="779" y="1287" on="0"/>
        <pt x="742" y="1253" on="0"/>
        <pt x="722" y="1183" on="0"/>
        <pt x="722" y="1121" on="1"/>
      </contour>
    </TTGlyph>
    <TTGlyph name="K" xMin="102" yMin="0" xMax="1456" yMax="1434">
      <contour>
        <pt x="544" y="809" on="1"/>
        <pt x="693" y="809" on="1"/>
        <pt x="849" y="1077" on="1"/>
        <pt x="867" y="1108" on="0"/>
        <pt x="905" y="1172" on="0"/>
        <pt x="943" y="1228" on="0"/>
        <pt x="976" y="1271" on="0"/>
        <pt x="990" y="1282" on="1"/>
        <pt x="990" y="1284" on="1"/>
        <pt x="860" y="1276" on="1"/>
        <pt x="860" y="1434" on="1"/>
        <pt x="1361" y="1434" on="1"/>
        <pt x="1361" y="1299" on="1"/>
        <pt x="1326" y="1297" on="0"/>
        <pt x="1251" y="1282" on="0"/>
        <pt x="1170" y="1239" on="0"/>
        <pt x="1086" y="1157" on="0"/>
        <pt x="1044" y="1089" on="1"/>
        <pt x="848" y="775" on="1"/>
        <pt x="848" y="772" on="1"/>
        <pt x="890" y="747" on="0"/>
        <pt x="952" y="688" on="0"/>
        <pt x="976" y="654" on="1"/>
        <pt x="1187" y="357" on="1"/>
        <pt x="1218" y="313" on="0"/>
        <pt x="1284" y="234" on="0"/>
        <pt x="1352" y="174" on="0"/>
        <pt x="1421" y="137" on="0"/>
        <pt x="1456" y="135" on="1"/>
        <pt x="1456" y="0" on="1"/>
        <pt x="1140" y="0" on="1"/>
        <pt x="1127" y="1" on="0"/>
        <pt x="1077" y="44" on="0"/>
        <pt x="1019" y="106" on="0"/>
        <pt x="961" y="178" on="0"/>
        <pt x="940" y="208" on="1"/>
        <pt x="738" y="503" on="1"/>
        <pt x="724" y="522" on="0"/>
        <pt x="694" y="564" on="0"/>
        <pt x="662" y="603" on="0"/>
        <pt x="632" y="636" on="0"/>
        <pt x="618" y="646" on="1"/>
        <pt x="544" y="645" on="1"/>
        <pt x="544" y="336" on="1"/>
        <pt x="544" y="308" on="0"/>
        <pt x="543" y="254" on="0"/>
        <pt x="541" y="205" on="0"/>
        <pt x="538" y="165" on="0"/>
        <pt x="536" y="152" on="1"/>
        <pt x="690" y="158" on="1"/>
        <pt x="690" y="0" on="1"/>
        <pt x="102" y="0" on="1"/>
        <pt x="102" y="135" on="1"/>
        <pt x="136" y="137" on="0"/>
        <pt x="191" y="146" on="0"/>
        <pt x="228" y="181" on="0"/>
        <pt x="248" y="251" on="0"/>
        <pt x="248" y="313" on="1"/>
        <pt x="248" y="1098" on="1"/>
        <pt x="248" y="1126" on="0"/>
        <pt x="249" y="1180" on="0"/>
        <pt x="251" y="1229" on="0"/>
        <pt x="254" y="1269" on="0"/>
        <pt x="256" y="1282" on="1"/>
        <pt x="102" y="1276" on="1"/>
        <pt x="102" y="1434" on="1"/>
        <pt x="690" y="1434" on="1"/>
        <pt x="690" y="1299" on="1"/>
        <pt x="655" y="1297" on="0"/>
        <pt x="601" y="1287" on="0"/>
        <pt x="564" y="1253" on="0"/>
        <pt x="544" y="1183" on="0"/>
        <pt x="544" y="1121" on="1"/>
      </contour>
    </TTGlyph>
    <TTGlyph name="Kcommaaccent" xMin="103" yMin="-582" xMax="1457" yMax="1434">
      <component glyphName="K" x="1" y="0" flags="0x0"/>
      <component glyphName="commaaccentcomb" x="415" y="0" flags="0x0"/>
    </TTGlyph>
    <TTGlyph name="L" xMin="102" yMin="0" xMax="1206" yMax="1434">
      <contour>
        <pt x="102" y="0" on="1"/>
        <pt x="102" y="135" on="1"/>
        <pt x="136" y="137" on="0"/>
        <pt x="191" y="146" on="0"/>
        <pt x="228" y="181" on="0"/>
        <pt x="248" y="251" on="0"/>
        <pt x="248" y="313" on="1"/>
        <pt x="248" y="1098" on="1"/>
        <pt x="248" y="1126" on="0"/>
        <pt x="249" y="1180" on="0"/>
        <pt x="251" y="1229" on="0"/>
        <pt x="254" y="1269" on="0"/>
        <pt x="256" y="1282" on="1"/>
        <pt x="102" y="1276" on="1"/>
        <pt x="102" y="1434" on="1"/>
        <pt x="690" y="1434" on="1"/>
        <pt x="690" y="1299" on="1"/>
        <pt x="655" y="1297" on="0"/>
        <pt x="601" y="1287" on="0"/>
        <pt x="564" y="1253" on="0"/>
        <pt x="544" y="1183" on="0"/>
        <pt x="544" y="1121" on="1"/>
        <pt x="544" y="336" on="1"/>
        <pt x="544" y="308" on="0"/>
        <pt x="543" y="255" on="0"/>
        <pt x="541" y="207" on="0"/>
        <pt x="538" y="168" on="0"/>
        <pt x="536" y="155" on="1"/>
        <pt x="811" y="156" on="1"/>
        <pt x="932" y="156" on="0"/>
        <pt x="1070" y="323" on="0"/>
        <pt x="1070" y="491" on="1"/>
        <pt x="1206" y="491" on="1"/>
        <pt x="1194" y="0" on="1"/>
      </contour>
    </TTGlyph>
    <TTGlyph name="Lacute" xMin="102" yMin="0" xMax="1206" yMax="1973">
      <component glyphName="L" x="0" y="0" flags="0x0"/>
      <component glyphName="Acute" x="145" y="0" flags="0x0"/>
    </TTGlyph>
    <TTGlyph name="Lcaron" xMin="102" yMin="0" xMax="1206" yMax="1468">
      <contour>
        <pt x="1081" y="1434" on="1"/>
        <pt x="1101" y="1393" on="0"/>
        <pt x="1113" y="1335" on="0"/>
        <pt x="1109" y="1297" on="1"/>
        <pt x="1105" y="1253" on="0"/>
        <pt x="1072" y="1166" on="0"/>
        <pt x="1022" y="1083" on="0"/>
        <pt x="958" y="1006" on="0"/>
        <pt x="923" y="973" on="1"/>
        <pt x="844" y="1031" on="1"/>
        <pt x="881" y="1100" on="0"/>
        <pt x="918" y="1217" on="0"/>
        <pt x="927" y="1322" on="0"/>
        <pt x="912" y="1419" on="0"/>
        <pt x="899" y="1468" on="1"/>
      </contour>
      <contour>
        <pt x="690" y="1299" on="1"/>
        <pt x="655" y="1297" on="0"/>
        <pt x="601" y="1287" on="0"/>
        <pt x="564" y="1253" on="0"/>
        <pt x="544" y="1183" on="0"/>
        <pt x="544" y="1121" on="1"/>
        <pt x="544" y="336" on="1"/>
        <pt x="544" y="280" on="0"/>
        <pt x="540" y="182" on="0"/>
        <pt x="536" y="156" on="1"/>
        <pt x="811" y="156" on="1"/>
        <pt x="932" y="157" on="0"/>
        <pt x="1070" y="324" on="0"/>
        <pt x="1070" y="491" on="1"/>
        <pt x="1206" y="491" on="1"/>
        <pt x="1194" y="0" on="1"/>
        <pt x="102" y="0" on="1"/>
        <pt x="102" y="135" on="1"/>
        <pt x="136" y="137" on="0"/>
        <pt x="191" y="147" on="0"/>
        <pt x="228" y="181" on="0"/>
        <pt x="248" y="251" on="0"/>
        <pt x="248" y="313" on="1"/>
        <pt x="248" y="1098" on="1"/>
        <pt x="248" y="1126" on="0"/>
        <pt x="249" y="1180" on="0"/>
        <pt x="251" y="1229" on="0"/>
        <pt x="254" y="1269" on="0"/>
        <pt x="256" y="1282" on="1"/>
        <pt x="239" y="1281" on="0"/>
        <pt x="195" y="1279" on="0"/>
        <pt x="151" y="1277" on="0"/>
        <pt x="113" y="1276" on="0"/>
        <pt x="102" y="1276" on="1"/>
        <pt x="102" y="1434" on="1"/>
        <pt x="690" y="1434" on="1"/>
      </contour>
    </TTGlyph>
    <TTGlyph name="Lcommaaccent" xMin="103" yMin="-582" xMax="1207" yMax="1434">
      <component glyphName="L" x="1" y="0" flags="0x0"/>
      <component glyphName="commaaccentcomb" x="294" y="0" flags="0x0"/>
    </TTGlyph>
    <TTGlyph name="Lslash" xMin="92" yMin="-1" xMax="1207" yMax="1433">
      <contour>
        <pt x="92" y="598" on="1"/>
        <pt x="249" y="714" on="1"/>
        <pt x="249" y="1097" on="1"/>
        <pt x="249" y="1125" on="0"/>
        <pt x="250" y="1179" on="0"/>
        <pt x="252" y="1228" on="0"/>
        <pt x="255" y="1268" on="0"/>
        <pt x="257" y="1281" on="1"/>
        <pt x="103" y="1275" on="1"/>
        <pt x="103" y="1433" on="1"/>
        <pt x="691" y="1433" on="1"/>
        <pt x="691" y="1298" on="1"/>
        <pt x="656" y="1296" on="0"/>
        <pt x="602" y="1286" on="0"/>
        <pt x="565" y="1252" on="0"/>
        <pt x="545" y="1182" on="0"/>
        <pt x="545" y="1120" on="1"/>
        <pt x="545" y="934" on="1"/>
        <pt x="698" y="1048" on="1"/>
        <pt x="698" y="817" on="1"/>
        <pt x="545" y="702" on="1"/>
        <pt x="545" y="335" on="1"/>
        <pt x="545" y="307" on="0"/>
        <pt x="544" y="254" on="0"/>
        <pt x="542" y="206" on="0"/>
        <pt x="539" y="167" on="0"/>
        <pt x="537" y="154" on="1"/>
        <pt x="812" y="155" on="1"/>
        <pt x="933" y="155" on="0"/>
        <pt x="1071" y="322" on="0"/>
        <pt x="1071" y="490" on="1"/>
        <pt x="1207" y="490" on="1"/>
        <pt x="1195" y="-1" on="1"/>
        <pt x="103" y="-1" on="1"/>
        <pt x="103" y="134" on="1"/>
        <pt x="137" y="136" on="0"/>
        <pt x="192" y="145" on="0"/>
        <pt x="229" y="180" on="0"/>
        <pt x="249" y="250" on="0"/>
        <pt x="249" y="312" on="1"/>
        <pt x="249" y="480" on="1"/>
        <pt x="92" y="363" on="1"/>
      </contour>
    </TTGlyph>
    <TTGlyph name="M" xMin="96" yMin="-20" xMax="1904" yMax="1434">
      <contour>
        <pt x="1445" y="1102" on="1"/>
        <pt x="1026" y="-20" on="1"/>
        <pt x="835" y="-20" on="1"/>
        <pt x="560" y="654" on="1"/>
        <pt x="548" y="682" on="0"/>
        <pt x="511" y="779" on="0"/>
        <pt x="471" y="901" on="0"/>
        <pt x="432" y="1042" on="0"/>
        <pt x="416" y="1116" on="1"/>
        <pt x="414" y="1116" on="1"/>
        <pt x="417" y="1001" on="0"/>
        <pt x="421" y="799" on="0"/>
        <pt x="420" y="706" on="1"/>
        <pt x="417" y="336" on="1"/>
        <pt x="417" y="308" on="0"/>
        <pt x="416" y="254" on="0"/>
        <pt x="413" y="205" on="0"/>
        <pt x="410" y="165" on="0"/>
        <pt x="408" y="152" on="1"/>
        <pt x="563" y="158" on="1"/>
        <pt x="563" y="0" on="1"/>
        <pt x="96" y="0" on="1"/>
        <pt x="96" y="135" on="1"/>
        <pt x="130" y="137" on="0"/>
        <pt x="184" y="147" on="0"/>
        <pt x="221" y="181" on="0"/>
        <pt x="241" y="251" on="0"/>
        <pt x="242" y="313" on="1"/>
        <pt x="254" y="1098" on="1"/>
        <pt x="254" y="1126" on="0"/>
        <pt x="256" y="1180" on="0"/>
        <pt x="258" y="1229" on="0"/>
        <pt x="261" y="1269" on="0"/>
        <pt x="263" y="1282" on="1"/>
        <pt x="108" y="1276" on="1"/>
        <pt x="108" y="1434" on="1"/>
        <pt x="561" y="1434" on="1"/>
        <pt x="871" y="641" on="1"/>
        <pt x="885" y="605" on="0"/>
        <pt x="918" y="515" on="0"/>
        <pt x="950" y="425" on="0"/>
        <pt x="977" y="344" on="0"/>
        <pt x="985" y="318" on="1"/>
        <pt x="987" y="318" on="1"/>
        <pt x="1013" y="389" on="0"/>
        <pt x="1058" y="522" on="0"/>
        <pt x="1084" y="588" on="1"/>
        <pt x="1400" y="1434" on="1"/>
        <pt x="1873" y="1434" on="1"/>
        <pt x="1873" y="1299" on="1"/>
        <pt x="1838" y="1297" on="0"/>
        <pt x="1783" y="1287" on="0"/>
        <pt x="1744" y="1253" on="0"/>
        <pt x="1725" y="1183" on="0"/>
        <pt x="1727" y="1121" on="1"/>
        <pt x="1758" y="336" on="1"/>
        <pt x="1759" y="308" on="0"/>
        <pt x="1758" y="254" on="0"/>
        <pt x="1756" y="205" on="0"/>
        <pt x="1752" y="165" on="0"/>
        <pt x="1750" y="152" on="1"/>
        <pt x="1904" y="158" on="1"/>
        <pt x="1904" y="0" on="1"/>
        <pt x="1335" y="0" on="1"/>
        <pt x="1335" y="135" on="1"/>
        <pt x="1369" y="137" on="0"/>
        <pt x="1425" y="147" on="0"/>
        <pt x="1464" y="181" on="0"/>
        <pt x="1483" y="251" on="0"/>
        <pt x="1481" y="313" on="1"/>
        <pt x="1464" y="747" on="1"/>
        <pt x="1463" y="765" on="0"/>
        <pt x="1459" y="846" on="0"/>
        <pt x="1454" y="946" on="0"/>
        <pt x="1449" y="1055" on="0"/>
        <pt x="1447" y="1102" on="1"/>
      </contour>
    </TTGlyph>
    <TTGlyph name="N" xMin="99" yMin="-20" xMax="1511" yMax="1434">
      <contour>
        <pt x="1365" y="-20" on="1"/>
        <pt x="1191" y="-20" on="1"/>
        <pt x="536" y="817" on="1"/>
        <pt x="484" y="884" on="0"/>
        <pt x="424" y="970" on="1"/>
        <pt x="422" y="970" on="1"/>
        <pt x="425" y="336" on="1"/>
        <pt x="425" y="308" on="0"/>
        <pt x="424" y="254" on="0"/>
        <pt x="422" y="205" on="0"/>
        <pt x="419" y="165" on="0"/>
        <pt x="417" y="152" on="1"/>
        <pt x="571" y="158" on="1"/>
        <pt x="571" y="0" on="1"/>
        <pt x="104" y="0" on="1"/>
        <pt x="104" y="135" on="1"/>
        <pt x="138" y="137" on="0"/>
        <pt x="193" y="146" on="0"/>
        <pt x="230" y="181" on="0"/>
        <pt x="250" y="251" on="0"/>
        <pt x="250" y="313" on="1"/>
        <pt x="245" y="1098" on="1"/>
        <pt x="245" y="1126" on="0"/>
        <pt x="246" y="1180" on="0"/>
        <pt x="248" y="1229" on="0"/>
        <pt x="251" y="1269" on="0"/>
        <pt x="253" y="1282" on="1"/>
        <pt x="99" y="1276" on="1"/>
        <pt x="99" y="1434" on="1"/>
        <pt x="420" y="1434" on="1"/>
        <pt x="1046" y="644" on="1"/>
        <pt x="1098" y="578" on="0"/>
        <pt x="1165" y="483" on="0"/>
        <pt x="1189" y="448" on="1"/>
        <pt x="1191" y="448" on="1"/>
        <pt x="1191" y="1098" on="1"/>
        <pt x="1191" y="1126" on="0"/>
        <pt x="1192" y="1180" on="0"/>
        <pt x="1194" y="1229" on="0"/>
        <pt x="1197" y="1269" on="0"/>
        <pt x="1199" y="1282" on="1"/>
        <pt x="1045" y="1276" on="1"/>
        <pt x="1045" y="1434" on="1"/>
        <pt x="1511" y="1434" on="1"/>
        <pt x="1511" y="1299" on="1"/>
        <pt x="1476" y="1297" on="0"/>
        <pt x="1422" y="1287" on="0"/>
        <pt x="1385" y="1253" on="0"/>
        <pt x="1365" y="1183" on="0"/>
        <pt x="1365" y="1121" on="1"/>
      </contour>
    </TTGlyph>
    <TTGlyph name="Nacute" xMin="99" yMin="-20" xMax="1511" yMax="1973">
      <component glyphName="N" x="0" y="0" flags="0x0"/>
      <component glyphName="Acute" x="585" y="0" flags="0x0"/>
    </TTGlyph>
    <TTGlyph name="Ncaron" xMin="100" yMin="-20" xMax="1512" yMax="1983">
      <component glyphName="N" x="1" y="0" flags="0x0"/>
      <component glyphName="Caron" x="320" y="0" flags="0x0"/>
    </TTGlyph>
    <TTGlyph name="Ncommaaccent" xMin="100" yMin="-582" xMax="1512" yMax="1434">
      <component glyphName="N" x="1" y="0" flags="0x0"/>
      <component glyphName="commaaccentcomb" x="511" y="0" flags="0x0"/>
    </TTGlyph>
    <TTGlyph name="Ntilde" xMin="99" yMin="-20" xMax="1511" yMax="1953">
      <component glyphName="N" x="0" y="0" flags="0x204"/>
      <component glyphName="Tilde" x="280" y="0" flags="0x4"/>
    </TTGlyph>
    <TTGlyph name="O" xMin="72" yMin="-33" xMax="1503" yMax="1467">
      <contour>
        <pt x="394" y="741" on="1"/>
        <pt x="394" y="676" on="0"/>
        <pt x="412" y="534" on="0"/>
        <pt x="452" y="395" on="0"/>
        <pt x="516" y="269" on="0"/>
        <pt x="607" y="174" on="0"/>
        <pt x="729" y="117" on="0"/>
        <pt x="806" y="117" on="1"/>
        <pt x="877" y="117" on="0"/>
        <pt x="987" y="166" on="0"/>
        <pt x="1070" y="250" on="0"/>
        <pt x="1128" y="362" on="0"/>
        <pt x="1164" y="487" on="0"/>
        <pt x="1180" y="620" on="0"/>
        <pt x="1180" y="682" on="1"/>
        <pt x="1180" y="820" on="0"/>
        <pt x="1132" y="1053" on="0"/>
        <pt x="1032" y="1222" on="0"/>
        <pt x="880" y="1317" on="0"/>
        <pt x="776" y="1317" on="1"/>
        <pt x="703" y="1317" on="0"/>
        <pt x="590" y="1268" on="0"/>
        <pt x="505" y="1182" on="0"/>
        <pt x="447" y="1069" on="0"/>
        <pt x="410" y="941" on="0"/>
        <pt x="394" y="806" on="0"/>
      </contour>
      <contour>
        <pt x="72" y="717" on="1"/>
        <pt x="72" y="803" on="0"/>
        <pt x="111" y="981" on="0"/>
        <pt x="190" y="1147" on="0"/>
        <pt x="309" y="1294" on="0"/>
        <pt x="469" y="1404" on="0"/>
        <pt x="670" y="1467" on="0"/>
        <pt x="791" y="1467" on="1"/>
        <pt x="915" y="1467" on="0"/>
        <pt x="1118" y="1403" on="0"/>
        <pt x="1276" y="1293" on="0"/>
        <pt x="1391" y="1146" on="0"/>
        <pt x="1467" y="980" on="0"/>
        <pt x="1503" y="802" on="0"/>
        <pt x="1503" y="717" on="1"/>
        <pt x="1503" y="632" on="0"/>
        <pt x="1464" y="455" on="0"/>
        <pt x="1385" y="289" on="0"/>
        <pt x="1266" y="141" on="0"/>
        <pt x="1106" y="31" on="0"/>
        <pt x="906" y="-33" on="0"/>
        <pt x="785" y="-33" on="1"/>
        <pt x="655" y="-33" on="0"/>
        <pt x="449" y="29" on="0"/>
        <pt x="290" y="136" on="0"/>
        <pt x="177" y="281" on="0"/>
        <pt x="106" y="448" on="0"/>
        <pt x="72" y="628" on="0"/>
      </contour>
    </TTGlyph>
    <TTGlyph name="OE" xMin="73" yMin="-33" xMax="2022" yMax="1467">
      <contour>
        <pt x="1075" y="0" on="1"/>
        <pt x="1000" y="-21" on="0"/>
        <pt x="842" y="-33" on="0"/>
        <pt x="775" y="-33" on="1"/>
        <pt x="617" y="-30" on="0"/>
        <pt x="358" y="83" on="0"/>
        <pt x="174" y="276" on="0"/>
        <pt x="73" y="538" on="0"/>
        <pt x="73" y="691" on="1"/>
        <pt x="73" y="784" on="0"/>
        <pt x="110" y="972" on="0"/>
        <pt x="187" y="1144" on="0"/>
        <pt x="306" y="1294" on="0"/>
        <pt x="470" y="1404" on="0"/>
        <pt x="681" y="1467" on="0"/>
        <pt x="811" y="1467" on="1"/>
        <pt x="839" y="1467" on="0"/>
        <pt x="905" y="1463" on="0"/>
        <pt x="974" y="1456" on="0"/>
        <pt x="1043" y="1443" on="0"/>
        <pt x="1075" y="1434" on="1"/>
        <pt x="1954" y="1434" on="1"/>
        <pt x="1966" y="1037" on="1"/>
        <pt x="1831" y="1037" on="1"/>
        <pt x="1831" y="1117" on="0"/>
        <pt x="1787" y="1220" on="0"/>
        <pt x="1718" y="1279" on="0"/>
        <pt x="1633" y="1301" on="0"/>
        <pt x="1592" y="1301" on="1"/>
        <pt x="1508" y="1299" on="1"/>
        <pt x="1476" y="1298" on="0"/>
        <pt x="1425" y="1287" on="0"/>
        <pt x="1390" y="1251" on="0"/>
        <pt x="1371" y="1181" on="0"/>
        <pt x="1371" y="1121" on="1"/>
        <pt x="1371" y="814" on="1"/>
        <pt x="1612" y="814" on="1"/>
        <pt x="1603" y="991" on="1"/>
        <pt x="1761" y="991" on="1"/>
        <pt x="1761" y="493" on="1"/>
        <pt x="1626" y="493" on="1"/>
        <pt x="1626" y="553" on="0"/>
        <pt x="1599" y="624" on="0"/>
        <pt x="1552" y="661" on="0"/>
        <pt x="1488" y="673" on="0"/>
        <pt x="1451" y="673" on="1"/>
        <pt x="1371" y="672" on="1"/>
        <pt x="1371" y="336" on="1"/>
        <pt x="1371" y="308" on="0"/>
        <pt x="1370" y="255" on="0"/>
        <pt x="1368" y="207" on="0"/>
        <pt x="1365" y="168" on="0"/>
        <pt x="1363" y="155" on="1"/>
        <pt x="1638" y="156" on="1"/>
        <pt x="1683" y="156" on="0"/>
        <pt x="1773" y="186" on="0"/>
        <pt x="1843" y="255" on="0"/>
        <pt x="1887" y="368" on="0"/>
        <pt x="1887" y="451" on="1"/>
        <pt x="2022" y="451" on="1"/>
        <pt x="2010" y="0" on="1"/>
      </contour>
      <contour>
        <pt x="825" y="133" on="1"/>
        <pt x="838" y="132" on="0"/>
        <pt x="863" y="131" on="0"/>
        <pt x="876" y="131" on="1"/>
        <pt x="985" y="131" on="0"/>
        <pt x="1075" y="167" on="1"/>
        <pt x="1075" y="1251" on="1"/>
        <pt x="1021" y="1287" on="0"/>
        <pt x="885" y="1318" on="0"/>
        <pt x="809" y="1318" on="1"/>
        <pt x="738" y="1318" on="0"/>
        <pt x="621" y="1273" on="0"/>
        <pt x="529" y="1193" on="0"/>
        <pt x="461" y="1084" on="0"/>
        <pt x="417" y="955" on="0"/>
        <pt x="395" y="812" on="0"/>
        <pt x="395" y="738" on="1"/>
        <pt x="395" y="606" on="0"/>
        <pt x="452" y="389" on="0"/>
        <pt x="561" y="232" on="0"/>
        <pt x="721" y="140" on="0"/>
      </contour>
    </TTGlyph>
    <TTGlyph name="Oacute" xMin="72" yMin="-33" xMax="1503" yMax="1973">
      <component glyphName="O" x="0" y="0" flags="0x204"/>
      <component glyphName="Acute" x="577" y="0" flags="0x4"/>
    </TTGlyph>
    <TTGlyph name="Ocircumflex" xMin="72" yMin="-33" xMax="1503" yMax="1988">
      <component glyphName="O" x="0" y="0" flags="0x204"/>
      <component glyphName="Circumflex" x="275" y="0" flags="0x4"/>
    </TTGlyph>
    <TTGlyph name="Odieresis" xMin="72" yMin="-33" xMax="1503" yMax="1943">
      <component glyphName="O" x="0" y="0" flags="0x204"/>
      <component glyphName="Dieresis" x="395" y="0" flags="0x4"/>
    </TTGlyph>
    <TTGlyph name="Ograve" xMin="72" yMin="-33" xMax="1503" yMax="1973">
      <component glyphName="O" x="0" y="0" flags="0x204"/>
      <component glyphName="Grave" x="375" y="0" flags="0x4"/>
    </TTGlyph>
    <TTGlyph name="Ohungarumlaut" xMin="73" yMin="-33" xMax="1504" yMax="1963">
      <component glyphName="O" x="1" y="0" flags="0x0"/>
      <component glyphName="hungarumlaut.case" x="444" y="0" flags="0x0"/>
    </TTGlyph>
    <TTGlyph name="Omacron" xMin="72" yMin="-33" xMax="1503" yMax="1891">
      <component glyphName="O" x="0" y="0" flags="0x0"/>
      <component glyphName="macron" x="437" y="410" flags="0x0"/>
    </TTGlyph>
    <TTGlyph name="Omega" xMin="108" yMin="0" xMax="1509" yMax="1467">
      <contour>
        <pt x="607" y="207" on="1"/>
        <pt x="497" y="233" on="0"/>
        <pt x="316" y="343" on="0"/>
        <pt x="186" y="496" on="0"/>
        <pt x="115" y="686" on="0"/>
        <pt x="115" y="792" on="1"/>
        <pt x="115" y="873" on="0"/>
        <pt x="156" y="1036" on="0"/>
        <pt x="236" y="1186" on="0"/>
        <pt x="353" y="1316" on="0"/>
        <pt x="505" y="1412" on="0"/>
        <pt x="691" y="1467" on="0"/>
        <pt x="799" y="1467" on="1"/>
        <pt x="912" y="1467" on="0"/>
        <pt x="1101" y="1415" on="0"/>
        <pt x="1252" y="1323" on="0"/>
        <pt x="1366" y="1198" on="0"/>
        <pt x="1442" y="1052" on="0"/>
        <pt x="1480" y="892" on="0"/>
        <pt x="1480" y="811" on="1"/>
        <pt x="1480" y="710" on="0"/>
        <pt x="1410" y="519" on="0"/>
        <pt x="1286" y="358" on="0"/>
        <pt x="1115" y="237" on="0"/>
        <pt x="1015" y="207" on="1"/>
        <pt x="1015" y="205" on="1"/>
        <pt x="1239" y="200" on="1"/>
        <pt x="1271" y="200" on="0"/>
        <pt x="1323" y="211" on="0"/>
        <pt x="1359" y="241" on="0"/>
        <pt x="1379" y="292" on="0"/>
        <pt x="1379" y="333" on="1"/>
        <pt x="1509" y="333" on="1"/>
        <pt x="1493" y="0" on="1"/>
        <pt x="851" y="0" on="1"/>
        <pt x="851" y="223" on="1"/>
        <pt x="917" y="237" on="0"/>
        <pt x="1038" y="325" on="0"/>
        <pt x="1132" y="463" on="0"/>
        <pt x="1188" y="646" on="0"/>
        <pt x="1188" y="755" on="1"/>
        <pt x="1188" y="859" on="0"/>
        <pt x="1151" y="1062" on="0"/>
        <pt x="1062" y="1223" on="0"/>
        <pt x="915" y="1322" on="0"/>
        <pt x="805" y="1322" on="1"/>
        <pt x="731" y="1322" on="0"/>
        <pt x="615" y="1275" on="0"/>
        <pt x="525" y="1195" on="0"/>
        <pt x="462" y="1087" on="0"/>
        <pt x="422" y="964" on="0"/>
        <pt x="403" y="832" on="0"/>
        <pt x="403" y="768" on="1"/>
        <pt x="403" y="646" on="0"/>
        <pt x="469" y="451" on="0"/>
        <pt x="573" y="311" on="0"/>
        <pt x="700" y="230" on="0"/>
        <pt x="762" y="223" on="1"/>
        <pt x="762" y="0" on="1"/>
        <pt x="124" y="0" on="1"/>
        <pt x="108" y="333" on="1"/>
        <pt x="238" y="333" on="1"/>
        <pt x="238" y="292" on="0"/>
        <pt x="258" y="241" on="0"/>
        <pt x="294" y="211" on="0"/>
        <pt x="346" y="200" on="0"/>
        <pt x="378" y="200" on="1"/>
        <pt x="607" y="205" on="1"/>
      </contour>
    </TTGlyph>
    <TTGlyph name="Oslash" xMin="72" yMin="-202" xMax="1503" yMax="1611">
      <contour>
        <pt x="72" y="717" on="1"/>
        <pt x="72" y="803" on="0"/>
        <pt x="111" y="981" on="0"/>
        <pt x="190" y="1147" on="0"/>
        <pt x="309" y="1294" on="0"/>
        <pt x="469" y="1404" on="0"/>
        <pt x="670" y="1467" on="0"/>
        <pt x="791" y="1467" on="1"/>
        <pt x="881" y="1467" on="0"/>
        <pt x="1033" y="1434" on="0"/>
        <pt x="1099" y="1404" on="1"/>
        <pt x="1220" y="1611" on="1"/>
        <pt x="1382" y="1510" on="1"/>
        <pt x="1258" y="1300" on="1"/>
        <pt x="1321" y="1243" on="0"/>
        <pt x="1414" y="1103" on="0"/>
        <pt x="1474" y="952" on="0"/>
        <pt x="1503" y="793" on="0"/>
        <pt x="1503" y="717" on="1"/>
        <pt x="1503" y="632" on="0"/>
        <pt x="1464" y="455" on="0"/>
        <pt x="1385" y="289" on="0"/>
        <pt x="1266" y="141" on="0"/>
        <pt x="1106" y="31" on="0"/>
        <pt x="906" y="-33" on="0"/>
        <pt x="785" y="-33" on="1"/>
        <pt x="704" y="-33" on="0"/>
        <pt x="564" y="-9" on="0"/>
        <pt x="503" y="14" on="1"/>
        <pt x="376" y="-202" on="1"/>
        <pt x="224" y="-100" on="1"/>
        <pt x="342" y="102" on="1"/>
        <pt x="270" y="157" on="0"/>
        <pt x="168" y="299" on="0"/>
        <pt x="103" y="459" on="0"/>
        <pt x="72" y="632" on="0"/>
      </contour>
      <contour>
        <pt x="394" y="741" on="1"/>
        <pt x="394" y="694" on="0"/>
        <pt x="403" y="591" on="0"/>
        <pt x="424" y="488" on="0"/>
        <pt x="457" y="386" on="0"/>
        <pt x="480" y="340" on="1"/>
        <pt x="1001" y="1236" on="1"/>
        <pt x="956" y="1275" on="0"/>
        <pt x="845" y="1317" on="0"/>
        <pt x="777" y="1317" on="1"/>
        <pt x="704" y="1317" on="0"/>
        <pt x="591" y="1268" on="0"/>
        <pt x="506" y="1183" on="0"/>
        <pt x="447" y="1069" on="0"/>
        <pt x="410" y="941" on="0"/>
        <pt x="394" y="806" on="0"/>
      </contour>
      <contour>
        <pt x="1180" y="682" on="1"/>
        <pt x="1180" y="793" on="0"/>
        <pt x="1150" y="984" on="0"/>
        <pt x="1118" y="1062" on="1"/>
        <pt x="602" y="183" on="1"/>
        <pt x="645" y="150" on="0"/>
        <pt x="743" y="117" on="0"/>
        <pt x="806" y="117" on="1"/>
        <pt x="877" y="117" on="0"/>
        <pt x="987" y="166" on="0"/>
        <pt x="1070" y="250" on="0"/>
        <pt x="1128" y="362" on="0"/>
        <pt x="1164" y="487" on="0"/>
        <pt x="1180" y="620" on="0"/>
      </contour>
    </TTGlyph>
    <TTGlyph name="Otilde" xMin="72" yMin="-33" xMax="1503" yMax="1953">
      <component glyphName="O" x="0" y="0" flags="0x204"/>
      <component glyphName="Tilde" x="261" y="0" flags="0x4"/>
    </TTGlyph>
    <TTGlyph name="P" xMin="102" yMin="0" xMax="1274" yMax="1439">
      <contour>
        <pt x="693" y="519" on="1"/>
        <pt x="669" y="518" on="0"/>
        <pt x="630" y="517" on="0"/>
        <pt x="595" y="517" on="0"/>
        <pt x="562" y="517" on="0"/>
        <pt x="544" y="518" on="1"/>
        <pt x="544" y="337" on="1"/>
        <pt x="544" y="281" on="0"/>
        <pt x="540" y="178" on="0"/>
        <pt x="536" y="152" on="1"/>
        <pt x="710" y="158" on="1"/>
        <pt x="710" y="0" on="1"/>
        <pt x="102" y="0" on="1"/>
        <pt x="102" y="135" on="1"/>
        <pt x="136" y="137" on="0"/>
        <pt x="191" y="146" on="0"/>
        <pt x="228" y="181" on="0"/>
        <pt x="248" y="251" on="0"/>
        <pt x="248" y="313" on="1"/>
        <pt x="248" y="1098" on="1"/>
        <pt x="248" y="1126" on="0"/>
        <pt x="249" y="1180" on="0"/>
        <pt x="251" y="1229" on="0"/>
        <pt x="254" y="1269" on="0"/>
        <pt x="256" y="1282" on="1"/>
        <pt x="102" y="1276" on="1"/>
        <pt x="102" y="1434" on="1"/>
        <pt x="685" y="1438" on="1"/>
        <pt x="818" y="1439" on="0"/>
        <pt x="1035" y="1387" on="0"/>
        <pt x="1189" y="1278" on="0"/>
        <pt x="1273" y="1108" on="0"/>
        <pt x="1273" y="989" on="1"/>
        <pt x="1274" y="903" on="0"/>
        <pt x="1204" y="740" on="0"/>
        <pt x="1061" y="608" on="0"/>
        <pt x="843" y="524" on="0"/>
      </contour>
      <contour>
        <pt x="636" y="665" on="1"/>
        <pt x="720" y="665" on="0"/>
        <pt x="842" y="708" on="0"/>
        <pt x="920" y="792" on="0"/>
        <pt x="957" y="914" on="0"/>
        <pt x="957" y="992" on="1"/>
        <pt x="957" y="1060" on="0"/>
        <pt x="931" y="1158" on="0"/>
        <pt x="887" y="1225" on="0"/>
        <pt x="830" y="1266" on="0"/>
        <pt x="769" y="1287" on="0"/>
        <pt x="708" y="1294" on="0"/>
        <pt x="682" y="1294" on="1"/>
        <pt x="649" y="1294" on="0"/>
        <pt x="598" y="1284" on="0"/>
        <pt x="563" y="1250" on="0"/>
        <pt x="544" y="1186" on="0"/>
        <pt x="544" y="1132" on="1"/>
        <pt x="544" y="671" on="1"/>
        <pt x="566" y="669" on="0"/>
        <pt x="612" y="665" on="0"/>
      </contour>
    </TTGlyph>
    <TTGlyph name="Pi" xMin="102" yMin="0" xMax="1520" yMax="1434">
      <contour>
        <pt x="1374" y="336" on="1"/>
        <pt x="1374" y="308" on="0"/>
        <pt x="1373" y="254" on="0"/>
        <pt x="1371" y="205" on="0"/>
        <pt x="1368" y="165" on="0"/>
        <pt x="1366" y="152" on="1"/>
        <pt x="1382" y="153" on="0"/>
        <pt x="1427" y="155" on="0"/>
        <pt x="1471" y="156" on="0"/>
        <pt x="1509" y="158" on="0"/>
        <pt x="1520" y="158" on="1"/>
        <pt x="1520" y="0" on="1"/>
        <pt x="932" y="0" on="1"/>
        <pt x="932" y="135" on="1"/>
        <pt x="966" y="137" on="0"/>
        <pt x="1021" y="147" on="0"/>
        <pt x="1058" y="181" on="0"/>
        <pt x="1078" y="251" on="0"/>
        <pt x="1078" y="313" on="1"/>
        <pt x="1078" y="1279" on="1"/>
        <pt x="686" y="1274" on="1"/>
        <pt x="653" y="1272" on="0"/>
        <pt x="600" y="1262" on="0"/>
        <pt x="563" y="1227" on="0"/>
        <pt x="544" y="1157" on="0"/>
        <pt x="544" y="1096" on="1"/>
        <pt x="544" y="336" on="1"/>
        <pt x="544" y="308" on="0"/>
        <pt x="543" y="254" on="0"/>
        <pt x="541" y="205" on="0"/>
        <pt x="538" y="165" on="0"/>
        <pt x="536" y="152" on="1"/>
        <pt x="552" y="153" on="0"/>
        <pt x="597" y="155" on="0"/>
        <pt x="641" y="156" on="0"/>
        <pt x="679" y="158" on="0"/>
        <pt x="690" y="158" on="1"/>
        <pt x="690" y="0" on="1"/>
        <pt x="102" y="0" on="1"/>
        <pt x="102" y="135" on="1"/>
        <pt x="136" y="137" on="0"/>
        <pt x="191" y="147" on="0"/>
        <pt x="228" y="181" on="0"/>
        <pt x="248" y="251" on="0"/>
        <pt x="248" y="313" on="1"/>
        <pt x="248" y="1098" on="1"/>
        <pt x="248" y="1126" on="0"/>
        <pt x="249" y="1180" on="0"/>
        <pt x="251" y="1229" on="0"/>
        <pt x="254" y="1269" on="0"/>
        <pt x="256" y="1282" on="1"/>
        <pt x="239" y="1281" on="0"/>
        <pt x="195" y="1279" on="0"/>
        <pt x="151" y="1277" on="0"/>
        <pt x="113" y="1276" on="0"/>
        <pt x="102" y="1276" on="1"/>
        <pt x="102" y="1434" on="1"/>
        <pt x="1520" y="1434" on="1"/>
        <pt x="1520" y="1299" on="1"/>
        <pt x="1485" y="1297" on="0"/>
        <pt x="1431" y="1287" on="0"/>
        <pt x="1394" y="1253" on="0"/>
        <pt x="1374" y="1183" on="0"/>
        <pt x="1374" y="1121" on="1"/>
      </contour>
    </TTGlyph>
    <TTGlyph name="Q" xMin="73" yMin="-446" xMax="1626" yMax="1467">
      <contour>
        <pt x="73" y="717" on="1"/>
        <pt x="73" y="803" on="0"/>
        <pt x="112" y="981" on="0"/>
        <pt x="191" y="1147" on="0"/>
        <pt x="310" y="1294" on="0"/>
        <pt x="470" y="1404" on="0"/>
        <pt x="671" y="1467" on="0"/>
        <pt x="792" y="1467" on="1"/>
        <pt x="916" y="1467" on="0"/>
        <pt x="1119" y="1403" on="0"/>
        <pt x="1277" y="1293" on="0"/>
        <pt x="1392" y="1146" on="0"/>
        <pt x="1468" y="980" on="0"/>
        <pt x="1504" y="802" on="0"/>
        <pt x="1504" y="717" on="1"/>
        <pt x="1504" y="615" on="0"/>
        <pt x="1446" y="402" on="0"/>
        <pt x="1331" y="211" on="0"/>
        <pt x="1157" y="56" on="0"/>
        <pt x="1042" y="13" on="1"/>
        <pt x="1042" y="11" on="1"/>
        <pt x="1086" y="11" on="0"/>
        <pt x="1159" y="3" on="0"/>
        <pt x="1227" y="-21" on="0"/>
        <pt x="1296" y="-67" on="0"/>
        <pt x="1337" y="-104" on="1"/>
        <pt x="1407" y="-170" on="0"/>
        <pt x="1492" y="-251" on="0"/>
        <pt x="1547" y="-294" on="0"/>
        <pt x="1592" y="-309" on="0"/>
        <pt x="1626" y="-309" on="1"/>
        <pt x="1626" y="-446" on="1"/>
        <pt x="1538" y="-446" on="1"/>
        <pt x="1467" y="-446" on="0"/>
        <pt x="1372" y="-440" on="0"/>
        <pt x="1297" y="-418" on="0"/>
        <pt x="1228" y="-373" on="0"/>
        <pt x="1185" y="-335" on="1"/>
        <pt x="1120" y="-278" on="0"/>
        <pt x="1020" y="-169" on="0"/>
        <pt x="927" y="-84" on="0"/>
        <pt x="829" y="-33" on="0"/>
        <pt x="766" y="-33" on="1"/>
        <pt x="640" y="-33" on="0"/>
        <pt x="439" y="29" on="0"/>
        <pt x="285" y="137" on="0"/>
        <pt x="176" y="283" on="0"/>
        <pt x="106" y="449" on="0"/>
        <pt x="73" y="629" on="0"/>
      </contour>
      <contour>
        <pt x="395" y="741" on="1"/>
        <pt x="395" y="676" on="0"/>
        <pt x="413" y="534" on="0"/>
        <pt x="453" y="395" on="0"/>
        <pt x="517" y="269" on="0"/>
        <pt x="608" y="174" on="0"/>
        <pt x="730" y="117" on="0"/>
        <pt x="807" y="117" on="1"/>
        <pt x="878" y="117" on="0"/>
        <pt x="988" y="166" on="0"/>
        <pt x="1071" y="250" on="0"/>
        <pt x="1129" y="362" on="0"/>
        <pt x="1165" y="487" on="0"/>
        <pt x="1181" y="620" on="0"/>
        <pt x="1181" y="682" on="1"/>
        <pt x="1181" y="820" on="0"/>
        <pt x="1133" y="1053" on="0"/>
        <pt x="1033" y="1222" on="0"/>
        <pt x="881" y="1317" on="0"/>
        <pt x="777" y="1317" on="1"/>
        <pt x="704" y="1317" on="0"/>
        <pt x="591" y="1268" on="0"/>
        <pt x="506" y="1182" on="0"/>
        <pt x="448" y="1069" on="0"/>
        <pt x="411" y="941" on="0"/>
        <pt x="395" y="806" on="0"/>
      </contour>
    </TTGlyph>
    <TTGlyph name="R" xMin="102" yMin="0" xMax="1376" yMax="1438">
      <contour>
        <pt x="1147" y="327" on="1"/>
        <pt x="1181" y="276" on="0"/>
        <pt x="1235" y="204" on="0"/>
        <pt x="1286" y="158" on="0"/>
        <pt x="1341" y="136" on="0"/>
        <pt x="1376" y="135" on="1"/>
        <pt x="1376" y="0" on="1"/>
        <pt x="1039" y="0" on="1"/>
        <pt x="1003" y="26" on="0"/>
        <pt x="929" y="126" on="0"/>
        <pt x="888" y="193" on="1"/>
        <pt x="738" y="438" on="1"/>
        <pt x="712" y="480" on="0"/>
        <pt x="670" y="536" on="0"/>
        <pt x="652" y="558" on="1"/>
        <pt x="635" y="557" on="0"/>
        <pt x="609" y="557" on="0"/>
        <pt x="596" y="557" on="1"/>
        <pt x="584" y="557" on="0"/>
        <pt x="559" y="557" on="0"/>
        <pt x="544" y="558" on="1"/>
        <pt x="544" y="337" on="1"/>
        <pt x="544" y="281" on="0"/>
        <pt x="540" y="178" on="0"/>
        <pt x="536" y="152" on="1"/>
        <pt x="710" y="158" on="1"/>
        <pt x="710" y="0" on="1"/>
        <pt x="102" y="0" on="1"/>
        <pt x="102" y="135" on="1"/>
        <pt x="136" y="137" on="0"/>
        <pt x="191" y="146" on="0"/>
        <pt x="228" y="181" on="0"/>
        <pt x="248" y="251" on="0"/>
        <pt x="248" y="313" on="1"/>
        <pt x="248" y="1098" on="1"/>
        <pt x="248" y="1126" on="0"/>
        <pt x="249" y="1180" on="0"/>
        <pt x="251" y="1229" on="0"/>
        <pt x="254" y="1269" on="0"/>
        <pt x="256" y="1282" on="1"/>
        <pt x="102" y="1276" on="1"/>
        <pt x="102" y="1434" on="1"/>
        <pt x="685" y="1438" on="1"/>
        <pt x="818" y="1438" on="0"/>
        <pt x="1033" y="1394" on="0"/>
        <pt x="1187" y="1293" on="0"/>
        <pt x="1269" y="1131" on="0"/>
        <pt x="1269" y="1013" on="1"/>
        <pt x="1270" y="945" on="0"/>
        <pt x="1226" y="818" on="0"/>
        <pt x="1137" y="712" on="0"/>
        <pt x="1002" y="628" on="0"/>
        <pt x="910" y="602" on="1"/>
        <pt x="910" y="600" on="1"/>
        <pt x="948" y="585" on="0"/>
        <pt x="1024" y="513" on="0"/>
        <pt x="1051" y="472" on="1"/>
      </contour>
      <contour>
        <pt x="644" y="705" on="1"/>
        <pt x="729" y="705" on="0"/>
        <pt x="849" y="742" on="0"/>
        <pt x="925" y="819" on="0"/>
        <pt x="961" y="935" on="0"/>
        <pt x="961" y="1013" on="1"/>
        <pt x="961" y="1079" on="0"/>
        <pt x="931" y="1172" on="0"/>
        <pt x="883" y="1234" on="0"/>
        <pt x="822" y="1270" on="0"/>
        <pt x="760" y="1289" on="0"/>
        <pt x="703" y="1294" on="0"/>
        <pt x="682" y="1294" on="1"/>
        <pt x="649" y="1294" on="0"/>
        <pt x="598" y="1284" on="0"/>
        <pt x="563" y="1250" on="0"/>
        <pt x="544" y="1186" on="0"/>
        <pt x="544" y="1132" on="1"/>
        <pt x="544" y="712" on="1"/>
        <pt x="568" y="709" on="0"/>
        <pt x="618" y="705" on="0"/>
      </contour>
    </TTGlyph>
    <TTGlyph name="Racute" xMin="102" yMin="0" xMax="1376" yMax="1973">
      <component glyphName="R" x="0" y="0" flags="0x0"/>
      <component glyphName="Acute" x="414" y="0" flags="0x0"/>
    </TTGlyph>
    <TTGlyph name="Rcaron" xMin="103" yMin="0" xMax="1377" yMax="1983">
      <component glyphName="R" x="1" y="0" flags="0x0"/>
      <component glyphName="Caron" x="170" y="0" flags="0x0"/>
    </TTGlyph>
    <TTGlyph name="Rcommaaccent" xMin="103" yMin="-582" xMax="1377" yMax="1438">
      <component glyphName="R" x="1" y="0" flags="0x0"/>
      <component glyphName="commaaccentcomb" x="324" y="0" flags="0x0"/>
    </TTGlyph>
    <TTGlyph name="Ring" xMin="91" yMin="1538" xMax="637" yMax="2061">
      <contour>
        <pt x="355" y="1952" on="1"/>
        <pt x="318" y="1949" on="0"/>
        <pt x="273" y="1876" on="0"/>
        <pt x="273" y="1813" on="1"/>
        <pt x="273" y="1733" on="0"/>
        <pt x="327" y="1648" on="0"/>
        <pt x="370" y="1648" on="1"/>
        <pt x="406" y="1648" on="0"/>
        <pt x="454" y="1709" on="0"/>
        <pt x="454" y="1775" on="1"/>
        <pt x="454" y="1862" on="0"/>
        <pt x="406" y="1952" on="0"/>
        <pt x="364" y="1952" on="1"/>
      </contour>
      <contour>
        <pt x="362" y="2061" on="1"/>
        <pt x="409" y="2061" on="0"/>
        <pt x="507" y="2030" on="0"/>
        <pt x="586" y="1966" on="0"/>
        <pt x="637" y="1869" on="0"/>
        <pt x="637" y="1803" on="1"/>
        <pt x="637" y="1741" on="0"/>
        <pt x="588" y="1642" on="0"/>
        <pt x="510" y="1574" on="0"/>
        <pt x="413" y="1538" on="0"/>
        <pt x="365" y="1538" on="1"/>
        <pt x="315" y="1538" on="0"/>
        <pt x="217" y="1569" on="0"/>
        <pt x="139" y="1633" on="0"/>
        <pt x="91" y="1731" on="0"/>
        <pt x="91" y="1799" on="1"/>
        <pt x="91" y="1857" on="0"/>
        <pt x="139" y="1954" on="0"/>
        <pt x="217" y="2023" on="0"/>
        <pt x="314" y="2061" on="0"/>
      </contour>
    </TTGlyph>
    <TTGlyph name="S" xMin="89" yMin="-33" xMax="1154" yMax="1467">
      <contour>
        <pt x="634" y="115" on="1"/>
        <pt x="689" y="115" on="0"/>
        <pt x="780" y="145" on="0"/>
        <pt x="845" y="198" on="0"/>
        <pt x="881" y="268" on="0"/>
        <pt x="881" y="308" on="1"/>
        <pt x="881" y="362" on="0"/>
        <pt x="822" y="440" on="0"/>
        <pt x="727" y="499" on="0"/>
        <pt x="610" y="546" on="0"/>
        <pt x="552" y="569" on="1"/>
        <pt x="453" y="609" on="0"/>
        <pt x="283" y="701" on="0"/>
        <pt x="159" y="821" on="0"/>
        <pt x="89" y="975" on="0"/>
        <pt x="89" y="1076" on="1"/>
        <pt x="89" y="1118" on="0"/>
        <pt x="110" y="1209" on="0"/>
        <pt x="155" y="1296" on="0"/>
        <pt x="229" y="1374" on="0"/>
        <pt x="336" y="1433" on="0"/>
        <pt x="477" y="1467" on="0"/>
        <pt x="568" y="1467" on="1"/>
        <pt x="608" y="1467" on="0"/>
        <pt x="700" y="1454" on="0"/>
        <pt x="792" y="1430" on="0"/>
        <pt x="877" y="1393" on="0"/>
        <pt x="911" y="1369" on="1"/>
        <pt x="913" y="1369" on="1"/>
        <pt x="906" y="1453" on="1"/>
        <pt x="1064" y="1453" on="1"/>
        <pt x="1064" y="974" on="1"/>
        <pt x="930" y="974" on="1"/>
        <pt x="902" y="1149" on="0"/>
        <pt x="719" y="1319" on="0"/>
        <pt x="575" y="1319" on="1"/>
        <pt x="531" y="1319" on="0"/>
        <pt x="452" y="1293" on="0"/>
        <pt x="391" y="1246" on="0"/>
        <pt x="355" y="1181" on="0"/>
        <pt x="355" y="1143" on="1"/>
        <pt x="355" y="1095" on="0"/>
        <pt x="395" y="1019" on="0"/>
        <pt x="477" y="953" on="0"/>
        <pt x="601" y="891" on="0"/>
        <pt x="686" y="857" on="1"/>
        <pt x="737" y="836" on="0"/>
        <pt x="847" y="786" on="0"/>
        <pt x="951" y="725" on="0"/>
        <pt x="1044" y="650" on="0"/>
        <pt x="1113" y="558" on="0"/>
        <pt x="1154" y="447" on="0"/>
        <pt x="1154" y="380" on="1"/>
        <pt x="1154" y="289" on="0"/>
        <pt x="1079" y="137" on="0"/>
        <pt x="941" y="28" on="0"/>
        <pt x="747" y="-33" on="0"/>
        <pt x="628" y="-33" on="1"/>
        <pt x="588" y="-33" on="0"/>
        <pt x="498" y="-20" on="0"/>
        <pt x="406" y="5" on="0"/>
        <pt x="315" y="43" on="0"/>
        <pt x="274" y="68" on="1"/>
        <pt x="272" y="68" on="1"/>
        <pt x="279" y="-19" on="1"/>
        <pt x="121" y="-19" on="1"/>
        <pt x="121" y="460" on="1"/>
        <pt x="255" y="460" on="1"/>
        <pt x="269" y="374" on="0"/>
        <pt x="337" y="245" on="0"/>
        <pt x="436" y="158" on="0"/>
        <pt x="562" y="115" on="0"/>
      </contour>
    </TTGlyph>
    <TTGlyph name="Sacute" xMin="89" yMin="-33" xMax="1154" yMax="1973">
      <component glyphName="S" x="0" y="0" flags="0x0"/>
      <component glyphName="Acute" x="331" y="0" flags="0x0"/>
    </TTGlyph>
    <TTGlyph name="Scaron" xMin="89" yMin="-33" xMax="1154" yMax="1983">
      <component glyphName="S" x="0" y="0" flags="0x204"/>
      <component glyphName="Caron" x="99" y="0" flags="0x4"/>
    </TTGlyph>
    <TTGlyph name="Scedilla" xMin="89" yMin="-530" xMax="1154" yMax="1467">
      <contour>
        <pt x="930" y="974" on="1"/>
        <pt x="902" y="1147" on="0"/>
        <pt x="719" y="1321" on="0"/>
        <pt x="575" y="1319" on="1"/>
        <pt x="531" y="1319" on="0"/>
        <pt x="452" y="1292" on="0"/>
        <pt x="391" y="1246" on="0"/>
        <pt x="355" y="1181" on="0"/>
        <pt x="355" y="1143" on="1"/>
        <pt x="355" y="1095" on="0"/>
        <pt x="395" y="1019" on="0"/>
        <pt x="477" y="953" on="0"/>
        <pt x="601" y="891" on="0"/>
        <pt x="686" y="857" on="1"/>
        <pt x="737" y="836" on="0"/>
        <pt x="847" y="787" on="0"/>
        <pt x="951" y="725" on="0"/>
        <pt x="1044" y="650" on="0"/>
        <pt x="1113" y="558" on="0"/>
        <pt x="1154" y="447" on="0"/>
        <pt x="1154" y="380" on="1"/>
        <pt x="1154" y="299" on="0"/>
        <pt x="1093" y="159" on="0"/>
        <pt x="981" y="53" on="0"/>
        <pt x="821" y="-16" on="0"/>
        <pt x="722" y="-28" on="1"/>
        <pt x="680" y="-141" on="1"/>
        <pt x="682" y="-141" on="1"/>
        <pt x="695" y="-134" on="0"/>
        <pt x="731" y="-122" on="0"/>
        <pt x="770" y="-113" on="0"/>
        <pt x="808" y="-109" on="0"/>
        <pt x="822" y="-109" on="1"/>
        <pt x="854" y="-110" on="0"/>
        <pt x="908" y="-127" on="0"/>
        <pt x="948" y="-162" on="0"/>
        <pt x="971" y="-215" on="0"/>
        <pt x="971" y="-252" on="1"/>
        <pt x="971" y="-300" on="0"/>
        <pt x="924" y="-375" on="0"/>
        <pt x="847" y="-433" on="0"/>
        <pt x="748" y="-476" on="0"/>
        <pt x="645" y="-506" on="0"/>
        <pt x="545" y="-525" on="0"/>
        <pt x="506" y="-530" on="1"/>
        <pt x="490" y="-424" on="1"/>
        <pt x="506" y="-421" on="0"/>
        <pt x="555" y="-411" on="0"/>
        <pt x="610" y="-396" on="0"/>
        <pt x="665" y="-376" on="0"/>
        <pt x="709" y="-349" on="0"/>
        <pt x="736" y="-315" on="0"/>
        <pt x="736" y="-294" on="1"/>
        <pt x="736" y="-268" on="0"/>
        <pt x="704" y="-245" on="0"/>
        <pt x="659" y="-244" on="0"/>
        <pt x="612" y="-260" on="0"/>
        <pt x="597" y="-272" on="1"/>
        <pt x="521" y="-240" on="1"/>
        <pt x="572" y="-30" on="1"/>
        <pt x="500" y="-22" on="0"/>
        <pt x="343" y="26" on="0"/>
        <pt x="274" y="68" on="1"/>
        <pt x="272" y="68" on="1"/>
        <pt x="279" y="-19" on="1"/>
        <pt x="121" y="-19" on="1"/>
        <pt x="121" y="460" on="1"/>
        <pt x="255" y="460" on="1"/>
        <pt x="269" y="374" on="0"/>
        <pt x="337" y="245" on="0"/>
        <pt x="436" y="158" on="0"/>
        <pt x="562" y="115" on="0"/>
        <pt x="634" y="115" on="1"/>
        <pt x="689" y="115" on="0"/>
        <pt x="780" y="145" on="0"/>
        <pt x="845" y="198" on="0"/>
        <pt x="881" y="268" on="0"/>
        <pt x="881" y="308" on="1"/>
        <pt x="881" y="362" on="0"/>
        <pt x="822" y="439" on="0"/>
        <pt x="727" y="499" on="0"/>
        <pt x="610" y="546" on="0"/>
        <pt x="552" y="569" on="1"/>
        <pt x="453" y="609" on="0"/>
        <pt x="284" y="701" on="0"/>
        <pt x="159" y="821" on="0"/>
        <pt x="89" y="975" on="0"/>
        <pt x="89" y="1076" on="1"/>
        <pt x="89" y="1118" on="0"/>
        <pt x="110" y="1209" on="0"/>
        <pt x="155" y="1296" on="0"/>
        <pt x="229" y="1374" on="0"/>
        <pt x="336" y="1433" on="0"/>
        <pt x="477" y="1467" on="0"/>
        <pt x="568" y="1467" on="1"/>
        <pt x="608" y="1467" on="0"/>
        <pt x="700" y="1455" on="0"/>
        <pt x="792" y="1430" on="0"/>
        <pt x="877" y="1393" on="0"/>
        <pt x="911" y="1369" on="1"/>
        <pt x="913" y="1369" on="1"/>
        <pt x="906" y="1453" on="1"/>
        <pt x="1064" y="1453" on="1"/>
        <pt x="1064" y="974" on="1"/>
      </contour>
    </TTGlyph>
    <TTGlyph name="Scommaaccent" xMin="90" yMin="-582" xMax="1155" yMax="1467">
      <component glyphName="S" x="1" y="0" flags="0x0"/>
      <component glyphName="commaaccentcomb" x="342" y="0" flags="0x0"/>
    </TTGlyph>
    <TTGlyph name="T" xMin="32" yMin="0" xMax="1297" yMax="1434">
      <contour>
        <pt x="1285" y="1434" on="1"/>
        <pt x="1297" y="970" on="1"/>
        <pt x="1162" y="970" on="1"/>
        <pt x="1162" y="1133" on="0"/>
        <pt x="1028" y="1298" on="0"/>
        <pt x="909" y="1297" on="1"/>
        <pt x="811" y="1296" on="1"/>
        <pt x="811" y="336" on="1"/>
        <pt x="811" y="308" on="0"/>
        <pt x="810" y="254" on="0"/>
        <pt x="808" y="205" on="0"/>
        <pt x="805" y="165" on="0"/>
        <pt x="803" y="152" on="1"/>
        <pt x="967" y="158" on="1"/>
        <pt x="967" y="0" on="1"/>
        <pt x="369" y="0" on="1"/>
        <pt x="369" y="135" on="1"/>
        <pt x="403" y="136" on="0"/>
        <pt x="458" y="147" on="0"/>
        <pt x="495" y="181" on="0"/>
        <pt x="515" y="251" on="0"/>
        <pt x="515" y="313" on="1"/>
        <pt x="515" y="1294" on="1"/>
        <pt x="420" y="1294" on="1"/>
        <pt x="303" y="1294" on="0"/>
        <pt x="168" y="1136" on="0"/>
        <pt x="167" y="970" on="1"/>
        <pt x="32" y="970" on="1"/>
        <pt x="44" y="1434" on="1"/>
      </contour>
    </TTGlyph>
    <TTGlyph name="Tcaron" xMin="33" yMin="0" xMax="1298" yMax="1983">
      <component glyphName="T" x="1" y="0" flags="0x0"/>
      <component glyphName="Caron" x="180" y="0" flags="0x0"/>
    </TTGlyph>
    <TTGlyph name="Thorn" xMin="102" yMin="0" xMax="1266" yMax="1434">
      <contour>
        <pt x="677" y="311" on="1"/>
        <pt x="635" y="309" on="0"/>
        <pt x="575" y="308" on="0"/>
        <pt x="544" y="309" on="1"/>
        <pt x="543" y="260" on="0"/>
        <pt x="539" y="175" on="0"/>
        <pt x="536" y="152" on="1"/>
        <pt x="597" y="155" on="0"/>
        <pt x="690" y="158" on="1"/>
        <pt x="690" y="0" on="1"/>
        <pt x="102" y="0" on="1"/>
        <pt x="102" y="135" on="1"/>
        <pt x="136" y="137" on="0"/>
        <pt x="191" y="147" on="0"/>
        <pt x="228" y="181" on="0"/>
        <pt x="248" y="251" on="0"/>
        <pt x="248" y="313" on="1"/>
        <pt x="248" y="1098" on="1"/>
        <pt x="248" y="1126" on="0"/>
        <pt x="249" y="1180" on="0"/>
        <pt x="251" y="1229" on="0"/>
        <pt x="254" y="1269" on="0"/>
        <pt x="256" y="1282" on="1"/>
        <pt x="102" y="1276" on="1"/>
        <pt x="102" y="1434" on="1"/>
        <pt x="690" y="1434" on="1"/>
        <pt x="690" y="1299" on="1"/>
        <pt x="659" y="1297" on="0"/>
        <pt x="609" y="1289" on="0"/>
        <pt x="573" y="1263" on="0"/>
        <pt x="550" y="1213" on="0"/>
        <pt x="546" y="1168" on="1"/>
        <pt x="669" y="1170" on="1"/>
        <pt x="804" y="1171" on="0"/>
        <pt x="1025" y="1128" on="0"/>
        <pt x="1183" y="1025" on="0"/>
        <pt x="1266" y="857" on="0"/>
        <pt x="1263" y="735" on="1"/>
        <pt x="1261" y="653" on="0"/>
        <pt x="1186" y="503" on="0"/>
        <pt x="1040" y="387" on="0"/>
        <pt x="822" y="315" on="0"/>
      </contour>
      <contour>
        <pt x="666" y="1025" on="1"/>
        <pt x="628" y="1025" on="0"/>
        <pt x="569" y="1025" on="0"/>
        <pt x="544" y="1024" on="1"/>
        <pt x="544" y="461" on="1"/>
        <pt x="562" y="459" on="0"/>
        <pt x="600" y="457" on="0"/>
        <pt x="620" y="457" on="1"/>
        <pt x="789" y="457" on="0"/>
        <pt x="947" y="605" on="0"/>
        <pt x="947" y="754" on="1"/>
        <pt x="947" y="820" on="0"/>
        <pt x="917" y="911" on="0"/>
        <pt x="869" y="971" on="0"/>
        <pt x="808" y="1005" on="0"/>
        <pt x="745" y="1021" on="0"/>
        <pt x="687" y="1025" on="0"/>
      </contour>
    </TTGlyph>
    <TTGlyph name="Tilde" xMin="92" yMin="1627" xMax="954" yMax="1953">
      <contour>
        <pt x="379" y="1732" on="1"/>
        <pt x="340" y="1732" on="0"/>
        <pt x="248" y="1688" on="0"/>
        <pt x="206" y="1627" on="1"/>
        <pt x="92" y="1702" on="1"/>
        <pt x="115" y="1759" on="0"/>
        <pt x="180" y="1842" on="0"/>
        <pt x="255" y="1895" on="0"/>
        <pt x="334" y="1921" on="0"/>
        <pt x="371" y="1921" on="1"/>
        <pt x="422" y="1921" on="0"/>
        <pt x="499" y="1889" on="0"/>
        <pt x="566" y="1852" on="0"/>
        <pt x="632" y="1820" on="0"/>
        <pt x="671" y="1820" on="1"/>
        <pt x="692" y="1820" on="0"/>
        <pt x="738" y="1840" on="0"/>
        <pt x="783" y="1875" on="0"/>
        <pt x="823" y="1924" on="0"/>
        <pt x="838" y="1953" on="1"/>
        <pt x="954" y="1889" on="1"/>
        <pt x="927" y="1809" on="0"/>
        <pt x="859" y="1709" on="0"/>
        <pt x="785" y="1652" on="0"/>
        <pt x="712" y="1631" on="0"/>
        <pt x="681" y="1631" on="1"/>
        <pt x="633" y="1631" on="0"/>
        <pt x="559" y="1663" on="0"/>
        <pt x="491" y="1700" on="0"/>
        <pt x="421" y="1732" on="0"/>
      </contour>
    </TTGlyph>
    <TTGlyph name="U" xMin="53" yMin="-33" xMax="1507" yMax="1434">
      <contour>
        <pt x="1361" y="608" on="1"/>
        <pt x="1361" y="431" on="0"/>
        <pt x="1274" y="187" on="0"/>
        <pt x="1121" y="35" on="0"/>
        <pt x="912" y="-33" on="0"/>
        <pt x="789" y="-33" on="1"/>
        <pt x="673" y="-33" on="0"/>
        <pt x="496" y="12" on="0"/>
        <pt x="365" y="95" on="0"/>
        <pt x="276" y="211" on="0"/>
        <pt x="222" y="352" on="0"/>
        <pt x="199" y="514" on="0"/>
        <pt x="199" y="602" on="1"/>
        <pt x="199" y="1098" on="1"/>
        <pt x="199" y="1126" on="0"/>
        <pt x="200" y="1180" on="0"/>
        <pt x="202" y="1229" on="0"/>
        <pt x="205" y="1269" on="0"/>
        <pt x="207" y="1282" on="1"/>
        <pt x="53" y="1276" on="1"/>
        <pt x="53" y="1434" on="1"/>
        <pt x="642" y="1434" on="1"/>
        <pt x="642" y="1299" on="1"/>
        <pt x="607" y="1297" on="0"/>
        <pt x="553" y="1287" on="0"/>
        <pt x="516" y="1253" on="0"/>
        <pt x="496" y="1183" on="0"/>
        <pt x="496" y="1121" on="1"/>
        <pt x="496" y="558" on="1"/>
        <pt x="496" y="424" on="0"/>
        <pt x="555" y="255" on="0"/>
        <pt x="651" y="159" on="0"/>
        <pt x="774" y="123" on="0"/>
        <pt x="838" y="123" on="1"/>
        <pt x="918" y="123" on="0"/>
        <pt x="1045" y="177" on="0"/>
        <pt x="1133" y="286" on="0"/>
        <pt x="1179" y="451" on="0"/>
        <pt x="1179" y="561" on="1"/>
        <pt x="1179" y="1098" on="1"/>
        <pt x="1179" y="1126" on="0"/>
        <pt x="1180" y="1180" on="0"/>
        <pt x="1182" y="1229" on="0"/>
        <pt x="1185" y="1269" on="0"/>
        <pt x="1187" y="1282" on="1"/>
        <pt x="1033" y="1276" on="1"/>
        <pt x="1033" y="1434" on="1"/>
        <pt x="1507" y="1434" on="1"/>
        <pt x="1507" y="1299" on="1"/>
        <pt x="1472" y="1297" on="0"/>
        <pt x="1418" y="1287" on="0"/>
        <pt x="1381" y="1253" on="0"/>
        <pt x="1361" y="1183" on="0"/>
        <pt x="1361" y="1121" on="1"/>
      </contour>
    </TTGlyph>
    <TTGlyph name="Uacute" xMin="53" yMin="-33" xMax="1507" yMax="1973">
      <component glyphName="U" x="0" y="0" flags="0x4"/>
      <component glyphName="Acute" x="590" y="0" flags="0x4"/>
    </TTGlyph>
    <TTGlyph name="Ucircumflex" xMin="53" yMin="-33" xMax="1507" yMax="1988">
      <component glyphName="U" x="0" y="0" flags="0x4"/>
      <component glyphName="Circumflex" x="314" y="0" flags="0x4"/>
    </TTGlyph>
    <TTGlyph name="Udieresis" xMin="53" yMin="-33" xMax="1507" yMax="1943">
      <component glyphName="U" x="0" y="0" flags="0x4"/>
      <component glyphName="Dieresis" x="438" y="0" flags="0x4"/>
    </TTGlyph>
    <TTGlyph name="Ugrave" xMin="53" yMin="-33" xMax="1507" yMax="1973">
      <component glyphName="U" x="0" y="0" flags="0x4"/>
      <component glyphName="Grave" x="473" y="0" flags="0x4"/>
    </TTGlyph>
    <TTGlyph name="Uhungarumlaut" xMin="54" yMin="-33" xMax="1508" yMax="1963">
      <component glyphName="U" x="1" y="0" flags="0x0"/>
      <component glyphName="hungarumlaut.case" x="442" y="0" flags="0x0"/>
    </TTGlyph>
    <TTGlyph name="Umacron" xMin="53" yMin="-33" xMax="1507" yMax="1891">
      <component glyphName="U" x="0" y="0" flags="0x0"/>
      <component glyphName="macron" x="437" y="410" flags="0x0"/>
    </TTGlyph>
    <TTGlyph name="Uogonek" xMin="53" yMin="-534" xMax="1507" yMax="1434">
      <contour>
        <pt x="1507" y="1299" on="1"/>
        <pt x="1472" y="1297" on="0"/>
        <pt x="1418" y="1287" on="0"/>
        <pt x="1381" y="1253" on="0"/>
        <pt x="1361" y="1183" on="0"/>
        <pt x="1361" y="1121" on="1"/>
        <pt x="1361" y="608" on="1"/>
        <pt x="1361" y="481" on="0"/>
        <pt x="1315" y="284" on="0"/>
        <pt x="1231" y="137" on="0"/>
        <pt x="1113" y="38" on="0"/>
        <pt x="1041" y="9" on="1"/>
        <pt x="992" y="-12" on="0"/>
        <pt x="898" y="-70" on="0"/>
        <pt x="824" y="-142" on="0"/>
        <pt x="779" y="-223" on="0"/>
        <pt x="781" y="-266" on="1"/>
        <pt x="783" y="-303" on="0"/>
        <pt x="828" y="-348" on="0"/>
        <pt x="870" y="-348" on="1"/>
        <pt x="900" y="-348" on="0"/>
        <pt x="966" y="-318" on="0"/>
        <pt x="998" y="-289" on="1"/>
        <pt x="1070" y="-377" on="1"/>
        <pt x="1016" y="-449" on="0"/>
        <pt x="873" y="-534" on="0"/>
        <pt x="800" y="-534" on="1"/>
        <pt x="750" y="-534" on="0"/>
        <pt x="669" y="-507" on="0"/>
        <pt x="610" y="-455" on="0"/>
        <pt x="578" y="-376" on="0"/>
        <pt x="578" y="-323" on="1"/>
        <pt x="578" y="-241" on="0"/>
        <pt x="680" y="-93" on="0"/>
        <pt x="762" y="-33" on="1"/>
        <pt x="652" y="-30" on="0"/>
        <pt x="483" y="18" on="0"/>
        <pt x="358" y="102" on="0"/>
        <pt x="273" y="217" on="0"/>
        <pt x="221" y="357" on="0"/>
        <pt x="199" y="516" on="0"/>
        <pt x="199" y="602" on="1"/>
        <pt x="199" y="1098" on="1"/>
        <pt x="199" y="1126" on="0"/>
        <pt x="200" y="1180" on="0"/>
        <pt x="202" y="1229" on="0"/>
        <pt x="205" y="1269" on="0"/>
        <pt x="207" y="1282" on="1"/>
        <pt x="190" y="1281" on="0"/>
        <pt x="146" y="1279" on="0"/>
        <pt x="102" y="1277" on="0"/>
        <pt x="64" y="1276" on="0"/>
        <pt x="53" y="1276" on="1"/>
        <pt x="53" y="1434" on="1"/>
        <pt x="642" y="1434" on="1"/>
        <pt x="642" y="1299" on="1"/>
        <pt x="607" y="1297" on="0"/>
        <pt x="553" y="1287" on="0"/>
        <pt x="516" y="1253" on="0"/>
        <pt x="496" y="1183" on="0"/>
        <pt x="496" y="1121" on="1"/>
        <pt x="496" y="558" on="1"/>
        <pt x="496" y="429" on="0"/>
        <pt x="551" y="263" on="0"/>
        <pt x="642" y="165" on="0"/>
        <pt x="759" y="125" on="0"/>
        <pt x="821" y="123" on="1"/>
        <pt x="905" y="120" on="0"/>
        <pt x="1038" y="171" on="0"/>
        <pt x="1130" y="280" on="0"/>
        <pt x="1179" y="448" on="0"/>
        <pt x="1179" y="561" on="1"/>
        <pt x="1179" y="1098" on="1"/>
        <pt x="1179" y="1126" on="0"/>
        <pt x="1180" y="1180" on="0"/>
        <pt x="1182" y="1229" on="0"/>
        <pt x="1185" y="1269" on="0"/>
        <pt x="1187" y="1282" on="1"/>
        <pt x="1170" y="1281" on="0"/>
        <pt x="1126" y="1279" on="0"/>
        <pt x="1082" y="1277" on="0"/>
        <pt x="1044" y="1276" on="0"/>
        <pt x="1033" y="1276" on="1"/>
        <pt x="1033" y="1434" on="1"/>
        <pt x="1507" y="1434" on="1"/>
      </contour>
    </TTGlyph>
    <TTGlyph name="Uring" xMin="54" yMin="-33" xMax="1508" yMax="2038">
      <component glyphName="U" x="1" y="0" flags="0x0"/>
      <component glyphName="ring" x="470" y="410" flags="0x0"/>
    </TTGlyph>
    <TTGlyph name="V" xMin="17" yMin="-12" xMax="1450" yMax="1434">
      <contour>
        <pt x="690" y="677" on="1"/>
        <pt x="708" y="635" on="0"/>
        <pt x="737" y="562" on="0"/>
        <pt x="763" y="494" on="0"/>
        <pt x="790" y="425" on="0"/>
        <pt x="806" y="386" on="1"/>
        <pt x="808" y="386" on="1"/>
        <pt x="831" y="447" on="0"/>
        <pt x="881" y="597" on="0"/>
        <pt x="907" y="667" on="1"/>
        <pt x="1062" y="1096" on="1"/>
        <pt x="1068" y="1113" on="0"/>
        <pt x="1086" y="1163" on="0"/>
        <pt x="1108" y="1217" on="0"/>
        <pt x="1133" y="1266" on="0"/>
        <pt x="1146" y="1282" on="1"/>
        <pt x="1146" y="1284" on="1"/>
        <pt x="989" y="1276" on="1"/>
        <pt x="989" y="1434" on="1"/>
        <pt x="1450" y="1434" on="1"/>
        <pt x="1450" y="1299" on="1"/>
        <pt x="1416" y="1297" on="0"/>
        <pt x="1356" y="1273" on="0"/>
        <pt x="1303" y="1221" on="0"/>
        <pt x="1255" y="1139" on="0"/>
        <pt x="1233" y="1080" on="1"/>
        <pt x="824" y="-12" on="1"/>
        <pt x="656" y="-12" on="1"/>
        <pt x="184" y="1087" on="1"/>
        <pt x="173" y="1112" on="0"/>
        <pt x="152" y="1167" on="0"/>
        <pt x="136" y="1220" on="0"/>
        <pt x="126" y="1266" on="0"/>
        <pt x="126" y="1282" on="1"/>
        <pt x="17" y="1276" on="1"/>
        <pt x="17" y="1434" on="1"/>
        <pt x="620" y="1434" on="1"/>
        <pt x="620" y="1299" on="1"/>
        <pt x="609" y="1299" on="1"/>
        <pt x="554" y="1299" on="0"/>
        <pt x="485" y="1259" on="0"/>
        <pt x="485" y="1212" on="1"/>
        <pt x="485" y="1182" on="0"/>
        <pt x="501" y="1141" on="1"/>
      </contour>
    </TTGlyph>
    <TTGlyph name="W" xMin="27" yMin="-12" xMax="2083" yMax="1434">
      <contour>
        <pt x="1195" y="1434" on="1"/>
        <pt x="1427" y="679" on="1"/>
        <pt x="1449" y="607" on="0"/>
        <pt x="1484" y="462" on="0"/>
        <pt x="1501" y="384" on="1"/>
        <pt x="1503" y="384" on="1"/>
        <pt x="1521" y="453" on="0"/>
        <pt x="1561" y="592" on="0"/>
        <pt x="1581" y="667" on="1"/>
        <pt x="1695" y="1096" on="1"/>
        <pt x="1709" y="1145" on="0"/>
        <pt x="1749" y="1248" on="0"/>
        <pt x="1779" y="1282" on="1"/>
        <pt x="1779" y="1284" on="1"/>
        <pt x="1622" y="1276" on="1"/>
        <pt x="1622" y="1434" on="1"/>
        <pt x="2083" y="1434" on="1"/>
        <pt x="2083" y="1299" on="1"/>
        <pt x="2049" y="1297" on="0"/>
        <pt x="1987" y="1273" on="0"/>
        <pt x="1932" y="1222" on="0"/>
        <pt x="1885" y="1140" on="0"/>
        <pt x="1866" y="1080" on="1"/>
        <pt x="1531" y="-12" on="1"/>
        <pt x="1350" y="-12" on="1"/>
        <pt x="1107" y="721" on="1"/>
        <pt x="1080" y="802" on="0"/>
        <pt x="1047" y="953" on="0"/>
        <pt x="1033" y="1023" on="1"/>
        <pt x="1031" y="1023" on="1"/>
        <pt x="1020" y="953" on="0"/>
        <pt x="991" y="825" on="0"/>
        <pt x="970" y="756" on="1"/>
        <pt x="737" y="-12" on="1"/>
        <pt x="559" y="-12" on="1"/>
        <pt x="194" y="1091" on="1"/>
        <pt x="183" y="1116" on="0"/>
        <pt x="162" y="1170" on="0"/>
        <pt x="146" y="1221" on="0"/>
        <pt x="136" y="1265" on="0"/>
        <pt x="136" y="1282" on="1"/>
        <pt x="27" y="1276" on="1"/>
        <pt x="27" y="1434" on="1"/>
        <pt x="630" y="1434" on="1"/>
        <pt x="630" y="1299" on="1"/>
        <pt x="618" y="1299" on="1"/>
        <pt x="562" y="1299" on="0"/>
        <pt x="499" y="1260" on="0"/>
        <pt x="499" y="1210" on="1"/>
        <pt x="498" y="1196" on="0"/>
        <pt x="504" y="1164" on="0"/>
        <pt x="509" y="1145" on="1"/>
        <pt x="632" y="677" on="1"/>
        <pt x="641" y="642" on="0"/>
        <pt x="658" y="580" on="0"/>
        <pt x="675" y="513" on="0"/>
        <pt x="692" y="436" on="0"/>
        <pt x="701" y="387" on="1"/>
        <pt x="703" y="387" on="1"/>
        <pt x="708" y="405" on="0"/>
        <pt x="726" y="474" on="0"/>
        <pt x="749" y="557" on="0"/>
        <pt x="774" y="647" on="0"/>
        <pt x="797" y="728" on="0"/>
        <pt x="815" y="791" on="0"/>
        <pt x="820" y="806" on="1"/>
        <pt x="1010" y="1434" on="1"/>
      </contour>
    </TTGlyph>
    <TTGlyph name="X" xMin="28" yMin="0" xMax="1423" yMax="1434">
      <contour>
        <pt x="652" y="1299" on="1"/>
        <pt x="586" y="1299" on="0"/>
        <pt x="525" y="1269" on="0"/>
        <pt x="525" y="1239" on="1"/>
        <pt x="525" y="1222" on="0"/>
        <pt x="546" y="1182" on="0"/>
        <pt x="563" y="1159" on="1"/>
        <pt x="743" y="927" on="1"/>
        <pt x="745" y="927" on="1"/>
        <pt x="901" y="1143" on="1"/>
        <pt x="922" y="1172" on="0"/>
        <pt x="955" y="1214" on="0"/>
        <pt x="983" y="1245" on="0"/>
        <pt x="1008" y="1270" on="0"/>
        <pt x="1021" y="1282" on="1"/>
        <pt x="1021" y="1284" on="1"/>
        <pt x="868" y="1276" on="1"/>
        <pt x="868" y="1434" on="1"/>
        <pt x="1334" y="1434" on="1"/>
        <pt x="1334" y="1299" on="1"/>
        <pt x="1298" y="1294" on="0"/>
        <pt x="1229" y="1262" on="0"/>
        <pt x="1158" y="1206" on="0"/>
        <pt x="1085" y="1123" on="0"/>
        <pt x="1044" y="1067" on="1"/>
        <pt x="847" y="798" on="1"/>
        <pt x="1233" y="307" on="1"/>
        <pt x="1268" y="262" on="0"/>
        <pt x="1323" y="186" on="0"/>
        <pt x="1340" y="152" on="1"/>
        <pt x="1423" y="158" on="1"/>
        <pt x="1423" y="0" on="1"/>
        <pt x="811" y="0" on="1"/>
        <pt x="811" y="135" on="1"/>
        <pt x="874" y="135" on="0"/>
        <pt x="925" y="162" on="0"/>
        <pt x="925" y="185" on="1"/>
        <pt x="925" y="203" on="0"/>
        <pt x="899" y="249" on="0"/>
        <pt x="879" y="275" on="1"/>
        <pt x="671" y="539" on="1"/>
        <pt x="669" y="539" on="1"/>
        <pt x="490" y="291" on="1"/>
        <pt x="469" y="262" on="0"/>
        <pt x="437" y="220" on="0"/>
        <pt x="412" y="188" on="0"/>
        <pt x="389" y="164" on="0"/>
        <pt x="377" y="152" on="1"/>
        <pt x="377" y="150" on="1"/>
        <pt x="523" y="158" on="1"/>
        <pt x="523" y="0" on="1"/>
        <pt x="72" y="0" on="1"/>
        <pt x="72" y="135" on="1"/>
        <pt x="130" y="148" on="0"/>
        <pt x="250" y="253" on="0"/>
        <pt x="326" y="354" on="1"/>
        <pt x="564" y="672" on="1"/>
        <pt x="234" y="1089" on="1"/>
        <pt x="199" y="1134" on="0"/>
        <pt x="146" y="1237" on="0"/>
        <pt x="131" y="1282" on="1"/>
        <pt x="28" y="1276" on="1"/>
        <pt x="28" y="1434" on="1"/>
        <pt x="652" y="1434" on="1"/>
      </contour>
    </TTGlyph>
    <TTGlyph name="Y" xMin="7" yMin="0" xMax="1357" yMax="1434">
      <contour>
        <pt x="858" y="568" on="1"/>
        <pt x="858" y="336" on="1"/>
        <pt x="858" y="308" on="0"/>
        <pt x="857" y="254" on="0"/>
        <pt x="855" y="205" on="0"/>
        <pt x="852" y="165" on="0"/>
        <pt x="850" y="152" on="1"/>
        <pt x="1014" y="158" on="1"/>
        <pt x="1014" y="0" on="1"/>
        <pt x="416" y="0" on="1"/>
        <pt x="416" y="135" on="1"/>
        <pt x="450" y="136" on="0"/>
        <pt x="505" y="147" on="0"/>
        <pt x="542" y="181" on="0"/>
        <pt x="562" y="251" on="0"/>
        <pt x="562" y="313" on="1"/>
        <pt x="562" y="492" on="1"/>
        <pt x="184" y="1087" on="1"/>
        <pt x="169" y="1111" on="0"/>
        <pt x="141" y="1165" on="0"/>
        <pt x="119" y="1218" on="0"/>
        <pt x="106" y="1265" on="0"/>
        <pt x="106" y="1282" on="1"/>
        <pt x="7" y="1276" on="1"/>
        <pt x="7" y="1434" on="1"/>
        <pt x="610" y="1434" on="1"/>
        <pt x="610" y="1299" on="1"/>
        <pt x="604" y="1299" on="0"/>
        <pt x="593" y="1300" on="0"/>
        <pt x="587" y="1300" on="1"/>
        <pt x="530" y="1300" on="0"/>
        <pt x="464" y="1259" on="0"/>
        <pt x="464" y="1219" on="1"/>
        <pt x="465" y="1202" on="0"/>
        <pt x="475" y="1163" on="0"/>
        <pt x="489" y="1141" on="1"/>
        <pt x="646" y="884" on="1"/>
        <pt x="653" y="872" on="0"/>
        <pt x="681" y="824" on="0"/>
        <pt x="712" y="767" on="0"/>
        <pt x="741" y="709" on="0"/>
        <pt x="749" y="687" on="1"/>
        <pt x="752" y="687" on="1"/>
        <pt x="762" y="710" on="0"/>
        <pt x="810" y="809" on="0"/>
        <pt x="848" y="887" on="1"/>
        <pt x="954" y="1096" on="1"/>
        <pt x="962" y="1112" on="0"/>
        <pt x="988" y="1162" on="0"/>
        <pt x="1018" y="1216" on="0"/>
        <pt x="1048" y="1266" on="0"/>
        <pt x="1062" y="1282" on="1"/>
        <pt x="1062" y="1284" on="1"/>
        <pt x="905" y="1276" on="1"/>
        <pt x="905" y="1434" on="1"/>
        <pt x="1357" y="1434" on="1"/>
        <pt x="1357" y="1299" on="1"/>
        <pt x="1321" y="1293" on="0"/>
        <pt x="1262" y="1265" on="0"/>
        <pt x="1208" y="1214" on="0"/>
        <pt x="1155" y="1136" on="0"/>
        <pt x="1125" y="1080" on="1"/>
      </contour>
    </TTGlyph>
    <TTGlyph name="Yacute" xMin="7" yMin="0" xMax="1357" yMax="1973">
      <component glyphName="Y" x="0" y="0" flags="0x204"/>
      <component glyphName="Acute" x="502" y="0" flags="0x4"/>
    </TTGlyph>
    <TTGlyph name="Ydieresis" xMin="7" yMin="0" xMax="1357" yMax="1943">
      <component glyphName="Y" x="0" y="0" flags="0x204"/>
      <component glyphName="Dieresis" x="303" y="0" flags="0x4"/>
    </TTGlyph>
    <TTGlyph name="Z" xMin="82" yMin="0" xMax="1149" yMax="1434">
      <contour>
        <pt x="557" y="388" on="1"/>
        <pt x="513" y="322" on="0"/>
        <pt x="427" y="200" on="0"/>
        <pt x="381" y="146" on="1"/>
        <pt x="381" y="144" on="1"/>
        <pt x="755" y="136" on="1"/>
        <pt x="812" y="136" on="0"/>
        <pt x="907" y="168" on="0"/>
        <pt x="976" y="239" on="0"/>
        <pt x="1014" y="354" on="0"/>
        <pt x="1014" y="438" on="1"/>
        <pt x="1149" y="438" on="1"/>
        <pt x="1137" y="0" on="1"/>
        <pt x="82" y="0" on="1"/>
        <pt x="82" y="154" on="1"/>
        <pt x="695" y="1088" on="1"/>
        <pt x="733" y="1146" on="0"/>
        <pt x="800" y="1241" on="0"/>
        <pt x="838" y="1289" on="1"/>
        <pt x="838" y="1291" on="1"/>
        <pt x="487" y="1300" on="1"/>
        <pt x="430" y="1300" on="0"/>
        <pt x="335" y="1269" on="0"/>
        <pt x="266" y="1197" on="0"/>
        <pt x="228" y="1081" on="0"/>
        <pt x="228" y="997" on="1"/>
        <pt x="93" y="997" on="1"/>
        <pt x="105" y="1434" on="1"/>
        <pt x="1147" y="1434" on="1"/>
        <pt x="1147" y="1280" on="1"/>
      </contour>
    </TTGlyph>
    <TTGlyph name="Zacute" xMin="82" yMin="0" xMax="1149" yMax="1973">
      <component glyphName="Z" x="0" y="0" flags="0x0"/>
      <component glyphName="Acute" x="399" y="0" flags="0x0"/>
    </TTGlyph>
    <TTGlyph name="Zcaron" xMin="82" yMin="0" xMax="1149" yMax="1983">
      <component glyphName="Z" x="0" y="0" flags="0x204"/>
      <component glyphName="Caron" x="108" y="0" flags="0x4"/>
    </TTGlyph>
    <TTGlyph name="Zdotaccent" xMin="82" yMin="0" xMax="1149" yMax="1951">
      <component glyphName="Z" x="0" y="0" flags="0x0"/>
      <component glyphName="period" x="392" y="1687" scalex="0.923095703125" scaley="0.922485351562" flags="0x0"/>
    </TTGlyph>
    <TTGlyph name="a" xMin="61" yMin="-33" xMax="1040" yMax="1057">
      <contour>
        <pt x="631" y="471" on="1"/>
        <pt x="573" y="465" on="0"/>
        <pt x="471" y="435" on="0"/>
        <pt x="396" y="386" on="0"/>
        <pt x="353" y="318" on="0"/>
        <pt x="353" y="274" on="1"/>
        <pt x="354" y="245" on="0"/>
        <pt x="374" y="205" on="0"/>
        <pt x="405" y="179" on="0"/>
        <pt x="446" y="167" on="0"/>
        <pt x="468" y="167" on="1"/>
        <pt x="516" y="167" on="0"/>
        <pt x="598" y="207" on="0"/>
        <pt x="630" y="242" on="1"/>
      </contour>
      <contour>
        <pt x="106" y="787" on="1"/>
        <pt x="106" y="847" on="0"/>
        <pt x="173" y="947" on="0"/>
        <pt x="290" y="1018" on="0"/>
        <pt x="448" y="1057" on="0"/>
        <pt x="538" y="1057" on="1"/>
        <pt x="628" y="1057" on="0"/>
        <pt x="769" y="1011" on="0"/>
        <pt x="866" y="915" on="0"/>
        <pt x="917" y="767" on="0"/>
        <pt x="917" y="665" on="1"/>
        <pt x="917" y="613" on="0"/>
        <pt x="916" y="534" on="0"/>
        <pt x="916" y="461" on="0"/>
        <pt x="915" y="381" on="0"/>
        <pt x="915" y="329" on="1"/>
        <pt x="915" y="314" on="0"/>
        <pt x="914" y="272" on="0"/>
        <pt x="913" y="224" on="0"/>
        <pt x="910" y="173" on="0"/>
        <pt x="908" y="150" on="1"/>
        <pt x="1040" y="156" on="1"/>
        <pt x="1040" y="0" on="1"/>
        <pt x="653" y="0" on="1"/>
        <pt x="649" y="29" on="0"/>
        <pt x="646" y="68" on="0"/>
        <pt x="645" y="94" on="1"/>
        <pt x="643" y="94" on="1"/>
        <pt x="573" y="24" on="0"/>
        <pt x="421" y="-33" on="0"/>
        <pt x="340" y="-33" on="1"/>
        <pt x="274" y="-33" on="0"/>
        <pt x="170" y="8" on="0"/>
        <pt x="99" y="82" on="0"/>
        <pt x="61" y="181" on="0"/>
        <pt x="61" y="240" on="1"/>
        <pt x="61" y="305" on="0"/>
        <pt x="107" y="409" on="0"/>
        <pt x="188" y="491" on="0"/>
        <pt x="298" y="551" on="0"/>
        <pt x="425" y="591" on="0"/>
        <pt x="563" y="613" on="0"/>
        <pt x="632" y="616" on="1"/>
        <pt x="632" y="723" on="1"/>
        <pt x="632" y="764" on="0"/>
        <pt x="618" y="833" on="0"/>
        <pt x="584" y="883" on="0"/>
        <pt x="528" y="911" on="0"/>
        <pt x="486" y="910" on="1"/>
        <pt x="444" y="908" on="0"/>
        <pt x="372" y="878" on="0"/>
        <pt x="346" y="851" on="1"/>
        <pt x="362" y="834" on="0"/>
        <pt x="371" y="790" on="0"/>
        <pt x="371" y="775" on="1"/>
        <pt x="371" y="753" on="0"/>
        <pt x="355" y="708" on="0"/>
        <pt x="321" y="671" on="0"/>
        <pt x="269" y="647" on="0"/>
        <pt x="233" y="647" on="1"/>
        <pt x="203" y="648" on="0"/>
        <pt x="155" y="671" on="0"/>
        <pt x="123" y="708" on="0"/>
        <pt x="106" y="758" on="0"/>
      </contour>
    </TTGlyph>
    <TTGlyph name="aacute" xMin="61" yMin="-33" xMax="1040" yMax="1602">
      <component glyphName="a" x="0" y="0" flags="0x204"/>
      <component glyphName="acute" x="266" y="0" flags="0x4"/>
    </TTGlyph>
    <TTGlyph name="abreve" xMin="62" yMin="-33" xMax="1041" yMax="1564">
      <component glyphName="a" x="1" y="0" flags="0x0"/>
      <component glyphName="breve" x="143" y="0" flags="0x0"/>
    </TTGlyph>
    <TTGlyph name="acircumflex" xMin="61" yMin="-33" xMax="1040" yMax="1603">
      <component glyphName="a" x="0" y="0" flags="0x204"/>
      <component glyphName="circumflex" x="73" y="0" flags="0x4"/>
    </TTGlyph>
    <TTGlyph name="acute" xMin="90" yMin="1158" xMax="487" yMax="1602">
      <contour>
        <pt x="184" y="1158" on="1"/>
        <pt x="90" y="1241" on="1"/>
        <pt x="258" y="1527" on="1"/>
        <pt x="279" y="1561" on="0"/>
        <pt x="344" y="1602" on="0"/>
        <pt x="379" y="1602" on="1"/>
        <pt x="403" y="1602" on="0"/>
        <pt x="442" y="1583" on="0"/>
        <pt x="471" y="1552" on="0"/>
        <pt x="487" y="1512" on="0"/>
        <pt x="487" y="1492" on="1"/>
        <pt x="487" y="1460" on="0"/>
        <pt x="457" y="1397" on="0"/>
        <pt x="433" y="1374" on="1"/>
      </contour>
    </TTGlyph>
    <TTGlyph name="adieresis" xMin="61" yMin="-33" xMax="1040" yMax="1538">
      <component glyphName="a" x="0" y="0" flags="0x204"/>
      <component glyphName="dieresis" x="71" y="0" flags="0x4"/>
    </TTGlyph>
    <TTGlyph name="ae" xMin="60" yMin="-33" xMax="1537" yMax="1057">
      <contour>
        <pt x="343" y="-33" on="1"/>
        <pt x="277" y="-33" on="0"/>
        <pt x="172" y="8" on="0"/>
        <pt x="99" y="82" on="0"/>
        <pt x="60" y="181" on="0"/>
        <pt x="60" y="240" on="1"/>
        <pt x="60" y="305" on="0"/>
        <pt x="107" y="410" on="0"/>
        <pt x="189" y="491" on="0"/>
        <pt x="299" y="551" on="0"/>
        <pt x="426" y="591" on="0"/>
        <pt x="565" y="613" on="0"/>
        <pt x="633" y="616" on="1"/>
        <pt x="633" y="727" on="1"/>
        <pt x="633" y="768" on="0"/>
        <pt x="617" y="836" on="0"/>
        <pt x="583" y="884" on="0"/>
        <pt x="529" y="911" on="0"/>
        <pt x="491" y="911" on="1"/>
        <pt x="449" y="909" on="0"/>
        <pt x="371" y="884" on="0"/>
        <pt x="345" y="857" on="1"/>
        <pt x="361" y="840" on="0"/>
        <pt x="370" y="790" on="0"/>
        <pt x="370" y="775" on="1"/>
        <pt x="370" y="753" on="0"/>
        <pt x="354" y="708" on="0"/>
        <pt x="320" y="671" on="0"/>
        <pt x="268" y="647" on="0"/>
        <pt x="232" y="647" on="1"/>
        <pt x="202" y="648" on="0"/>
        <pt x="154" y="671" on="0"/>
        <pt x="122" y="708" on="0"/>
        <pt x="105" y="758" on="0"/>
        <pt x="105" y="787" on="1"/>
        <pt x="105" y="844" on="0"/>
        <pt x="168" y="942" on="0"/>
        <pt x="280" y="1015" on="0"/>
        <pt x="433" y="1057" on="0"/>
        <pt x="523" y="1057" on="1"/>
        <pt x="628" y="1057" on="0"/>
        <pt x="771" y="980" on="0"/>
        <pt x="799" y="884" on="1"/>
        <pt x="801" y="884" on="1"/>
        <pt x="829" y="931" on="0"/>
        <pt x="893" y="997" on="0"/>
        <pt x="971" y="1038" on="0"/>
        <pt x="1065" y="1057" on="0"/>
        <pt x="1124" y="1057" on="1"/>
        <pt x="1193" y="1056" on="0"/>
        <pt x="1326" y="1003" on="0"/>
        <pt x="1431" y="884" on="0"/>
        <pt x="1496" y="692" on="0"/>
        <pt x="1496" y="551" on="1"/>
        <pt x="915" y="539" on="1"/>
        <pt x="915" y="455" on="0"/>
        <pt x="937" y="312" on="0"/>
        <pt x="993" y="209" on="0"/>
        <pt x="1089" y="150" on="0"/>
        <pt x="1164" y="150" on="1"/>
        <pt x="1195" y="150" on="0"/>
        <pt x="1264" y="166" on="0"/>
        <pt x="1336" y="202" on="0"/>
        <pt x="1410" y="261" on="0"/>
        <pt x="1445" y="304" on="1"/>
        <pt x="1537" y="217" on="1"/>
        <pt x="1482" y="138" on="0"/>
        <pt x="1366" y="40" on="0"/>
        <pt x="1251" y="-14" on="0"/>
        <pt x="1139" y="-33" on="0"/>
        <pt x="1087" y="-33" on="1"/>
        <pt x="1030" y="-33" on="0"/>
        <pt x="932" y="-5" on="0"/>
        <pt x="850" y="42" on="0"/>
        <pt x="784" y="104" on="0"/>
        <pt x="758" y="139" on="1"/>
        <pt x="711" y="85" on="0"/>
        <pt x="607" y="18" on="0"/>
        <pt x="500" y="-20" on="0"/>
        <pt x="393" y="-33" on="0"/>
      </contour>
      <contour>
        <pt x="632" y="471" on="1"/>
        <pt x="573" y="465" on="0"/>
        <pt x="471" y="435" on="0"/>
        <pt x="394" y="386" on="0"/>
        <pt x="350" y="318" on="0"/>
        <pt x="350" y="274" on="1"/>
        <pt x="351" y="245" on="0"/>
        <pt x="373" y="205" on="0"/>
        <pt x="408" y="179" on="0"/>
        <pt x="451" y="167" on="0"/>
        <pt x="473" y="167" on="1"/>
        <pt x="521" y="167" on="0"/>
        <pt x="608" y="210" on="0"/>
        <pt x="640" y="245" on="1"/>
        <pt x="635" y="305" on="0"/>
        <pt x="633" y="416" on="0"/>
      </contour>
      <contour>
        <pt x="1090" y="911" on="1"/>
        <pt x="1048" y="911" on="0"/>
        <pt x="990" y="874" on="0"/>
        <pt x="952" y="811" on="0"/>
        <pt x="932" y="728" on="0"/>
        <pt x="928" y="683" on="1"/>
        <pt x="1225" y="683" on="1"/>
        <pt x="1223" y="746" on="0"/>
        <pt x="1199" y="833" on="0"/>
        <pt x="1162" y="887" on="0"/>
        <pt x="1115" y="911" on="0"/>
      </contour>
    </TTGlyph>
    <TTGlyph name="agrave" xMin="61" yMin="-33" xMax="1040" yMax="1602">
      <component glyphName="a" x="0" y="0" flags="0x204"/>
      <component glyphName="grave" x="150" y="0" flags="0x4"/>
    </TTGlyph>
    <TTGlyph name="amacron" xMin="61" yMin="-33" xMax="1040" yMax="1481">
      <component glyphName="a" x="0" y="0" flags="0x0"/>
      <component glyphName="macron" x="150" y="0" flags="0x0"/>
    </TTGlyph>
    <TTGlyph name="ampersand" xMin="48" yMin="-33" xMax="1382" yMax="1467">
      <contour>
        <pt x="1139" y="536" on="1"/>
        <pt x="1139" y="417" on="0"/>
        <pt x="1099" y="315" on="1"/>
        <pt x="1131" y="288" on="1"/>
        <pt x="1170" y="255" on="0"/>
        <pt x="1243" y="198" on="0"/>
        <pt x="1307" y="158" on="0"/>
        <pt x="1361" y="135" on="0"/>
        <pt x="1382" y="135" on="1"/>
        <pt x="1382" y="0" on="1"/>
        <pt x="1164" y="0" on="1"/>
        <pt x="1145" y="0" on="0"/>
        <pt x="1035" y="60" on="0"/>
        <pt x="962" y="117" on="1"/>
        <pt x="881" y="45" on="0"/>
        <pt x="667" y="-33" on="0"/>
        <pt x="535" y="-33" on="1"/>
        <pt x="446" y="-33" on="0"/>
        <pt x="271" y="11" on="0"/>
        <pt x="133" y="104" on="0"/>
        <pt x="48" y="248" on="0"/>
        <pt x="48" y="349" on="1"/>
        <pt x="48" y="418" on="0"/>
        <pt x="96" y="540" on="0"/>
        <pt x="181" y="642" on="0"/>
        <pt x="298" y="722" on="0"/>
        <pt x="367" y="748" on="1"/>
        <pt x="312" y="808" on="0"/>
        <pt x="245" y="910" on="0"/>
        <pt x="209" y="1001" on="0"/>
        <pt x="198" y="1086" on="0"/>
        <pt x="198" y="1129" on="1"/>
        <pt x="199" y="1206" on="0"/>
        <pt x="256" y="1331" on="0"/>
        <pt x="358" y="1419" on="0"/>
        <pt x="501" y="1467" on="0"/>
        <pt x="589" y="1467" on="1"/>
        <pt x="670" y="1467" on="0"/>
        <pt x="802" y="1415" on="0"/>
        <pt x="895" y="1326" on="0"/>
        <pt x="946" y="1209" on="0"/>
        <pt x="946" y="1145" on="1"/>
        <pt x="946" y="1082" on="0"/>
        <pt x="897" y="966" on="0"/>
        <pt x="814" y="864" on="0"/>
        <pt x="708" y="779" on="0"/>
        <pt x="651" y="746" on="1"/>
        <pt x="657" y="739" on="0"/>
        <pt x="718" y="676" on="0"/>
        <pt x="810" y="584" on="0"/>
        <pt x="923" y="474" on="0"/>
        <pt x="981" y="420" on="1"/>
        <pt x="983" y="420" on="1"/>
        <pt x="989" y="444" on="0"/>
        <pt x="994" y="496" on="0"/>
        <pt x="994" y="522" on="1"/>
        <pt x="994" y="564" on="0"/>
        <pt x="980" y="622" on="0"/>
        <pt x="953" y="659" on="0"/>
        <pt x="912" y="676" on="0"/>
        <pt x="885" y="678" on="1"/>
        <pt x="885" y="809" on="1"/>
        <pt x="1229" y="809" on="1"/>
        <pt x="1229" y="655" on="1"/>
        <pt x="1209" y="656" on="0"/>
        <pt x="1149" y="661" on="0"/>
        <pt x="1117" y="663" on="1"/>
        <pt x="1117" y="661" on="1"/>
        <pt x="1139" y="613" on="0"/>
      </contour>
      <contour>
        <pt x="601" y="113" on="1"/>
        <pt x="677" y="113" on="0"/>
        <pt x="806" y="164" on="0"/>
        <pt x="857" y="209" on="1"/>
        <pt x="754" y="302" on="1"/>
        <pt x="695" y="355" on="0"/>
        <pt x="601" y="444" on="0"/>
        <pt x="523" y="523" on="0"/>
        <pt x="457" y="595" on="0"/>
        <pt x="426" y="631" on="1"/>
        <pt x="397" y="607" on="0"/>
        <pt x="358" y="545" on="0"/>
        <pt x="335" y="482" on="0"/>
        <pt x="325" y="422" on="0"/>
        <pt x="325" y="400" on="1"/>
        <pt x="325" y="259" on="0"/>
        <pt x="471" y="113" on="0"/>
      </contour>
      <contour>
        <pt x="443" y="1139" on="1"/>
        <pt x="443" y="1108" on="0"/>
        <pt x="461" y="1034" on="0"/>
        <pt x="492" y="958" on="0"/>
        <pt x="535" y="885" on="0"/>
        <pt x="560" y="855" on="1"/>
        <pt x="599" y="885" on="0"/>
        <pt x="656" y="962" on="0"/>
        <pt x="695" y="1044" on="0"/>
        <pt x="714" y="1123" on="0"/>
        <pt x="714" y="1155" on="1"/>
        <pt x="714" y="1230" on="0"/>
        <pt x="643" y="1322" on="0"/>
        <pt x="579" y="1322" on="1"/>
        <pt x="521" y="1322" on="0"/>
        <pt x="443" y="1229" on="0"/>
      </contour>
    </TTGlyph>
    <TTGlyph name="aogonek" xMin="61" yMin="-534" xMax="1040" yMax="1057">
      <contour>
        <pt x="946" y="0" on="1"/>
        <pt x="899" y="-21" on="0"/>
        <pt x="812" y="-79" on="0"/>
        <pt x="744" y="-148" on="0"/>
        <pt x="704" y="-225" on="0"/>
        <pt x="706" y="-266" on="1"/>
        <pt x="708" y="-303" on="0"/>
        <pt x="753" y="-348" on="0"/>
        <pt x="795" y="-348" on="1"/>
        <pt x="825" y="-348" on="0"/>
        <pt x="891" y="-318" on="0"/>
        <pt x="923" y="-289" on="1"/>
        <pt x="995" y="-377" on="1"/>
        <pt x="941" y="-449" on="0"/>
        <pt x="798" y="-534" on="0"/>
        <pt x="725" y="-534" on="1"/>
        <pt x="675" y="-534" on="0"/>
        <pt x="594" y="-507" on="0"/>
        <pt x="535" y="-455" on="0"/>
        <pt x="503" y="-376" on="0"/>
        <pt x="503" y="-323" on="1"/>
        <pt x="503" y="-277" on="0"/>
        <pt x="538" y="-188" on="0"/>
        <pt x="600" y="-105" on="0"/>
        <pt x="685" y="-32" on="0"/>
        <pt x="736" y="0" on="1"/>
        <pt x="653" y="0" on="1"/>
        <pt x="649" y="29" on="0"/>
        <pt x="647" y="68" on="0"/>
        <pt x="645" y="94" on="1"/>
        <pt x="643" y="94" on="1"/>
        <pt x="574" y="24" on="0"/>
        <pt x="421" y="-33" on="0"/>
        <pt x="340" y="-33" on="1"/>
        <pt x="274" y="-33" on="0"/>
        <pt x="170" y="8" on="0"/>
        <pt x="99" y="82" on="0"/>
        <pt x="61" y="181" on="0"/>
        <pt x="61" y="240" on="1"/>
        <pt x="61" y="337" on="0"/>
        <pt x="162" y="476" on="0"/>
        <pt x="325" y="566" on="0"/>
        <pt x="529" y="612" on="0"/>
        <pt x="632" y="616" on="1"/>
        <pt x="632" y="723" on="1"/>
        <pt x="632" y="763" on="0"/>
        <pt x="618" y="832" on="0"/>
        <pt x="584" y="883" on="0"/>
        <pt x="528" y="911" on="0"/>
        <pt x="486" y="910" on="1"/>
        <pt x="445" y="908" on="0"/>
        <pt x="372" y="878" on="0"/>
        <pt x="346" y="851" on="1"/>
        <pt x="362" y="834" on="0"/>
        <pt x="371" y="790" on="0"/>
        <pt x="371" y="775" on="1"/>
        <pt x="371" y="754" on="0"/>
        <pt x="355" y="708" on="0"/>
        <pt x="321" y="670" on="0"/>
        <pt x="269" y="646" on="0"/>
        <pt x="233" y="647" on="1"/>
        <pt x="172" y="649" on="0"/>
        <pt x="106" y="730" on="0"/>
        <pt x="106" y="787" on="1"/>
        <pt x="106" y="847" on="0"/>
        <pt x="173" y="947" on="0"/>
        <pt x="290" y="1018" on="0"/>
        <pt x="448" y="1057" on="0"/>
        <pt x="538" y="1057" on="1"/>
        <pt x="628" y="1057" on="0"/>
        <pt x="769" y="1011" on="0"/>
        <pt x="866" y="915" on="0"/>
        <pt x="917" y="767" on="0"/>
        <pt x="917" y="665" on="1"/>
        <pt x="917" y="613" on="0"/>
        <pt x="916" y="534" on="0"/>
        <pt x="916" y="461" on="0"/>
        <pt x="915" y="381" on="0"/>
        <pt x="915" y="329" on="1"/>
        <pt x="915" y="314" on="0"/>
        <pt x="914" y="272" on="0"/>
        <pt x="913" y="224" on="0"/>
        <pt x="910" y="173" on="0"/>
        <pt x="908" y="150" on="1"/>
        <pt x="924" y="151" on="0"/>
        <pt x="962" y="153" on="0"/>
        <pt x="998" y="154" on="0"/>
        <pt x="1029" y="156" on="0"/>
        <pt x="1040" y="156" on="1"/>
        <pt x="1040" y="0" on="1"/>
      </contour>
      <contour>
        <pt x="630" y="471" on="1"/>
        <pt x="573" y="465" on="0"/>
        <pt x="471" y="435" on="0"/>
        <pt x="395" y="386" on="0"/>
        <pt x="352" y="318" on="0"/>
        <pt x="353" y="274" on="1"/>
        <pt x="355" y="217" on="0"/>
        <pt x="424" y="167" on="0"/>
        <pt x="468" y="167" on="1"/>
        <pt x="516" y="167" on="0"/>
        <pt x="598" y="207" on="0"/>
        <pt x="630" y="242" on="1"/>
      </contour>
    </TTGlyph>
    <TTGlyph name="approxequal" xMin="131" yMin="251" xMax="1040" yMax="992">
      <contour>
        <pt x="383" y="781" on="1"/>
        <pt x="341" y="781" on="0"/>
        <pt x="273" y="768" on="0"/>
        <pt x="213" y="745" on="0"/>
        <pt x="159" y="715" on="0"/>
        <pt x="131" y="698" on="1"/>
        <pt x="131" y="901" on="1"/>
        <pt x="163" y="923" on="0"/>
        <pt x="222" y="957" on="0"/>
        <pt x="283" y="980" on="0"/>
        <pt x="350" y="992" on="0"/>
        <pt x="391" y="992" on="1"/>
        <pt x="446" y="992" on="0"/>
        <pt x="527" y="973" on="0"/>
        <pt x="591" y="944" on="0"/>
        <pt x="645" y="910" on="0"/>
        <pt x="700" y="881" on="0"/>
        <pt x="763" y="862" on="0"/>
        <pt x="805" y="862" on="1"/>
        <pt x="872" y="862" on="0"/>
        <pt x="991" y="907" on="0"/>
        <pt x="1040" y="944" on="1"/>
        <pt x="1040" y="742" on="1"/>
        <pt x="998" y="703" on="0"/>
        <pt x="877" y="652" on="0"/>
        <pt x="796" y="652" on="1"/>
        <pt x="745" y="652" on="0"/>
        <pt x="666" y="671" on="0"/>
        <pt x="602" y="700" on="0"/>
        <pt x="546" y="733" on="0"/>
        <pt x="488" y="762" on="0"/>
        <pt x="424" y="781" on="0"/>
      </contour>
      <contour>
        <pt x="383" y="380" on="1"/>
        <pt x="341" y="380" on="0"/>
        <pt x="273" y="367" on="0"/>
        <pt x="213" y="344" on="0"/>
        <pt x="159" y="314" on="0"/>
        <pt x="131" y="297" on="1"/>
        <pt x="131" y="500" on="1"/>
        <pt x="163" y="522" on="0"/>
        <pt x="222" y="556" on="0"/>
        <pt x="283" y="579" on="0"/>
        <pt x="350" y="591" on="0"/>
        <pt x="391" y="591" on="1"/>
        <pt x="446" y="591" on="0"/>
        <pt x="527" y="572" on="0"/>
        <pt x="591" y="543" on="0"/>
        <pt x="645" y="509" on="0"/>
        <pt x="700" y="480" on="0"/>
        <pt x="763" y="461" on="0"/>
        <pt x="805" y="461" on="1"/>
        <pt x="872" y="461" on="0"/>
        <pt x="991" y="506" on="0"/>
        <pt x="1040" y="543" on="1"/>
        <pt x="1040" y="341" on="1"/>
        <pt x="998" y="302" on="0"/>
        <pt x="877" y="251" on="0"/>
        <pt x="796" y="251" on="1"/>
        <pt x="745" y="251" on="0"/>
        <pt x="666" y="270" on="0"/>
        <pt x="602" y="299" on="0"/>
        <pt x="546" y="332" on="0"/>
        <pt x="488" y="361" on="0"/>
        <pt x="424" y="380" on="0"/>
      </contour>
    </TTGlyph>
    <TTGlyph name="aring" xMin="61" yMin="-33" xMax="1040" yMax="1628">
      <component glyphName="a" x="0" y="0" flags="0x204"/>
      <component glyphName="ring" x="158" y="0" flags="0x4"/>
    </TTGlyph>
    <TTGlyph name="asciicircum" xMin="123" yMin="894" xMax="1563" yMax="1467">
      <contour>
        <pt x="936" y="1467" on="1"/>
        <pt x="1563" y="894" on="1"/>
        <pt x="1282" y="894" on="1"/>
        <pt x="837" y="1316" on="1"/>
        <pt x="835" y="1316" on="1"/>
        <pt x="391" y="904" on="1"/>
        <pt x="123" y="904" on="1"/>
        <pt x="754" y="1467" on="1"/>
      </contour>
    </TTGlyph>
    <TTGlyph name="asciitilde" xMin="99" yMin="411" xMax="1009" yMax="817">
      <contour>
        <pt x="351" y="565" on="1"/>
        <pt x="309" y="565" on="0"/>
        <pt x="241" y="549" on="0"/>
        <pt x="181" y="522" on="0"/>
        <pt x="127" y="486" on="0"/>
        <pt x="99" y="466" on="1"/>
        <pt x="99" y="708" on="1"/>
        <pt x="131" y="734" on="0"/>
        <pt x="190" y="775" on="0"/>
        <pt x="251" y="803" on="0"/>
        <pt x="318" y="817" on="0"/>
        <pt x="359" y="817" on="1"/>
        <pt x="414" y="817" on="0"/>
        <pt x="496" y="794" on="0"/>
        <pt x="560" y="760" on="0"/>
        <pt x="613" y="719" on="0"/>
        <pt x="668" y="685" on="0"/>
        <pt x="731" y="662" on="0"/>
        <pt x="773" y="662" on="1"/>
        <pt x="841" y="662" on="0"/>
        <pt x="960" y="715" on="0"/>
        <pt x="1009" y="760" on="1"/>
        <pt x="1009" y="518" on="1"/>
        <pt x="967" y="470" on="0"/>
        <pt x="846" y="411" on="0"/>
        <pt x="765" y="411" on="1"/>
        <pt x="714" y="411" on="0"/>
        <pt x="635" y="434" on="0"/>
        <pt x="571" y="468" on="0"/>
        <pt x="515" y="508" on="0"/>
        <pt x="457" y="542" on="0"/>
        <pt x="392" y="565" on="0"/>
      </contour>
    </TTGlyph>
    <TTGlyph name="asterisk" xMin="88" yMin="585" xMax="1004" yMax="1467">
      <contour>
        <pt x="497" y="1060" on="1"/>
        <pt x="467" y="1151" on="0"/>
        <pt x="440" y="1278" on="0"/>
        <pt x="440" y="1320" on="1"/>
        <pt x="440" y="1347" on="0"/>
        <pt x="448" y="1399" on="0"/>
        <pt x="472" y="1441" on="0"/>
        <pt x="514" y="1467" on="0"/>
        <pt x="547" y="1467" on="1"/>
        <pt x="580" y="1467" on="0"/>
        <pt x="621" y="1441" on="0"/>
        <pt x="645" y="1399" on="0"/>
        <pt x="653" y="1347" on="0"/>
        <pt x="653" y="1320" on="1"/>
        <pt x="653" y="1277" on="0"/>
        <pt x="626" y="1151" on="0"/>
        <pt x="596" y="1060" on="1"/>
        <pt x="655" y="1103" on="0"/>
        <pt x="745" y="1160" on="0"/>
        <pt x="817" y="1194" on="0"/>
        <pt x="874" y="1208" on="0"/>
        <pt x="900" y="1208" on="1"/>
        <pt x="916" y="1208" on="0"/>
        <pt x="953" y="1197" on="0"/>
        <pt x="984" y="1173" on="0"/>
        <pt x="1004" y="1132" on="0"/>
        <pt x="1004" y="1102" on="1"/>
        <pt x="1004" y="1079" on="0"/>
        <pt x="985" y="1044" on="0"/>
        <pt x="954" y="1017" on="0"/>
        <pt x="913" y="997" on="0"/>
        <pt x="892" y="991" on="1"/>
        <pt x="848" y="977" on="0"/>
        <pt x="722" y="965" on="0"/>
        <pt x="626" y="965" on="1"/>
        <pt x="704" y="908" on="0"/>
        <pt x="800" y="823" on="0"/>
        <pt x="825" y="789" on="1"/>
        <pt x="843" y="764" on="0"/>
        <pt x="869" y="709" on="0"/>
        <pt x="869" y="683" on="1"/>
        <pt x="869" y="667" on="0"/>
        <pt x="853" y="633" on="0"/>
        <pt x="825" y="604" on="0"/>
        <pt x="787" y="585" on="0"/>
        <pt x="766" y="585" on="1"/>
        <pt x="731" y="585" on="0"/>
        <pt x="674" y="632" on="0"/>
        <pt x="653" y="662" on="1"/>
        <pt x="627" y="698" on="0"/>
        <pt x="575" y="816" on="0"/>
        <pt x="547" y="907" on="1"/>
        <pt x="517" y="815" on="0"/>
        <pt x="465" y="699" on="0"/>
        <pt x="439" y="664" on="1"/>
        <pt x="416" y="633" on="0"/>
        <pt x="361" y="585" on="0"/>
        <pt x="326" y="585" on="1"/>
        <pt x="305" y="585" on="0"/>
        <pt x="268" y="604" on="0"/>
        <pt x="240" y="632" on="0"/>
        <pt x="224" y="667" on="0"/>
        <pt x="224" y="683" on="1"/>
        <pt x="224" y="712" on="0"/>
        <pt x="249" y="771" on="0"/>
        <pt x="306" y="839" on="0"/>
        <pt x="398" y="917" on="0"/>
        <pt x="466" y="965" on="1"/>
        <pt x="368" y="965" on="0"/>
        <pt x="243" y="978" on="0"/>
        <pt x="201" y="992" on="1"/>
        <pt x="179" y="999" on="0"/>
        <pt x="138" y="1018" on="0"/>
        <pt x="107" y="1045" on="0"/>
        <pt x="88" y="1080" on="0"/>
        <pt x="88" y="1103" on="1"/>
        <pt x="88" y="1133" on="0"/>
        <pt x="107" y="1174" on="0"/>
        <pt x="137" y="1198" on="0"/>
        <pt x="173" y="1209" on="0"/>
        <pt x="190" y="1209" on="1"/>
        <pt x="217" y="1209" on="0"/>
        <pt x="276" y="1194" on="0"/>
        <pt x="349" y="1159" on="0"/>
        <pt x="439" y="1102" on="0"/>
      </contour>
    </TTGlyph>
    <TTGlyph name="at" xMin="97" yMin="-203" xMax="1528" yMax="1304">
      <contour>
        <pt x="717" y="297" on="1"/>
        <pt x="743" y="297" on="0"/>
        <pt x="796" y="352" on="0"/>
        <pt x="845" y="444" on="0"/>
        <pt x="888" y="563" on="0"/>
        <pt x="921" y="694" on="0"/>
        <pt x="943" y="826" on="0"/>
        <pt x="946" y="884" on="1"/>
        <pt x="920" y="892" on="0"/>
        <pt x="887" y="892" on="1"/>
        <pt x="848" y="892" on="0"/>
        <pt x="783" y="854" on="0"/>
        <pt x="731" y="789" on="0"/>
        <pt x="690" y="702" on="0"/>
        <pt x="662" y="603" on="0"/>
        <pt x="648" y="497" on="0"/>
        <pt x="648" y="446" on="1"/>
        <pt x="648" y="374" on="0"/>
        <pt x="685" y="297" on="0"/>
      </contour>
      <contour>
        <pt x="1416" y="57" on="1"/>
        <pt x="1295" y="-78" on="0"/>
        <pt x="994" y="-203" on="0"/>
        <pt x="825" y="-203" on="1"/>
        <pt x="704" y="-203" on="0"/>
        <pt x="502" y="-148" on="0"/>
        <pt x="341" y="-51" on="0"/>
        <pt x="219" y="85" on="0"/>
        <pt x="138" y="246" on="0"/>
        <pt x="97" y="429" on="0"/>
        <pt x="97" y="525" on="1"/>
        <pt x="97" y="612" on="0"/>
        <pt x="141" y="795" on="0"/>
        <pt x="228" y="968" on="0"/>
        <pt x="356" y="1122" on="0"/>
        <pt x="525" y="1237" on="0"/>
        <pt x="734" y="1304" on="0"/>
        <pt x="857" y="1304" on="1"/>
        <pt x="967" y="1304" on="0"/>
        <pt x="1153" y="1251" on="0"/>
        <pt x="1302" y="1158" on="0"/>
        <pt x="1415" y="1032" on="0"/>
        <pt x="1490" y="884" on="0"/>
        <pt x="1528" y="721" on="0"/>
        <pt x="1528" y="638" on="1"/>
        <pt x="1528" y="554" on="0"/>
        <pt x="1493" y="416" on="0"/>
        <pt x="1433" y="306" on="0"/>
        <pt x="1353" y="225" on="0"/>
        <pt x="1265" y="171" on="0"/>
        <pt x="1173" y="145" on="0"/>
        <pt x="1130" y="145" on="1"/>
        <pt x="1094" y="145" on="0"/>
        <pt x="1020" y="163" on="0"/>
        <pt x="960" y="212" on="0"/>
        <pt x="923" y="299" on="0"/>
        <pt x="923" y="369" on="1"/>
        <pt x="923" y="379" on="0"/>
        <pt x="924" y="399" on="0"/>
        <pt x="925" y="410" on="1"/>
        <pt x="897" y="341" on="0"/>
        <pt x="833" y="244" on="0"/>
        <pt x="765" y="183" on="0"/>
        <pt x="695" y="156" on="0"/>
        <pt x="662" y="156" on="1"/>
        <pt x="619" y="156" on="0"/>
        <pt x="540" y="190" on="0"/>
        <pt x="480" y="262" on="0"/>
        <pt x="444" y="374" on="0"/>
        <pt x="444" y="453" on="1"/>
        <pt x="444" y="553" on="0"/>
        <pt x="505" y="746" on="0"/>
        <pt x="624" y="899" on="0"/>
        <pt x="800" y="993" on="0"/>
        <pt x="915" y="993" on="1"/>
        <pt x="960" y="993" on="0"/>
        <pt x="1091" y="972" on="0"/>
        <pt x="1160" y="950" on="1"/>
        <pt x="1154" y="904" on="0"/>
        <pt x="1140" y="796" on="0"/>
        <pt x="1125" y="684" on="0"/>
        <pt x="1111" y="572" on="0"/>
        <pt x="1100" y="473" on="0"/>
        <pt x="1094" y="391" on="0"/>
        <pt x="1094" y="365" on="1"/>
        <pt x="1094" y="342" on="0"/>
        <pt x="1101" y="299" on="0"/>
        <pt x="1119" y="265" on="0"/>
        <pt x="1148" y="244" on="0"/>
        <pt x="1169" y="244" on="1"/>
        <pt x="1209" y="244" on="0"/>
        <pt x="1272" y="283" on="0"/>
        <pt x="1318" y="347" on="0"/>
        <pt x="1350" y="430" on="0"/>
        <pt x="1370" y="517" on="0"/>
        <pt x="1378" y="603" on="0"/>
        <pt x="1378" y="639" on="1"/>
        <pt x="1378" y="779" on="0"/>
        <pt x="1296" y="994" on="0"/>
        <pt x="1153" y="1141" on="0"/>
        <pt x="958" y="1216" on="0"/>
        <pt x="845" y="1216" on="1"/>
        <pt x="757" y="1216" on="0"/>
        <pt x="602" y="1164" on="0"/>
        <pt x="472" y="1072" on="0"/>
        <pt x="368" y="944" on="0"/>
        <pt x="296" y="794" on="0"/>
        <pt x="258" y="625" on="0"/>
        <pt x="258" y="537" on="1"/>
        <pt x="258" y="382" on="0"/>
        <pt x="356" y="143" on="0"/>
        <pt x="524" y="-19" on="0"/>
        <pt x="749" y="-103" on="0"/>
        <pt x="875" y="-103" on="1"/>
        <pt x="937" y="-103" on="0"/>
        <pt x="1071" y="-76" on="0"/>
        <pt x="1201" y="-23" on="0"/>
        <pt x="1321" y="58" on="0"/>
        <pt x="1370" y="112" on="1"/>
      </contour>
    </TTGlyph>
    <TTGlyph name="atilde" xMin="61" yMin="-33" xMax="1040" yMax="1542">
      <component glyphName="a" x="0" y="0" flags="0x204"/>
      <component glyphName="tilde" x="74" y="0" flags="0x4"/>
    </TTGlyph>
    <TTGlyph name="b" xMin="-8" yMin="-33" xMax="1107" yMax="1546">
      <contour>
        <pt x="128" y="1157" on="1"/>
        <pt x="128" y="1194" on="0"/>
        <pt x="131" y="1290" on="0"/>
        <pt x="136" y="1336" on="1"/>
        <pt x="-8" y="1330" on="1"/>
        <pt x="-8" y="1485" on="1"/>
        <pt x="63" y="1485" on="0"/>
        <pt x="172" y="1497" on="0"/>
        <pt x="249" y="1515" on="0"/>
        <pt x="296" y="1536" on="0"/>
        <pt x="307" y="1546" on="1"/>
        <pt x="418" y="1546" on="1"/>
        <pt x="418" y="947" on="1"/>
        <pt x="487" y="1009" on="0"/>
        <pt x="630" y="1057" on="0"/>
        <pt x="694" y="1057" on="1"/>
        <pt x="786" y="1057" on="0"/>
        <pt x="938" y="984" on="0"/>
        <pt x="1047" y="849" on="0"/>
        <pt x="1107" y="657" on="0"/>
        <pt x="1107" y="538" on="1"/>
        <pt x="1107" y="414" on="0"/>
        <pt x="1039" y="205" on="0"/>
        <pt x="910" y="53" on="0"/>
        <pt x="726" y="-33" on="0"/>
        <pt x="610" y="-33" on="1"/>
        <pt x="582" y="-33" on="0"/>
        <pt x="510" y="-24" on="0"/>
        <pt x="430" y="3" on="0"/>
        <pt x="349" y="52" on="0"/>
        <pt x="313" y="91" on="1"/>
        <pt x="311" y="91" on="1"/>
        <pt x="252" y="0" on="1"/>
        <pt x="128" y="0" on="1"/>
      </contour>
      <contour>
        <pt x="583" y="872" on="1"/>
        <pt x="532" y="870" on="0"/>
        <pt x="445" y="823" on="0"/>
        <pt x="418" y="785" on="1"/>
        <pt x="418" y="307" on="1"/>
        <pt x="418" y="253" on="0"/>
        <pt x="446" y="180" on="0"/>
        <pt x="491" y="136" on="0"/>
        <pt x="547" y="117" on="0"/>
        <pt x="575" y="117" on="1"/>
        <pt x="642" y="117" on="0"/>
        <pt x="731" y="183" on="0"/>
        <pt x="785" y="292" on="0"/>
        <pt x="807" y="432" on="0"/>
        <pt x="807" y="507" on="1"/>
        <pt x="807" y="579" on="0"/>
        <pt x="781" y="711" on="0"/>
        <pt x="727" y="812" on="0"/>
        <pt x="642" y="872" on="0"/>
      </contour>
    </TTGlyph>
    <TTGlyph name="backslash" xMin="51" yMin="-555" xMax="1380" yMax="1547">
      <component glyphName="slash" x="1432" y="0" scalex="-0.999938964844" scaley="1.0" flags="0x4"/>
    </TTGlyph>
    <TTGlyph name="bar" xMin="124" yMin="-555" xMax="407" yMax="1556">
      <contour>
        <pt x="407" y="1556" on="1"/>
        <pt x="399" y="-555" on="1"/>
        <pt x="130" y="-555" on="1"/>
        <pt x="124" y="1556" on="1"/>
      </contour>
    </TTGlyph>
    <TTGlyph name="braceleft" xMin="-6" yMin="-555" xMax="739" yMax="1556">
      <contour>
        <pt x="172" y="537" on="1"/>
        <pt x="246" y="528" on="0"/>
        <pt x="372" y="471" on="0"/>
        <pt x="465" y="380" on="0"/>
        <pt x="517" y="256" on="0"/>
        <pt x="517" y="181" on="1"/>
        <pt x="517" y="142" on="0"/>
        <pt x="510" y="51" on="0"/>
        <pt x="501" y="-39" on="0"/>
        <pt x="494" y="-118" on="0"/>
        <pt x="494" y="-145" on="1"/>
        <pt x="494" y="-228" on="0"/>
        <pt x="519" y="-332" on="0"/>
        <pt x="572" y="-390" on="0"/>
        <pt x="654" y="-411" on="0"/>
        <pt x="711" y="-411" on="1"/>
        <pt x="718" y="-411" on="0"/>
        <pt x="731" y="-410" on="0"/>
        <pt x="739" y="-410" on="1"/>
        <pt x="739" y="-555" on="1"/>
        <pt x="682" y="-555" on="1"/>
        <pt x="449" y="-555" on="0"/>
        <pt x="217" y="-333" on="0"/>
        <pt x="217" y="-117" on="1"/>
        <pt x="217" y="-72" on="0"/>
        <pt x="224" y="33" on="0"/>
        <pt x="231" y="139" on="0"/>
        <pt x="238" y="239" on="0"/>
        <pt x="238" y="279" on="1"/>
        <pt x="238" y="331" on="0"/>
        <pt x="219" y="403" on="0"/>
        <pt x="174" y="447" on="0"/>
        <pt x="98" y="466" on="0"/>
        <pt x="41" y="466" on="1"/>
        <pt x="-6" y="466" on="1"/>
        <pt x="-6" y="612" on="1"/>
        <pt x="41" y="612" on="1"/>
        <pt x="98" y="612" on="0"/>
        <pt x="174" y="629" on="0"/>
        <pt x="219" y="669" on="0"/>
        <pt x="238" y="738" on="0"/>
        <pt x="238" y="791" on="1"/>
        <pt x="238" y="872" on="0"/>
        <pt x="217" y="1043" on="0"/>
        <pt x="217" y="1134" on="1"/>
        <pt x="217" y="1351" on="0"/>
        <pt x="449" y="1556" on="0"/>
        <pt x="682" y="1556" on="1"/>
        <pt x="739" y="1556" on="1"/>
        <pt x="739" y="1412" on="1"/>
        <pt x="726" y="1413" on="0"/>
        <pt x="703" y="1413" on="0"/>
        <pt x="692" y="1413" on="1"/>
        <pt x="640" y="1413" on="0"/>
        <pt x="565" y="1394" on="0"/>
        <pt x="517" y="1339" on="0"/>
        <pt x="494" y="1241" on="0"/>
        <pt x="494" y="1163" on="1"/>
        <pt x="494" y="1136" on="0"/>
        <pt x="501" y="1070" on="0"/>
        <pt x="509" y="997" on="0"/>
        <pt x="516" y="922" on="0"/>
        <pt x="516" y="887" on="1"/>
        <pt x="516" y="812" on="0"/>
        <pt x="465" y="691" on="0"/>
        <pt x="373" y="602" on="0"/>
        <pt x="247" y="548" on="0"/>
        <pt x="172" y="541" on="1"/>
      </contour>
    </TTGlyph>
    <TTGlyph name="braceright" xMin="15" yMin="-555" xMax="760" yMax="1556">
      <contour>
        <pt x="582" y="541" on="1"/>
        <pt x="507" y="548" on="0"/>
        <pt x="381" y="602" on="0"/>
        <pt x="289" y="691" on="0"/>
        <pt x="238" y="812" on="0"/>
        <pt x="238" y="887" on="1"/>
        <pt x="238" y="922" on="0"/>
        <pt x="245" y="997" on="0"/>
        <pt x="253" y="1070" on="0"/>
        <pt x="260" y="1136" on="0"/>
        <pt x="260" y="1163" on="1"/>
        <pt x="260" y="1241" on="0"/>
        <pt x="237" y="1339" on="0"/>
        <pt x="189" y="1394" on="0"/>
        <pt x="114" y="1413" on="0"/>
        <pt x="62" y="1413" on="1"/>
        <pt x="51" y="1413" on="0"/>
        <pt x="28" y="1413" on="0"/>
        <pt x="15" y="1412" on="1"/>
        <pt x="15" y="1556" on="1"/>
        <pt x="72" y="1556" on="1"/>
        <pt x="305" y="1556" on="0"/>
        <pt x="537" y="1351" on="0"/>
        <pt x="537" y="1134" on="1"/>
        <pt x="537" y="1043" on="0"/>
        <pt x="516" y="872" on="0"/>
        <pt x="516" y="791" on="1"/>
        <pt x="516" y="738" on="0"/>
        <pt x="535" y="669" on="0"/>
        <pt x="580" y="629" on="0"/>
        <pt x="656" y="612" on="0"/>
        <pt x="713" y="612" on="1"/>
        <pt x="760" y="612" on="1"/>
        <pt x="760" y="466" on="1"/>
        <pt x="713" y="466" on="1"/>
        <pt x="656" y="466" on="0"/>
        <pt x="580" y="447" on="0"/>
        <pt x="535" y="403" on="0"/>
        <pt x="516" y="331" on="0"/>
        <pt x="516" y="279" on="1"/>
        <pt x="516" y="239" on="0"/>
        <pt x="523" y="139" on="0"/>
        <pt x="530" y="33" on="0"/>
        <pt x="537" y="-72" on="0"/>
        <pt x="537" y="-117" on="1"/>
        <pt x="537" y="-333" on="0"/>
        <pt x="305" y="-555" on="0"/>
        <pt x="72" y="-555" on="1"/>
        <pt x="15" y="-555" on="1"/>
        <pt x="15" y="-410" on="1"/>
        <pt x="23" y="-410" on="0"/>
        <pt x="36" y="-411" on="0"/>
        <pt x="43" y="-411" on="1"/>
        <pt x="100" y="-411" on="0"/>
        <pt x="182" y="-390" on="0"/>
        <pt x="235" y="-332" on="0"/>
        <pt x="260" y="-228" on="0"/>
        <pt x="260" y="-145" on="1"/>
        <pt x="260" y="-118" on="0"/>
        <pt x="253" y="-39" on="0"/>
        <pt x="244" y="51" on="0"/>
        <pt x="237" y="142" on="0"/>
        <pt x="237" y="181" on="1"/>
        <pt x="237" y="256" on="0"/>
        <pt x="289" y="380" on="0"/>
        <pt x="382" y="471" on="0"/>
        <pt x="508" y="528" on="0"/>
        <pt x="582" y="537" on="1"/>
      </contour>
    </TTGlyph>
    <TTGlyph name="bracketleft" xMin="127" yMin="-522" xMax="788" yMax="1546">
      <contour>
        <pt x="129" y="1546" on="1"/>
        <pt x="784" y="1546" on="1"/>
        <pt x="784" y="1401" on="1"/>
        <pt x="394" y="1395" on="1"/>
        <pt x="385" y="-371" on="1"/>
        <pt x="788" y="-377" on="1"/>
        <pt x="788" y="-522" on="1"/>
        <pt x="127" y="-522" on="1"/>
      </contour>
    </TTGlyph>
    <TTGlyph name="bracketright" xMin="3" yMin="-522" xMax="664" yMax="1546">
      <contour>
        <pt x="662" y="-522" on="1"/>
        <pt x="7" y="-522" on="1"/>
        <pt x="7" y="-377" on="1"/>
        <pt x="397" y="-371" on="1"/>
        <pt x="406" y="1395" on="1"/>
        <pt x="3" y="1401" on="1"/>
        <pt x="3" y="1546" on="1"/>
        <pt x="664" y="1546" on="1"/>
      </contour>
    </TTGlyph>
    <TTGlyph name="breve" xMin="90" yMin="1229" xMax="737" yMax="1564">
      <contour>
        <pt x="410" y="1229" on="1"/>
        <pt x="367" y="1229" on="0"/>
        <pt x="274" y="1257" on="0"/>
        <pt x="188" y="1320" on="0"/>
        <pt x="114" y="1421" on="0"/>
        <pt x="90" y="1495" on="1"/>
        <pt x="224" y="1563" on="1"/>
        <pt x="240" y="1534" on="0"/>
        <pt x="277" y="1482" on="0"/>
        <pt x="324" y="1442" on="0"/>
        <pt x="382" y="1418" on="0"/>
        <pt x="418" y="1418" on="1"/>
        <pt x="454" y="1418" on="0"/>
        <pt x="510" y="1443" on="0"/>
        <pt x="555" y="1483" on="0"/>
        <pt x="590" y="1536" on="0"/>
        <pt x="605" y="1564" on="1"/>
        <pt x="737" y="1505" on="1"/>
        <pt x="710" y="1430" on="0"/>
        <pt x="640" y="1325" on="0"/>
        <pt x="557" y="1259" on="0"/>
        <pt x="462" y="1229" on="0"/>
      </contour>
    </TTGlyph>
    <TTGlyph name="brokenbar" xMin="138" yMin="-555" xMax="369" yMax="1557">
      <contour>
        <pt x="369" y="1557" on="1"/>
        <pt x="361" y="767" on="1"/>
        <pt x="144" y="767" on="1"/>
        <pt x="138" y="1557" on="1"/>
      </contour>
      <contour>
        <pt x="369" y="231" on="1"/>
        <pt x="361" y="-555" on="1"/>
        <pt x="144" y="-555" on="1"/>
        <pt x="138" y="231" on="1"/>
      </contour>
    </TTGlyph>
    <TTGlyph name="bullet" xMin="64" yMin="422" xMax="718" yMax="1065">
      <contour>
        <pt x="64" y="743" on="1"/>
        <pt x="64" y="810" on="0"/>
        <pt x="115" y="928" on="0"/>
        <pt x="203" y="1015" on="0"/>
        <pt x="322" y="1065" on="0"/>
        <pt x="390" y="1065" on="1"/>
        <pt x="457" y="1065" on="0"/>
        <pt x="576" y="1015" on="0"/>
        <pt x="666" y="928" on="0"/>
        <pt x="718" y="810" on="0"/>
        <pt x="718" y="743" on="1"/>
        <pt x="718" y="675" on="0"/>
        <pt x="666" y="558" on="0"/>
        <pt x="576" y="472" on="0"/>
        <pt x="457" y="422" on="0"/>
        <pt x="390" y="422" on="1"/>
        <pt x="322" y="422" on="0"/>
        <pt x="203" y="472" on="0"/>
        <pt x="115" y="558" on="0"/>
        <pt x="64" y="675" on="0"/>
      </contour>
    </TTGlyph>
    <TTGlyph name="c" xMin="63" yMin="-33" xMax="1035" yMax="1057">
      <contour>
        <pt x="713" y="756" on="1"/>
        <pt x="713" y="774" on="0"/>
        <pt x="725" y="825" on="0"/>
        <pt x="738" y="845" on="1"/>
        <pt x="727" y="865" on="0"/>
        <pt x="692" y="891" on="0"/>
        <pt x="653" y="907" on="0"/>
        <pt x="614" y="913" on="0"/>
        <pt x="599" y="913" on="1"/>
        <pt x="547" y="913" on="0"/>
        <pt x="461" y="866" on="0"/>
        <pt x="398" y="773" on="0"/>
        <pt x="363" y="637" on="0"/>
        <pt x="363" y="548" on="1"/>
        <pt x="363" y="470" on="0"/>
        <pt x="392" y="326" on="0"/>
        <pt x="458" y="216" on="0"/>
        <pt x="566" y="150" on="0"/>
        <pt x="645" y="150" on="1"/>
        <pt x="686" y="150" on="0"/>
        <pt x="769" y="173" on="0"/>
        <pt x="845" y="214" on="0"/>
        <pt x="914" y="272" on="0"/>
        <pt x="941" y="307" on="1"/>
        <pt x="1035" y="216" on="1"/>
        <pt x="979" y="139" on="0"/>
        <pt x="861" y="42" on="0"/>
        <pt x="741" y="-13" on="0"/>
        <pt x="623" y="-33" on="0"/>
        <pt x="567" y="-33" on="1"/>
        <pt x="463" y="-33" on="0"/>
        <pt x="280" y="37" on="0"/>
        <pt x="143" y="171" on="0"/>
        <pt x="63" y="365" on="0"/>
        <pt x="63" y="490" on="1"/>
        <pt x="63" y="605" on="0"/>
        <pt x="141" y="812" on="0"/>
        <pt x="281" y="966" on="0"/>
        <pt x="477" y="1057" on="0"/>
        <pt x="596" y="1057" on="1"/>
        <pt x="693" y="1057" on="0"/>
        <pt x="841" y="1009" on="0"/>
        <pt x="940" y="931" on="0"/>
        <pt x="990" y="830" on="0"/>
        <pt x="990" y="776" on="1"/>
        <pt x="990" y="745" on="0"/>
        <pt x="971" y="689" on="0"/>
        <pt x="934" y="647" on="0"/>
        <pt x="880" y="623" on="0"/>
        <pt x="846" y="623" on="1"/>
        <pt x="808" y="623" on="0"/>
        <pt x="758" y="649" on="0"/>
        <pt x="726" y="688" on="0"/>
        <pt x="713" y="735" on="0"/>
      </contour>
    </TTGlyph>
    <TTGlyph name="cacute" xMin="63" yMin="-33" xMax="1035" yMax="1602">
      <component glyphName="c" x="0" y="0" flags="0x0"/>
      <component glyphName="acute" x="380" y="0" flags="0x0"/>
    </TTGlyph>
    <TTGlyph name="caron" xMin="90" yMin="1167" xMax="779" yMax="1619">
      <contour>
        <pt x="444" y="1167" on="1"/>
        <pt x="423" y="1167" on="1"/>
        <pt x="90" y="1514" on="1"/>
        <pt x="178" y="1619" on="1"/>
        <pt x="443" y="1404" on="1"/>
        <pt x="445" y="1404" on="1"/>
        <pt x="693" y="1619" on="1"/>
        <pt x="779" y="1521" on="1"/>
      </contour>
    </TTGlyph>
    <TTGlyph name="ccaron" xMin="64" yMin="-33" xMax="1036" yMax="1619">
      <component glyphName="c" x="1" y="0" flags="0x0"/>
      <component glyphName="caron" x="188" y="0" flags="0x0"/>
    </TTGlyph>
    <TTGlyph name="ccedilla" xMin="65" yMin="-530" xMax="1037" yMax="1057">
      <contour>
        <pt x="642" y="-109" on="1"/>
        <pt x="673" y="-110" on="0"/>
        <pt x="728" y="-127" on="0"/>
        <pt x="768" y="-162" on="0"/>
        <pt x="791" y="-215" on="0"/>
        <pt x="791" y="-252" on="1"/>
        <pt x="791" y="-300" on="0"/>
        <pt x="744" y="-375" on="0"/>
        <pt x="667" y="-433" on="0"/>
        <pt x="568" y="-476" on="0"/>
        <pt x="465" y="-506" on="0"/>
        <pt x="365" y="-525" on="0"/>
        <pt x="326" y="-530" on="1"/>
        <pt x="310" y="-424" on="1"/>
        <pt x="326" y="-421" on="0"/>
        <pt x="375" y="-411" on="0"/>
        <pt x="430" y="-396" on="0"/>
        <pt x="485" y="-376" on="0"/>
        <pt x="529" y="-349" on="0"/>
        <pt x="556" y="-315" on="0"/>
        <pt x="556" y="-294" on="1"/>
        <pt x="556" y="-267" on="0"/>
        <pt x="522" y="-245" on="0"/>
        <pt x="499" y="-245" on="1"/>
        <pt x="476" y="-245" on="0"/>
        <pt x="431" y="-261" on="0"/>
        <pt x="417" y="-272" on="1"/>
        <pt x="341" y="-240" on="1"/>
        <pt x="398" y="-5" on="1"/>
        <pt x="325" y="18" on="0"/>
        <pt x="203" y="105" on="0"/>
        <pt x="114" y="231" on="0"/>
        <pt x="65" y="393" on="0"/>
        <pt x="65" y="490" on="1"/>
        <pt x="65" y="605" on="0"/>
        <pt x="143" y="812" on="0"/>
        <pt x="283" y="966" on="0"/>
        <pt x="479" y="1057" on="0"/>
        <pt x="598" y="1057" on="1"/>
        <pt x="695" y="1057" on="0"/>
        <pt x="843" y="1009" on="0"/>
        <pt x="942" y="931" on="0"/>
        <pt x="992" y="830" on="0"/>
        <pt x="992" y="776" on="1"/>
        <pt x="992" y="745" on="0"/>
        <pt x="973" y="689" on="0"/>
        <pt x="936" y="647" on="0"/>
        <pt x="882" y="623" on="0"/>
        <pt x="848" y="623" on="1"/>
        <pt x="810" y="623" on="0"/>
        <pt x="760" y="649" on="0"/>
        <pt x="728" y="688" on="0"/>
        <pt x="715" y="735" on="0"/>
        <pt x="715" y="756" on="1"/>
        <pt x="715" y="774" on="0"/>
        <pt x="727" y="825" on="0"/>
        <pt x="740" y="845" on="1"/>
        <pt x="729" y="865" on="0"/>
        <pt x="694" y="891" on="0"/>
        <pt x="655" y="907" on="0"/>
        <pt x="616" y="913" on="0"/>
        <pt x="601" y="913" on="1"/>
        <pt x="549" y="913" on="0"/>
        <pt x="463" y="866" on="0"/>
        <pt x="400" y="773" on="0"/>
        <pt x="365" y="637" on="0"/>
        <pt x="365" y="548" on="1"/>
        <pt x="365" y="470" on="0"/>
        <pt x="394" y="326" on="0"/>
        <pt x="460" y="216" on="0"/>
        <pt x="568" y="150" on="0"/>
        <pt x="647" y="150" on="1"/>
        <pt x="688" y="150" on="0"/>
        <pt x="771" y="173" on="0"/>
        <pt x="847" y="214" on="0"/>
        <pt x="916" y="272" on="0"/>
        <pt x="943" y="307" on="1"/>
        <pt x="1037" y="216" on="1"/>
        <pt x="981" y="139" on="0"/>
        <pt x="862" y="42" on="0"/>
        <pt x="743" y="-12" on="0"/>
        <pt x="625" y="-32" on="0"/>
        <pt x="569" y="-32" on="1"/>
        <pt x="561" y="-32" on="0"/>
        <pt x="548" y="-31" on="0"/>
        <pt x="541" y="-31" on="1"/>
        <pt x="500" y="-141" on="1"/>
        <pt x="502" y="-141" on="1"/>
        <pt x="515" y="-134" on="0"/>
        <pt x="551" y="-122" on="0"/>
        <pt x="590" y="-114" on="0"/>
        <pt x="627" y="-109" on="0"/>
      </contour>
    </TTGlyph>
    <TTGlyph name="cedilla" xMin="92" yMin="-530" xMax="573" yMax="20">
      <contour>
        <pt x="424" y="-109" on="1"/>
        <pt x="455" y="-110" on="0"/>
        <pt x="510" y="-127" on="0"/>
        <pt x="550" y="-162" on="0"/>
        <pt x="573" y="-215" on="0"/>
        <pt x="573" y="-252" on="1"/>
        <pt x="573" y="-300" on="0"/>
        <pt x="526" y="-375" on="0"/>
        <pt x="449" y="-433" on="0"/>
        <pt x="350" y="-476" on="0"/>
        <pt x="247" y="-506" on="0"/>
        <pt x="147" y="-525" on="0"/>
        <pt x="108" y="-530" on="1"/>
        <pt x="92" y="-424" on="1"/>
        <pt x="108" y="-421" on="0"/>
        <pt x="157" y="-411" on="0"/>
        <pt x="212" y="-396" on="0"/>
        <pt x="267" y="-376" on="0"/>
        <pt x="311" y="-349" on="0"/>
        <pt x="338" y="-315" on="0"/>
        <pt x="338" y="-294" on="1"/>
        <pt x="338" y="-267" on="0"/>
        <pt x="304" y="-245" on="0"/>
        <pt x="281" y="-245" on="1"/>
        <pt x="258" y="-245" on="0"/>
        <pt x="213" y="-261" on="0"/>
        <pt x="199" y="-272" on="1"/>
        <pt x="123" y="-240" on="1"/>
        <pt x="186" y="20" on="1"/>
        <pt x="342" y="20" on="1"/>
        <pt x="282" y="-141" on="1"/>
        <pt x="284" y="-141" on="1"/>
        <pt x="297" y="-134" on="0"/>
        <pt x="333" y="-122" on="0"/>
        <pt x="372" y="-114" on="0"/>
        <pt x="409" y="-109" on="0"/>
      </contour>
    </TTGlyph>
    <TTGlyph name="cent" xMin="104" yMin="-280" xMax="1076" yMax="1282">
      <contour>
        <pt x="754" y="756" on="1"/>
        <pt x="754" y="774" on="0"/>
        <pt x="766" y="825" on="0"/>
        <pt x="779" y="845" on="1"/>
        <pt x="768" y="865" on="0"/>
        <pt x="733" y="891" on="0"/>
        <pt x="694" y="907" on="0"/>
        <pt x="655" y="913" on="0"/>
        <pt x="640" y="913" on="1"/>
        <pt x="588" y="913" on="0"/>
        <pt x="502" y="866" on="0"/>
        <pt x="439" y="773" on="0"/>
        <pt x="404" y="637" on="0"/>
        <pt x="404" y="548" on="1"/>
        <pt x="404" y="470" on="0"/>
        <pt x="433" y="326" on="0"/>
        <pt x="499" y="216" on="0"/>
        <pt x="607" y="150" on="0"/>
        <pt x="686" y="150" on="1"/>
        <pt x="727" y="150" on="0"/>
        <pt x="810" y="173" on="0"/>
        <pt x="886" y="214" on="0"/>
        <pt x="955" y="272" on="0"/>
        <pt x="982" y="307" on="1"/>
        <pt x="1076" y="216" on="1"/>
        <pt x="1031" y="154" on="0"/>
        <pt x="937" y="67" on="0"/>
        <pt x="841" y="10" on="0"/>
        <pt x="745" y="-20" on="0"/>
        <pt x="698" y="-26" on="1"/>
        <pt x="697" y="-280" on="1"/>
        <pt x="528" y="-280" on="1"/>
        <pt x="527" y="-26" on="1"/>
        <pt x="437" y="-14" on="0"/>
        <pt x="283" y="66" on="0"/>
        <pt x="169" y="198" on="0"/>
        <pt x="104" y="378" on="0"/>
        <pt x="104" y="490" on="1"/>
        <pt x="104" y="592" on="0"/>
        <pt x="165" y="777" on="0"/>
        <pt x="277" y="926" on="0"/>
        <pt x="435" y="1028" on="0"/>
        <pt x="532" y="1047" on="1"/>
        <pt x="531" y="1282" on="1"/>
        <pt x="712" y="1282" on="1"/>
        <pt x="710" y="1053" on="1"/>
        <pt x="790" y="1044" on="0"/>
        <pt x="910" y="992" on="0"/>
        <pt x="991" y="917" on="0"/>
        <pt x="1031" y="825" on="0"/>
        <pt x="1031" y="776" on="1"/>
        <pt x="1031" y="745" on="0"/>
        <pt x="1012" y="689" on="0"/>
        <pt x="975" y="647" on="0"/>
        <pt x="921" y="623" on="0"/>
        <pt x="887" y="623" on="1"/>
        <pt x="849" y="623" on="0"/>
        <pt x="799" y="649" on="0"/>
        <pt x="767" y="688" on="0"/>
        <pt x="754" y="735" on="0"/>
      </contour>
    </TTGlyph>
    <TTGlyph name="circumflex" xMin="90" yMin="1151" xMax="789" yMax="1603">
      <contour>
        <pt x="440" y="1603" on="1"/>
        <pt x="461" y="1603" on="1"/>
        <pt x="789" y="1256" on="1"/>
        <pt x="701" y="1151" on="1"/>
        <pt x="440" y="1365" on="1"/>
        <pt x="438" y="1365" on="1"/>
        <pt x="176" y="1166" on="1"/>
        <pt x="90" y="1264" on="1"/>
      </contour>
    </TTGlyph>
    <TTGlyph name="colon" xMin="105" yMin="-33" xMax="402" yMax="1112">
      <contour>
        <pt x="402" y="126" on="1"/>
        <pt x="402" y="93" on="0"/>
        <pt x="381" y="35" on="0"/>
        <pt x="344" y="-8" on="0"/>
        <pt x="290" y="-33" on="0"/>
        <pt x="257" y="-33" on="1"/>
        <pt x="223" y="-33" on="0"/>
        <pt x="167" y="-8" on="0"/>
        <pt x="127" y="35" on="0"/>
        <pt x="105" y="93" on="0"/>
        <pt x="105" y="126" on="1"/>
        <pt x="105" y="159" on="0"/>
        <pt x="129" y="218" on="0"/>
        <pt x="170" y="262" on="0"/>
        <pt x="224" y="287" on="0"/>
        <pt x="254" y="287" on="1"/>
        <pt x="286" y="287" on="0"/>
        <pt x="340" y="262" on="0"/>
        <pt x="380" y="218" on="0"/>
        <pt x="402" y="159" on="0"/>
      </contour>
      <contour>
        <pt x="402" y="951" on="1"/>
        <pt x="402" y="918" on="0"/>
        <pt x="381" y="860" on="0"/>
        <pt x="344" y="817" on="0"/>
        <pt x="290" y="792" on="0"/>
        <pt x="257" y="792" on="1"/>
        <pt x="223" y="792" on="0"/>
        <pt x="167" y="817" on="0"/>
        <pt x="127" y="860" on="0"/>
        <pt x="105" y="918" on="0"/>
        <pt x="105" y="951" on="1"/>
        <pt x="105" y="984" on="0"/>
        <pt x="129" y="1043" on="0"/>
        <pt x="170" y="1087" on="0"/>
        <pt x="224" y="1112" on="0"/>
        <pt x="254" y="1112" on="1"/>
        <pt x="286" y="1112" on="0"/>
        <pt x="340" y="1087" on="0"/>
        <pt x="380" y="1043" on="0"/>
        <pt x="402" y="984" on="0"/>
      </contour>
    </TTGlyph>
    <TTGlyph name="comma" xMin="90" yMin="-382" xMax="425" yMax="281">
      <contour>
        <pt x="425" y="65" on="1"/>
        <pt x="425" y="-35" on="0"/>
        <pt x="334" y="-264" on="0"/>
        <pt x="237" y="-382" on="1"/>
        <pt x="158" y="-325" on="1"/>
        <pt x="174" y="-304" on="0"/>
        <pt x="215" y="-232" on="0"/>
        <pt x="251" y="-144" on="0"/>
        <pt x="275" y="-47" on="0"/>
        <pt x="275" y="-2" on="1"/>
        <pt x="260" y="-7" on="0"/>
        <pt x="242" y="-9" on="0"/>
        <pt x="231" y="-9" on="1"/>
        <pt x="204" y="-9" on="0"/>
        <pt x="153" y="7" on="0"/>
        <pt x="114" y="40" on="0"/>
        <pt x="90" y="91" on="0"/>
        <pt x="90" y="127" on="1"/>
        <pt x="90" y="158" on="0"/>
        <pt x="112" y="214" on="0"/>
        <pt x="152" y="256" on="0"/>
        <pt x="208" y="281" on="0"/>
        <pt x="243" y="281" on="1"/>
        <pt x="289" y="281" on="0"/>
        <pt x="357" y="248" on="0"/>
        <pt x="402" y="189" on="0"/>
        <pt x="425" y="110" on="0"/>
      </contour>
    </TTGlyph>
    <TTGlyph name="commaaccentcomb" xMin="138" yMin="-582" xMax="452" yMax="-73">
      <contour>
        <pt x="409" y="-73" on="1"/>
        <pt x="431" y="-109" on="0"/>
        <pt x="452" y="-185" on="0"/>
        <pt x="452" y="-221" on="1"/>
        <pt x="452" y="-266" on="0"/>
        <pt x="422" y="-360" on="0"/>
        <pt x="369" y="-452" on="0"/>
        <pt x="295" y="-541" on="0"/>
        <pt x="250" y="-582" on="1"/>
        <pt x="138" y="-499" on="1"/>
        <pt x="178" y="-431" on="0"/>
        <pt x="212" y="-336" on="0"/>
        <pt x="218" y="-256" on="0"/>
        <pt x="202" y="-176" on="0"/>
        <pt x="192" y="-122" on="1"/>
      </contour>
    </TTGlyph>
    <TTGlyph name="copyright" xMin="95" yMin="-146" xMax="1780" yMax="1546">
      <contour>
        <pt x="968" y="1066" on="1"/>
        <pt x="914" y="1066" on="0"/>
        <pt x="819" y="1014" on="0"/>
        <pt x="748" y="920" on="0"/>
        <pt x="708" y="791" on="0"/>
        <pt x="708" y="715" on="1"/>
        <pt x="708" y="644" on="0"/>
        <pt x="750" y="519" on="0"/>
        <pt x="830" y="426" on="0"/>
        <pt x="946" y="371" on="0"/>
        <pt x="1020" y="371" on="1"/>
        <pt x="1092" y="371" on="0"/>
        <pt x="1233" y="447" on="0"/>
        <pt x="1293" y="521" on="1"/>
        <pt x="1390" y="428" on="1"/>
        <pt x="1339" y="358" on="0"/>
        <pt x="1223" y="267" on="0"/>
        <pt x="1107" y="213" on="0"/>
        <pt x="998" y="192" on="0"/>
        <pt x="955" y="192" on="1"/>
        <pt x="848" y="192" on="0"/>
        <pt x="668" y="270" on="0"/>
        <pt x="538" y="405" on="0"/>
        <pt x="464" y="588" on="0"/>
        <pt x="464" y="693" on="1"/>
        <pt x="464" y="752" on="0"/>
        <pt x="490" y="874" on="0"/>
        <pt x="542" y="989" on="0"/>
        <pt x="620" y="1089" on="0"/>
        <pt x="725" y="1164" on="0"/>
        <pt x="857" y="1208" on="0"/>
        <pt x="936" y="1208" on="1"/>
        <pt x="1005" y="1208" on="0"/>
        <pt x="1124" y="1179" on="0"/>
        <pt x="1182" y="1137" on="1"/>
        <pt x="1181" y="1143" on="0"/>
        <pt x="1180" y="1163" on="0"/>
        <pt x="1179" y="1182" on="0"/>
        <pt x="1179" y="1198" on="0"/>
        <pt x="1179" y="1201" on="1"/>
        <pt x="1335" y="1201" on="1"/>
        <pt x="1335" y="842" on="1"/>
        <pt x="1199" y="842" on="1"/>
        <pt x="1191" y="903" on="0"/>
        <pt x="1148" y="989" on="0"/>
        <pt x="1085" y="1042" on="0"/>
        <pt x="1009" y="1066" on="0"/>
      </contour>
      <contour>
        <pt x="95" y="697" on="1"/>
        <pt x="95" y="814" on="0"/>
        <pt x="153" y="1030" on="0"/>
        <pt x="261" y="1219" on="0"/>
        <pt x="413" y="1374" on="0"/>
        <pt x="602" y="1485" on="0"/>
        <pt x="822" y="1546" on="0"/>
        <pt x="944" y="1546" on="1"/>
        <pt x="1067" y="1546" on="0"/>
        <pt x="1287" y="1485" on="0"/>
        <pt x="1473" y="1373" on="0"/>
        <pt x="1621" y="1217" on="0"/>
        <pt x="1725" y="1028" on="0"/>
        <pt x="1780" y="811" on="0"/>
        <pt x="1780" y="694" on="1"/>
        <pt x="1780" y="578" on="0"/>
        <pt x="1721" y="363" on="0"/>
        <pt x="1612" y="176" on="0"/>
        <pt x="1460" y="23" on="0"/>
        <pt x="1273" y="-86" on="0"/>
        <pt x="1058" y="-146" on="0"/>
        <pt x="941" y="-146" on="1"/>
        <pt x="753" y="-146" on="0"/>
        <pt x="441" y="-20" on="0"/>
        <pt x="218" y="205" on="0"/>
        <pt x="95" y="514" on="0"/>
      </contour>
      <contour>
        <pt x="240" y="697" on="1"/>
        <pt x="240" y="598" on="0"/>
        <pt x="284" y="414" on="0"/>
        <pt x="369" y="253" on="0"/>
        <pt x="492" y="120" on="0"/>
        <pt x="649" y="25" on="0"/>
        <pt x="838" y="-28" on="0"/>
        <pt x="947" y="-28" on="1"/>
        <pt x="1106" y="-28" on="0"/>
        <pt x="1361" y="87" on="0"/>
        <pt x="1540" y="285" on="0"/>
        <pt x="1637" y="548" on="0"/>
        <pt x="1637" y="697" on="1"/>
        <pt x="1637" y="796" on="0"/>
        <pt x="1593" y="981" on="0"/>
        <pt x="1508" y="1143" on="0"/>
        <pt x="1386" y="1278" on="0"/>
        <pt x="1232" y="1375" on="0"/>
        <pt x="1047" y="1428" on="0"/>
        <pt x="941" y="1428" on="1"/>
        <pt x="836" y="1428" on="0"/>
        <pt x="651" y="1375" on="0"/>
        <pt x="495" y="1278" on="0"/>
        <pt x="372" y="1144" on="0"/>
        <pt x="286" y="981" on="0"/>
        <pt x="240" y="796" on="0"/>
      </contour>
    </TTGlyph>
    <TTGlyph name="currency" xMin="128" yMin="56" xMax="1032" yMax="999">
      <contour>
        <pt x="276" y="999" on="1"/>
        <pt x="378" y="871" on="1"/>
        <pt x="420" y="897" on="0"/>
        <pt x="520" y="927" on="0"/>
        <pt x="580" y="927" on="1"/>
        <pt x="640" y="927" on="0"/>
        <pt x="740" y="896" on="0"/>
        <pt x="782" y="870" on="1"/>
        <pt x="884" y="998" on="1"/>
        <pt x="1032" y="880" on="1"/>
        <pt x="908" y="739" on="1"/>
        <pt x="969" y="635" on="0"/>
        <pt x="969" y="520" on="1"/>
        <pt x="969" y="405" on="0"/>
        <pt x="914" y="309" on="1"/>
        <pt x="1032" y="175" on="1"/>
        <pt x="884" y="56" on="1"/>
        <pt x="786" y="179" on="1"/>
        <pt x="700" y="126" on="0"/>
        <pt x="579" y="126" on="1"/>
        <pt x="519" y="126" on="0"/>
        <pt x="416" y="153" on="0"/>
        <pt x="374" y="178" on="1"/>
        <pt x="277" y="56" on="1"/>
        <pt x="128" y="175" on="1"/>
        <pt x="246" y="309" on="1"/>
        <pt x="191" y="405" on="0"/>
        <pt x="191" y="520" on="1"/>
        <pt x="191" y="577" on="0"/>
        <pt x="222" y="688" on="0"/>
        <pt x="251" y="739" on="1"/>
        <pt x="128" y="880" on="1"/>
      </contour>
      <contour>
        <pt x="580" y="777" on="1"/>
        <pt x="540" y="777" on="0"/>
        <pt x="487" y="728" on="0"/>
        <pt x="455" y="658" on="0"/>
        <pt x="441" y="580" on="0"/>
        <pt x="441" y="550" on="1"/>
        <pt x="441" y="512" on="0"/>
        <pt x="453" y="418" on="0"/>
        <pt x="485" y="337" on="0"/>
        <pt x="538" y="282" on="0"/>
        <pt x="580" y="282" on="1"/>
        <pt x="622" y="282" on="0"/>
        <pt x="676" y="337" on="0"/>
        <pt x="707" y="418" on="0"/>
        <pt x="720" y="512" on="0"/>
        <pt x="720" y="550" on="1"/>
        <pt x="720" y="580" on="0"/>
        <pt x="706" y="658" on="0"/>
        <pt x="673" y="728" on="0"/>
        <pt x="620" y="777" on="0"/>
      </contour>
    </TTGlyph>
    <TTGlyph name="d" xMin="66" yMin="-33" xMax="1170" yMax="1546">
      <contour>
        <pt x="1045" y="1546" on="1"/>
        <pt x="1045" y="329" on="1"/>
        <pt x="1045" y="314" on="0"/>
        <pt x="1044" y="272" on="0"/>
        <pt x="1042" y="224" on="0"/>
        <pt x="1039" y="173" on="0"/>
        <pt x="1037" y="150" on="1"/>
        <pt x="1170" y="156" on="1"/>
        <pt x="1170" y="0" on="1"/>
        <pt x="781" y="0" on="1"/>
        <pt x="770" y="95" on="1"/>
        <pt x="768" y="95" on="1"/>
        <pt x="700" y="24" on="0"/>
        <pt x="555" y="-33" on="0"/>
        <pt x="479" y="-33" on="1"/>
        <pt x="387" y="-33" on="0"/>
        <pt x="235" y="40" on="0"/>
        <pt x="126" y="175" on="0"/>
        <pt x="66" y="367" on="0"/>
        <pt x="66" y="486" on="1"/>
        <pt x="66" y="610" on="0"/>
        <pt x="139" y="819" on="0"/>
        <pt x="272" y="971" on="0"/>
        <pt x="459" y="1057" on="0"/>
        <pt x="573" y="1057" on="1"/>
        <pt x="630" y="1057" on="0"/>
        <pt x="717" y="1034" on="0"/>
        <pt x="755" y="1020" on="1"/>
        <pt x="755" y="1156" on="1"/>
        <pt x="755" y="1171" on="0"/>
        <pt x="756" y="1213" on="0"/>
        <pt x="758" y="1261" on="0"/>
        <pt x="761" y="1312" on="0"/>
        <pt x="763" y="1335" on="1"/>
        <pt x="619" y="1329" on="1"/>
        <pt x="619" y="1485" on="1"/>
        <pt x="690" y="1485" on="0"/>
        <pt x="799" y="1497" on="0"/>
        <pt x="876" y="1515" on="0"/>
        <pt x="923" y="1536" on="0"/>
        <pt x="934" y="1546" on="1"/>
      </contour>
      <contour>
        <pt x="586" y="154" on="1"/>
        <pt x="638" y="154" on="0"/>
        <pt x="728" y="208" on="0"/>
        <pt x="755" y="251" on="1"/>
        <pt x="755" y="867" on="1"/>
        <pt x="733" y="882" on="0"/>
        <pt x="655" y="905" on="0"/>
        <pt x="610" y="905" on="1"/>
        <pt x="539" y="903" on="0"/>
        <pt x="445" y="836" on="0"/>
        <pt x="389" y="727" on="0"/>
        <pt x="366" y="589" on="0"/>
        <pt x="366" y="517" on="1"/>
        <pt x="366" y="451" on="0"/>
        <pt x="390" y="321" on="0"/>
        <pt x="443" y="218" on="0"/>
        <pt x="527" y="154" on="0"/>
      </contour>
    </TTGlyph>
</ttFont>
